<mxfile host="65bd71144e">
    <diagram id="ZC6PafSODY_O-T9ZUMLZ" name="Page-1">
        <mxGraphModel dx="977" dy="669" grid="1" gridSize="10" guides="1" tooltips="1" connect="1" arrows="1" fold="1" page="1" pageScale="1" pageWidth="850" pageHeight="1100" math="0" shadow="0">
            <root>
                <mxCell id="0"/>
                <mxCell id="1" parent="0"/>
                <mxCell id="2" value="http://ics2o.mths.ca" style="swimlane;whiteSpace=wrap;html=1;" parent="1" vertex="1">
                    <mxGeometry x="40" y="280" width="816.38" height="480" as="geometry"/>
                </mxCell>
                <mxCell id="3" value="" style="shape=image;verticalLabelPosition=bottom;labelBackgroundColor=default;verticalAlign=top;aspect=fixed;imageAspect=0;image=data:image/png,iVBORw0KGgoAAAANSUhEUgAAAggAAAElCAYAAACBJhoWAAAAAXNSR0IArs4c6QAAIABJREFUeF7sXQd4HMX1/+3e7vU79V5tS+69G9wwNr3XUEP5hxpqQguEQCBAIIQkkABJ6DUBU0JvBoyNMca9F/Xe7nT9buv/mzlJlmS1O93Jsr3jT5+luylv3szu+817b95jjlm8RIVWNA5oHNA4oHEgcg4oMtSWXYDeAsZeADBM5H1oLTQODFMOMBpAGKYro5GlcUDjwPDngKpCdewGRD9gzQJjzRr+NGsUahwYIAc0gDBARmnVNA5oHNA40CMHCEho2ATwJjApYzUmaRw4bDigAYTDZim1iWgc0DhwsDigNm0HoIJJm3iwSNDG1TgQcw5oACHmLNU61DigceBI4IDqLAXMqWAM9rAfgiyCSZ90JExdm+MRwgENIBwhC61NU+OAxoFYcoCYFbaEtQap46G6KwExoAGEWLJY6+ugc2BAAIFhVRjSfeDtIbC8DEVmIft4hFpMkP36gz6JeBKgM0rQWQQ6hOzTQw5y8RxO61vjgMaBQ4QDqqcW8NWDSRwJ1d8ESMEjFiDoU/xgdOELcUKLCarM9rmKRJ6Qogg6iK3GQ2TFAdYggbOIIDJR8vOQ/fyQ0M7oAFYHKBKgKkMyJB2kX4CgTw4gaWo9GK4HqlTAV5EI775kqMrhdb2HACHbmGaYsr1dViNQa4NndwoUUTd0q6SNpHFA48DB54AYAEQfNSuQogpuwLEPjD0/DBBUBUzahINP50GgIG1+JXRmkY7cvDoPkq/vg2PmshKAAT1kOtdnHwSKIxuSYRXYxrTAnOumdLcXwWmEe0dav/ONbLT9tVm9Cn16EPmTEhGQAjALGTD7clBXU4/m5hZIYpjn8Sp9AgTOHkLq3OqOsYlQVGWGoidWL3d87itLhGdvSrxoHPp+GSB5djX0CaHwi0BliCaRzpsUodUIx7psgHyuFY0DGgeGnAOq4AUCDjD2vCGLPaC2lgFBJ5BQAMaUApWAhZbd9HojvPVH9C2GSAFCxpIygFEpQGjdNMyvhjIqUudVgbO2CWOVgdpJHhDZ0LQqH3IgttoEopHJngt4Qq2YNLsYJTtrcPKci1GQOgZ+h4jKiip88vEncDqdcXv++gQIiZMaYMwKn6D9VTa4d6Z3EGLK8iBhUmPH300rCw4b9bs51wX7+GY6N8mrR/OaXPp72oJKEJMDKe5dqfBXJsRtYbSONQ5oHOidA/RaITmxp44HuCFSUYv+sDOizkA1BR0AQWcA5BBgTgsDliOwRAoQDiUW8QlBpMypoSSLLgNa1uXQA2PCxEaY2uRjoMYG1/b98jEW8zPlCEgZD/i9QUyaVYw9W6tw2tE/x5zxS6BKDBrqmvDTunV4d/m7UAliiUPpEyCkzq8AZw4LxMZvC6CEOtnfGRUZx5aCaTM1kRO14DR1IZG3BynAIEKV2GqIer5X1ROjwpjhhSElQE/qgsuAQK0dqtTVlsVZQ2D1YXOH4AiPZy50grcL8OxM3a/6ZwBDuhfGVH9YldVsQrDeSqwq/bIx9SiCFsN+B02r8jr8LBhORvriijB9TqJFyOm3L62CxgGNAzHmAIk70EgAggomc3qMO++7O7V5JwUDTMZUqESbQLQKpDC68BVHYig+AkukAIGYrklRRJYewvRJwQ6uEZ+EziZrziKANYQ11pJH38W8yyeEYMzyQMfLED16+KsSevZ/6CxfiB9dkEegwQKxm8zqaemSptfCkBqmt2l1PvW/o0vOKaCaEOKf5ufQtKogZitPtAepM0NQeAH2RBtMJgMCbgWXHHczRmWPA8fxcDm8qKtrwEMPPAhZ3q/RjxkR/fkgpMypBlkAUkIOIzw7u9paOpsZiCBvX1RWLyFpRh14W1jIdhQVFEQ41md1Uc+TBbaPaelitiBtiKOLv5rY/MM2P1ISp9bDmO6jYxFbV/LsWugMYRBD1Tx+HoYUP+wTGqEzdmWaHNLBvS0doRZzR3/px5SBbfOvqP9yJKUrfXE5pUXy8Whend9lCqlHV1InFbKxG78eEcu10PrSOKBxYCAc6AwQMqYS298BraggZzkwycUD6XHAddodE0E0F67ycARFUhJGgDElDbifw61ipAChuw9CyryqDnnR5bBJDqKLy8HwCj21N64MH1TJoTNpWh24bjKGmMB9FQnw7ttv8jak+pAwoakDZHTmPQEnRB7Rwy8DpC8qp474pDg3ZiHUbIa1yNEhIzx7UvbLOV5G+jHltC45gDo3xM6Xgk8WkDpVgcflQ05+GoIBEUnmbFx24q1ItCZTgKCDHqGAgHfeeQcf/u9DKErsvRf71CCYctyUsV0Y6uOp1ykR9MR+1EWr0IaqiL1GZwoLbXLSJloDfWKw41Te2YZvSPXThaYHexUIkFO+wkCf5oeuzc/BW5YIb5uPQwdAUMmtAn6/XagNIBDBnjKrhvanSCxCDRb6OwEVBPERINO4Mh+qFEb66Us6AYQvwgAhYynRjKh0czg3dLWPEVUTUTmR0rCisKOfw+2B1+ajcWA4c0Bt3EZc4MGkjgO4rppLQnc4cBF6dRpUQy4wpJ0uwltYITdU5z6AtwIiMb8ybT4JycOZXXGnbbAAQZ/qR/L0OkpnZ582AgTSFla0CeHw+5i+4+dUd8iYYIOF3oYg2mfqKKkCrVsyEGwgGmOg/VBH3v2ekiQoAgei3bbku8La5SYzBQPEJ4JoiLsAhKb9h8l2JurJOEYRpmxPh+aj5cecmN7GMBf7kJDHUvPCiOIc+H0hZNmKceLcnyEzJQc8z8PImyEFFbjcbtx5+51wOBwxX+e+bzGwKuxjm8Oemz0VFVRt796T0gEUOoOKQJ0Vrm3pVOgyOgUpc6vp6ZuUpu8KIAc4utBES0E0AgQ5iq6wPZFsjOS51RQkEFRITuukTjtAoC8BlYGv3I5AjZ1qG1RRh6QZtXTRyN9NK/M71FHkGk7yjPAG7Ow5S/wK2m9oNH5TQGltR7dk47Vuzuwy8+RZNR2bol1jEfNV0TrUOKBxoE8OqN4GwFsD2HLBWA60/YZNAeTaIdEwdDMrKhLUxq3hIEeR+gxIAdC+6UvKACZp1ND5QAzjPTFYgEC0uPQ0zqjUl63pu3z6LibXIcktOlIIOCCHNssIJ2zFDgoE2k/55HsCHIh5mPzfITMAZC4tpe3JQZVonduLfXxTWBsssOH3PBMGEyzRVoCAjHQInbTN7e3SFlR0gBPyGdEq+MoTY7Y6xLxgm+KCJdEAUZCRMyIdXqcf+SljsWDyKRiZOxpGvQmcjociMJBECa+//gY+/ujjmGsRmOuvv75f7wZi/zEU1EHQtcDlb4Ig7bcXUUEtsbDULICRs8GR8B1gdVFknVS/DIy8H6ETuz6JpUBKsNGCkBCAN+9r+jcn22CvX9SFyUJSCbzm8MNorJkFMzLgSf4Joim8YWzIB18zuaONoHrhzf2G/q0GTZBKRnXpTz9mD1ROAFQWibXHg0XP9kJHzkdUncEHMmFzzOzShzt1DSRDC/0ssWEJWOlAhBmznaJ1pHFA40DPHFCB3d+9BVlRMWruaTAYuzoq1u1cA0dtKTLHz0dKVlfbsBj0Yc/q95BSMBGZRVMi4rAYCmDPqnfA6Y0YPf9MMAwLISRAb4hQExHRqMO/cmvGCihc2Nxib1gETrL1SXTHOzaYBlvLHFo3lL8GPjn8bjXVzoVRSUVzwtfQ2cIxE5IbjwdEHi0pX4ExBgBZB3H3OAoU2guXVQ8mOexgnlB7LHSqCZ78ryDKYR8CYjYWalOhE5Jg1SfBakqKOAEnX7wXKh+Ey9+IELn6SjTllTnIYKdF3FdPTGqU90JOcsBo5GGyGMHzHISQjJysfCyaeAaKsyfCwJuo/KIgQVTR6nLh9VdfQ0NjQ0w3C6MoSr8AofOIqqrgpz2f4z/fPoo6B7G/hJufdfSNOHvBLbjmr9PhCTgp4c/ctAEmfVjN01PZXvE9HnrjIvrVuPw5uOfCN7tU+27bcjzz4a/pZ+cvuh2nzbsWf15+Fdbv/YJ+dvt5L2LKyP2gYmvZd3jkP5f2yyCW1eEfN6yDrReb4WWPjYEoC5g66hjcdu7zXfq775WzsbdmA/3s2Zs3wWrUbjL0y3CtgsaBOHDg1stPw6a1q3DxNb/C5Tf8BkwnTcH677/Bbb84G9PnLsRj/1oOhu3qp3DK7AKMKB6HJ1/7tE/KmupqIMsSMrLzaB/OliacvWAMbAlJeH9NCb788C388a7r8czbKzBqzJGbh+GWZxahsbWS8vKRKz9FXtqYPvl6yR9HQVEVTBqxAHee/zKtu6VsJf74n5+H5cn8m3Hs1Atw/VNh8DAmdybuvfgt+vuljxZDJhGD+in3XPQmxuXNwdeb38RLX9wHUQofTjuXKaMW4/pT/wJLFO9xp7cBNzw1D2qbDHz0/75ATmpRf2T1+b0kS7jxibPR4mkAS6xXyTZqXrDZLLDZrVg88RyMzBiPBHMy9DojWJ0Oes5A5S3LMtDF2EmWUXu5H7GldCWWr/oLnYyBN+M3F7zaZWJkcT9Y8zT+8+1j9PPi7Gm4/+fv4hdPTIUv2EoJfvbmjX0ChJ2Va/HAa+fT9qNzZ+C+S5Z3GePbLW/h2Y9uo59duOQ3OGXOVXj87V90AITHfkEWZL8T0rbyVXjojYtp/URrOoqze/ZwJqj/6pMfhcnQM3i56i9T4Q20Ij99LN3snctt/1qGmua9tO1zt24b1GbQGmsc0DgQPQcCfh/OXTwefq8Xi447Fb/7y4udOlPxq8vPwMa132HJSWfhnj/9u8tAf7r3Jnz89iu498/PYfEJZ/ZKxEkz8hAM+HHGhVfixnseRV11BS5cNhX5I4rx0sc/YvWKj3HP9Rfh7Euuxi9/80j0kznEW9789MIOgPDH//usX4Bw8SMjOwDCXT97pW32apv8cKEoexrOOPqX+NNbV9Lv7r/0XRTnTKO/E4AgySI4nZ4e4phebqadOf8GFGaEA1cFBT/21W7EZz+9gA37vupyLTDFnoUnr1/T4woQ0HPfK+fQ744efzouOvbuLvXueeE0lNaTkNvAjWc8hbnjThnUSn6z4UO8/OXj4HgdfJ4AUjIT4GzyID0rmZoPJmYvQlHuOKTbc5GelA1yvmcYJawJYVnoOa4LUB4UMcQO0BtAIKf7P7x+Ie2fCPt/3rwJRr2ly3hl9dtw9wthhkwqnI+7LngVD7x6PnZWraWqt7//ci0SrWkdbVZsegMfrf0n/fvX5z4HmzkFV/9lGohWIiOpAE9c822X/l/96kF8/GP4wX74ik9QkDGuK0C46kvkpOxHbE5PQwfizEwegT9fvWJA1xq7M/FXzy5BnaMUOpbD365fjSRrBq0iyyKufGISBDGI4twZuL8boBnsYmjtNQ5oHIiMA1t+WoO7r78AXreLnuoXH386rrvzDzCazHA0N+LGi09EbWUZps6ejz89/x7YNk3Cph+/wy0/Pw1WewLeXrkTBsOBjo6EkoqSPbj2vCUgYOSuR57GyDET8IszF2LJSWfjt4//G/994Sk8/ehvcd0df8C5l10XGfGHUe3YAATgdy+fRTW0LKPD+MJ52Fa2CjqWyJ8NMBnCZou7njsJFY076CHtnzdvpN/3Vtx+B5raNBtpifmwm5MhyQLqHGV44p1rUO8IX1P8/c/fpaCkeyFaguufDGsxEixp+PsvfwDRQJNCzta/fGouSB1SiLZ5WtGSqFc1KARw178vhqoXoGNJMCYVOp5DKBCC2WJCc0Mr7Hwmjp58HNKSMjEqayx43kC1KXrOCKPeDE7HwaCPnbmrV4BA1DE3P70ATm84GNKEwqNxweI7UJg5EYoiY0flGrzw6W/R0Br2MP35svtw/MzL8M3m/+KfH99OP5s8chF+dfY/wXMGii7J4rt8YfsQMT+QxSImhm3lq6lq5KqTH8OCiWfR70tqN+OhNy9GIOShWoh/3hLeCF00CN0AAmn34GsXUNoIuvztRW+iOCesRaht3oeH/3MpnJ565KePwx8u/4CCGAIGAiQqG4Cnrl9DF/9/a57Gm9/8kX5GEOotZz1DUdljb10JYsYg5WeLicnjyH0hRP0UaA01DsSYA00NtXjrxX9g+SvPQJFl8Ho9xk6cjqy8QohCCF9/8i4dMT0rFxOnzUZDbRX27NhCvyOlsGgsnn37a+gNPQdc+vaz9/H7W69ATv5IXPXr+/DbX16MOx/+B44/4wJcc+4S7N62ES9/vA55IwanXo4xW4a0u84AYcHEs2Ez93zl8+Q5VyHJmo6eNQjAut2f4Yl3ru5C+4jMSXjw8v91aAra389Ec3DOwltxxlHX03d5IOTFU/+7EZtLvqHv/2duWo+Kxp24v00DsHDSObjmlD919P3YW1dg4z5yiAQev/prZCTm447nToAvSHzogGtP+TMmFB6F2/+1DLUtJfSz0+ddhzPn30jl1ZcbXsdLX/yOfk7kxlPX/9DlQBzJAhAw8MGaV/DhDy9TR03ewENvIGYDlmoOOI5DfVULxJCIoyefgHEjpiEzOQ9piRngOT01c+g5Ez3UmgyGmGkRegUIZHKbS7+hQpEAgvZCCCDmBXLqby9ZySNx/6XLqZojKPjw+1fPR3lDWP2elpBLtQNE4BNBTATt2fNvwVnzb6TfE7UP0VS0O3uMzJpMJ0o+J0iPMP7Spb/DcTPCvgX9AYR9NZvwwOvnQZTCMRgIQCB9kPFJf8Rc8vhVXyHZHr6++H9/ngR/yEN/f+WOfZTBZH53/Ps41DTvo58TDQopRK1FCtFaPHDZ+wdoVCLZEFpdjQMaB2LLgbqqcrzyzOP44dvP4WzZH+W1p1EysnNx3OkXIBT0478v/B0Ll52KOx7+B8yWns2ORBOxdf0PyB85mgKMD34sR/neXbj+guOo78HT//0ytpM5xHrrDBD6Ip2YbInptjeAQATdtX+dCbc/7KxIyr0X/xdj82Z3/O0NOPG7l8+mWt7293GSLQPlDTtAvmMZFj8/7n4sm34J/f6Ofx+PqqbdVA7MLD4ORMZUNe3Cmh0f0Hc9MVMTczWRc9f8bSbtgxSi5Z5edCwqG3fiN8+fTOuG5YGeAoR2mUU+u3TZ73DCzMujXrWqphL8/ZM70VjfjGAgRG/epKTbEfCHoNfzEEMSREGCIEjQMRxOOvpnGJ07FVkpuVRrwLLhIIZEi2AxmocGIJABd1evw3Of3I2aln1dQAH5jueMGJM7Azed+TQsRnsHcwiSI4J8d/VPkJX9ySTMBhsIirtk6b1dJrCnej3VOrSjtPaOiGr/tLnX4PhZ+xnfH0AgbffUrMezH97WsYHa+0tNyMUVxz9AtQLtpSeAQL5zeOrpHAjQ6eymUZAxAbee/SwFPlrROKBxYHhyoGzvTuzbuRVEu+B2EaHBICE5FckpaRgzcRoV9KSQZDf33HAxflz5BUZPmIo7Hvo7dV7sXu698VJ898UH9OM5C5fh/CtuwF3XnI9QKIgHn3wVRx970vBkxBBRFSuAQMgljujEEZ4UcugkZoTuhWiin1h+FfbVbuoQ3KQOcTZcOu1inL847LtGSr2zHE+9fyPK67dDUfcfdgmQyEsfhxtO/xuyU0b1ChBIH0TL/fynd6PBWdHhlEg+J9oQohU5cdaVUQvlysY9eG3lE6htrqBxDwhAUKAiPTMJjXUO2O0WyJJK5ZAkSRCDEk6afyEyknJQkFEMI2+E0+ug4MBqsiMzOQc6XWwievapQei8KATRrd/zJTUpkAANBAVOHbWkw6bX0z4kNwE27P0Srb4mZCWNwKQR86kqqLdChDJR4ZOT/qjsKSjMGJxXcENrJXZWrKHaBOIEWZAxPuLHpdlVgy1l31E3mCmjjkGyLeyPoBWNAxoHDg8OkBfvQ3dcTU0RsiRh/rEn48qb70FSShr1Em+qr8UvLziO+iGYzBZMnnkU1q78gn539a/uw3mX//LwYMQhOAty5Z7canP7WpCVPAITRyygGoSeii/golpxIo/s5hRMHrEAdsv+KL0DmX69sww7K38My6isKVQbMZhSXr8LL674I0TGh5amVsiiDFGSoeMYGIx6BHxtNy8YQMewNEkU2aNTR89HYcY48KweZoMF7kAr7JYkam6wGm2YXDS7Vz5EQu+AAUIknWp1NQ5oHNA4cKhxoKp8H359xRlorAsn5iEAgNi5ieq5+2Uv4ufw3Hurj2i/g0NtfYcbvdXNJfjnpw+AMYbgbPYgFArRqAEkrwK5xSCJMtWOSIJMNQc8x4M3cFBkhZrKJ+bPQ3JCGjUvhCQ/iP9tdWM5dpVtxs9PvBHHTD990FOOOA7CoEfUOtA4oHFA48Aw5QA5nTXW12DX1g3YtnEtfB439q18B1kk4ZyqIkHPYEoqg7ycbORf9Bhsk48bpjPRyBquHCB+Fhv3fYsPfnoZjEGAy+lFMCBQICpLMmRZAcezUGRSU0UwGKKggIBV4rhIC9EoEIdEoxmBQICaTohZgXzv9wfAMRzOWnwljp9xHr0REm1hXnz51YgCJUU7kNZO44DGAY0DhxQHVGBE/edIKv2UppbuqahJ+XAlT0B90nT4jfuvdB9S89SIHUIOqPBZKlDj3QaDTUdNCOSH07MIBQW4Wr3g9bqweYAFREGkoZQlSabaBR2vo76ADMvAbDWTWIoUWPh8fuh4FkaDEbxBR30ZjAYD8u1TkMlOBItOmZgjmC3z5N+f0QBCBAzTqmoc0DhweHKAURWkuHch0VsKg+iCqLMg07kB5POBlBCfAK8piwIFgbNC5MwocbMor6lDbvFkJKbFLtvfQOjR6gw3DqhQUhrRJO+EwaKH4Jfh8/vA6hhY7UbUVDTB5fAgOT0BgihCbwgDCKJVEEWJ+h8QzQIBB7KiwGjWw8AZoWNZ+INBCiKS7SlQdAIURsaIlElIsqShvroZpkAW9GzXOEYD4Y4GEAbCJa2OxgGNA4c1Bzg5gEmlL8PurxrQPEmA+vdLZZwxUtdn/P3/7lWwpl5BdkERZp/6fwPqW6t0eHKATfRCzCilJoPChKkIqE6UVu8BZ1LhaHLD5XDTaIg2uxmBYJD6Ifi9fmpyEIMiVDBUu6DT6yBKIng9B7PJjIyEfBq7IdWahwkFs9AaaIRXakFR8gyE5AC8Xg827ViLFIyGkY0sNYAGEA7PvajNSuOAxoEBcoBRZczZ+WfoRRfcIaDer2CvS4WsMDBywPH5B3rFE7XrjhYFE1J6v5XVPryoAPUZR6M0+8QBUqRVO9w4oDOoKJqdBKvZCq8riPycEfAHPahrLceqbR/D0dyK5kYnsnLSwPIMiIWBOCZ6XX5qUlDktoBJBtAgSsT0QMwNo3LHYWL20VAZBSnWLCRb0sFyLBRVoqYH4vjokZrQ2FqDirp9MDeOjSi6MPO/Dz8+LEwM7QldO0+mW5LXGO65+PUcMZFDQMoQDBHxtLUGGgdixQHLhhdhLf8Sb+1TKBhIM7XteJL8ieh1B1sYFvUnPgWB7zvD4WCH0doPXw4YU2VMGT8NHExgWBmCFIIkywiE/Phuy8dY8dP/wBtYJCTZICvhWwxE0+Dz+GE1JmJywQKIagjbqldBZSUEgwISEhJxzKSzwMg6qIwKE2dFpr0QRpMRKohJQoGohEBCETWLZdjXsAk5vkW95q7oiXtMSBB6fQIOumDonse9j/UntPY0kbjMoQ+6OtMRl7F7XMUDR4rZ2G1zjaa/ztn1hu+jq1F2JHNA8rTg6QvGoDgRyDIzNIMeKbZJxyHzzHuw7w9LoMr9Zw7si4fkpkPh9a8dyWw+oudOrsj+WP0RRiZOB8fy9Mos8SFQVBL8SEFdSyU++O51OMVKGv9AZUkgRZUGTAr6Q8hNLcL4vNkoSB8Dd6gZ3+19B/UtNeCNHGaMPAaZCYVodTlQ2bITxQlzYbMkICsjGwHFA5WR0BKsxIiUibAZEpGb2HeWze4L1SdA6G9VoxEa/fXZ5/cRAIbe+hkSmgdAZ1zp6AfADGoNSGOmt/xp/fesgYb+eaTVGDoOyGIIzSVbYDOQtzILndEKLiEDOpOd3lzY+/vFCNbujIogPikbKcf8H5IXXgadSdMeRMXEw6ARAQTlzi1wBVqRYSkEr+PpYZaYEEhaZ4/bC50BKKnbhnpnJZr8lRDFEARiRlD0yEkuwuwxx9IgfQok1LpLsX7fClQ7S5CRnINkWzoaHJVobGiC3GpGQWYRJEXEVWfejpTEVMiqCBNvpdciIy2DAghUVkQ64mDrD0D49jfEkNA8ADrjSkc8QYKmVehvi2nfHyYcCFRvw74HlwzY1EDARdrxN8A24VgYMkZS0KEVjQPOQAN+qPgATS3NyLGMhZ6xoLahEmu2rMDMSUehqKgYIcGPmpZytASqkG7Lp1cdE0zp4BQzku1p0OlYGhRJlEOoby1HVcteCg621H4LQfKjak8znI0e8DxHLWN5mSNw6wV/wIjsMVGHgd4PEDrb2gYg3A7qCX0g+y2KORwMgR3XMTvzqQd+xHRsDTQMZFdqdQ5BDuy6cypEZzi6Yq+FYZG84FJk/+xhMLrIT2qHIFs0kiPgAEk7sPzr57D86+chiwzMehtavU3wB/xITkrFwsVHIzM1l6YiMOhMSLcWgmU4QGHhbw2h1e2AoAaRkZQFH9uCitZtsPIpsJuSsL7qczQ3tKByVyNURaVJqchVSIvFRLNq/mzZNTh60jIY9D1nK+1zW4dCof69cKIQtl1kUwSMjHvVCOcSUyHafXL90BLXsdtpiRdw0ABD3LeyNsDQcKD+vQfR9Mlf+xwsZclVyD7/D0NDkDbKIcUBSZHwyZo38M7KF0CAQkujA6Io0lM9MT8YTQYYDAZMnTsONqsNRamzYGUzIAg8Am4PBH+ozalRhKrjUeXaiobQNvA8Dx2jR0NdI5prW8NxEjiO9kvSRHM8R6Mrks+mjZmL84+9BnlpIyPSJjADAghkOSIUrMMWIEQ4l7gLaQ0k9Piwa74Kh9Q78LAmVlVk7LhpJBTB3/Ne5fSY8NcyMJwoOTL3AAAgAElEQVT+sOaDNrnIOUCuGn645jV8+P2rCBG/gpAIj8dLs4iSnAvtintiTiA3F/JGZmFO8fGw89mQGDNNK60oKlRFAgnXVVa9Bas2vAdBDFBBT34IEGgvJNQyCdFMgEE7SCDxEoh5IjkxGRcefx2mj1gMTtcWsrmfKQ0cIPTU0SBAQ8cBNnKex75FhPOIK2gYAC1xHT+emoVBaBXCuG5IZh77/RWHHrsnD9J4Ewcmd+qy/KkL4dn6RY+DcPZ0jHtse3wJ0Ho/5DhAEi29+dU/sHLLh2GNAVh4PB6IokBvL/j9QciKGj7xg4GO01ETgZG34ugJx8NgsMKekAUSp8Pjd2DLvu9RUbeLZicOl7CmgLq5kDDMBBToGJjMJnqVUZZVmMx6+hlJPJZKIjQKCnKTR+HyE25DWkJ2v1ceBwcQIjyN94gxhsuyRyh84iqqhqlWIbwlB1kGARKOdCGoVlYikJoKRVGoapL88O++C+NDD4FJTATmzQPuuQdIjSyF7SBX9Iho7t3xNcr+el6vcx356/dhKT7qiOCFNsn+OeAPefHmiqewpWQtQmKQNshLL8Lm3etobgWiOggJAlgdCzEoUS2A3qBvC6ssgmP0MPIW5KSNpFqEsobtCAh+CCGBRlZkyXuUAQUI5Ie8EwgI4DiW9kPAAtEc2JMsVANB3p1WuwluB8n6yMJitmHu+KVYMuV0pNqzep3Q4AFC964jFLTDFjREOY9BC9AeGdJ/r/3X6H9T91sjXv4Kg9AOHBGgwe0G7r8fQiiE0MMPdyyT7quvYLrlFjAkTWxbHBDhmmvA3HYb9CZTv8upVYiAA6qK3ffOhdBY2mMj+/RTUHD1CxF0qFU9HDlANAOBkA+t3ha0uBtR2VSKFlcdDLwJq7d8jhZ3AwUIxNRA8isQoEBSfRCnQo7j24R9OL1z+Puw5pTX82FQERJozgWWJf4LBCAwFAyQwwL53WAygON00HEcktLsMBh4al4gxecNQJVJPgceCeYkWMx2iFIQJ8y6APPG9pyVNPYAIQZahZicVGOx+zSQcCAX4wgSwlsncqgTTZtYbI8h6WP3buC664Bdu+B75x0o48eHh3U4YDntNLBNTWFwYDAg8NBDkE8+mfoL6fV66vikldhxoP7dB9H0aS/OiqwOo27/GOYR02M3oNbTIcQBFS3eetS2liHDlg8dw1NzgSfggjvQikDQhy/Xv43yxt0IBUMIBQQaBpn4C5BCTv80gyPCjouyTDI4SrSP8PNMAAJobISw70JYg0i0AdQRUc8hPTMJRrOBAgKiNTBZjNBJZtj1qXD6GuHwNKAguxg2UwJNXU46rHOWoih3PK494QF6g6J7iQ9A6G1Zo3j5D2SHRC5SBtJrL3WimENc6YtnvIOBsClegEEzRUCprga7bBngckFJToZv5UqADzsXGa+4Avzq1WFwwPNhcHDaaV1WzGQyUQ9mrcSGA/6y9Sh55IReOzPmjkfxb7+NzWBaL4cUB5q8VVhT8jFyEsagMGUsFexE4JIfIvgrGvbCE3Bi/b6V2LxvDY2QSDQBQlCC3sgjOz8NPlcAzQ2tVLgT50aa4plCBqJB4ChAIFoFAh6o42IbQCAgwWjSw2I3w2DUg+d1VEugY3lMG7EIPGuCL+jG5vKVyEzJh82cgKKsSah3VqC0eTOOGnc8Tp15ZY/8ZoKdrjnGVZANIWgY0nlEARjCix7HcriBhkGAhc5cPpQ0DVTF+OabMN1+O52CXFQE/0cfhQGB2w3b/PkdpoXQeedBuP9+MD4f4HaD3b0buo0bwQYC4B98sANUxHHHHRldqwq23zwKStDb63yzzn0AqUuvOTL4oc2ygwMkWNHe+s3Ito+GkTdDEAXoYERR9hhUN5fB5XViW+lubCstQUDZiVDAT00NBECkpCZAp7fA6VDQ2lhBZQMBAURTEAYZ5BEOh2gmGgRF3g8eCAHE54D4MBD/A+roqKpISUrDMdNPh81ip0BDkRU0eqoQkvxQFQbbShowb3Ix0pJTsGDc6Ui09Oy31AUgxF1w9bShohSw/e3NuArg7oNHMYe403cwQUIvYw9qzoMI73yogQRBCKsfuTfegOm++8IAYfx4+N99l/5uvOkm8J9/DiQlQTEa4Xv9dRjvuAPcjz+CIarDzkHPHngAuLLn00F/z5D2/YEcqPzXL+D66b1eWcPwBkz4SwkYTjPvHEn7R5AC+GLXa/Rkn2zOBKcz4uk338Mlpy+GP+RCRf0+cDAiJEj4dsNW6myYkhSALEnILUynPgYNdTLK99XDZiJhlgWQWxCkEBMCMRcSR0RyG4IAB5KsibxPyaGHAASiYSC+B8SXgZS5E5dgypi5YXMDvTERoFcrTRYzgoIPja2NWLFuEx699vfITxvV+37urEHoa0EH9XKP5U6JQhi3Dz/kc4iS1rjQebAAQzzAAkWyYS7FglfDSbMgOJ0ItZkFdJ9+CvNNN9F5KgUF8H32GdExwvrWW2AuuACw2+l3anMzcMopYKqqDnjS1MmTwXz6aSyfwIPfl6ogWLsLxpw2f4whpMjx/euoeSm8Jr0VPikHYx5cq4GEIVyX4TCUrEg0EBK9WcDoUNvUgP+seB/HzpuAdfu+hkgcE2UR+2q2wu+T4HAaqSli7AQLDAYGAX8IO7d5wetEQPZAJf9o8CMCEPQUGEiiTM0PXg+5jUAhAogpMT0lCy6/A0aDCYm2FCyZcToSExJovAOeMyIg+OhY7kAzEq2pyE4uBFQT3vjiPdx+4S9h1PcMaA/QIETK6Fi8oCMds8f6UQrjWAmZAc0hShrjyuODBRy6M6wTHVHP91DXMmzYgOBPP0Ekwp88+qWlsBKnQ3KtkWgKVq2CMT29Z7+CnTuBY48NZzQ1myEXF0PNyICalQV9p5sPA9qnw7xS48dPoOGDP2LikxVDLoRbP3oNVf+7uV8OpZ96OzJOua3felqFw5sD327+Hu//8AbOWngCGHD4fPObqGuqpP4EC0qAgNuAlYkGyGkcVNGJ1HQD6usYhAJuGPgArac3EhNCOEZCKChSgOB2hc1c5F1ZmFuMMYWTYTFaYDRakWrPQFpSNlSdBIveRkFJk6sWTU0NmD3xaORnjIaBN8L19adY/tnb2JCRint+fisyk9MPWIxBA4QhFbD97aUoBfCQziFKGqMWmv3xjE6+997jOm6sQUIPWoX2gEKRagkirT8QNvdb57nnEKqpgXDLLeGqkgTL0UeDbW0FcnOhvP8+2Kxe7iyLIoQnn4R41FFQRo/u4ndgtVqjuh3SL70HoYLkbsTO2ydSM8q4R7eDSzjwpRZPsiqPX4JgxTbIWSqUdEBJ6F2NNfK2j2Apmh1PcrS+hzEHPt39A/659n24dpfjvDnLMHviWGwsXYnqhlL4BDcu+bwZBglwWXT46oxxqC2T0RSsQ9DnRyDIwmLygdcF6dVFelVRJWcFBaGQCGeLm/oiWKwmjC2cgqWzzoHFYKXmBLPRCp6YuHQMgj4f3B4Xyir3orqpAgobwJ1XPEYBQsnPT4fo92F1ejJqZszEOUvOwPjC0V04ygSDQeJuGRc2x6fXCEgdxLyGlPYo6Iw7ffEyDQxw+YZEQEegcRgSet57D+L77yP4t7+FuUTitF9+ObiWFjAvvggUFvbJPeHPf4Y0ejTkuXOBTlccDyeA4N31HcqeOIvywTpuEVKXXgvziBnQWRIHuLOiryY7nSibPA7GacnQJRvh+6IaqhGQ01QoKYBqAVQ9uXIaHsOYUozc8/4C00wNJETP9UOzpaTIOPXFO9DsbwUjq1hoLsCEvELMGjceza56qvLPW/4l+MoaeMbkova4BSgrK4Voa0Z9fSvKKloQEDjoOQF2G4OCzHyYzQY0OCsQDAXRUt+KYDAIlmMxfuQ0nHLURVToczo9OM4AkSR5IuYISYTL7URNzR58v+VDOP0NOOeES3Hx0htQce1FkBzNME+ZAest9+Cp5f/GMdOOxtyJs8KBmAj2pQCB/hYfkROfXiPYNIOY15DSHgWdcaXvIGsVhkQgR+jHEHeafD7IN94I/xNPdDyP3N69MOXn9x8dURSBadOgOhzUoTH4xBNQ2wDF4QQQWte+harnr+vyAiChjot/+w04e1oEL4bIqwa3bkHVacuQcc9MGCYno+qMz7p0oksJZ8uTW8KR80gxL5yI7Nc/ARjNaTFyjh+6LUjApHs/fRLfVOxChjUJT5x4LdZs+QmBUACLp82iz7ckhLBr22oELSzqGxuwp2ozli08FZCB8up9cAUcqKyV4Q+FkGhJgqiEwHMh6HkJE/KnYdvetdhdvhljisfhpDkXIdmWAZkxQhBlyAog0psQElyeVuwuWYNVG9+n8RSy8tJw4fHXYJZ5EoI//QD7sSeCS0qhPg4vfPImLEYTzlp4Mgx6QyeA0NdaRCG8+lva7sKNoJS4Crx2ggYxlyGhb5B0xpXGgwwaOvZUD3TEbN4RgIa4AIZAACHiqcyFM7ENONjRrl3AkiUdLFIMBvjffhsYMwYEIBwuxbdnNUofP+OA6WScegfST/4VFCkE/941cG/9HKHaPfTKlyGtkGobbJOWgdwyYFhdVOxwb/4MFX+7GPp1gM7BUJVv5zLyx7OgBCSUL/6g4yZJwScngS9eBpguimpMrdGhyQFvyIW9dVuQYc8jYZCgYzlwLIevN6xGUAhi9Ih8ggNgZBhs3Lsab3/8GubNmYdZExYjJ2kkzdLoCbSCYVms+Gk9inPzUZCZQXrCnspK/LR7M7aX7YGieJCWbML0cVMxe8wC6HiSb0GiERdbHbWoqy/Fio3vQ5QDNPCS0WREYpIVOYVpOG7iJVg85dQDAiRtL9+N1z9fjtsvuuHgAQSqtGhb+87PWcxe9HECPENC3yBAQtzpGw4gIZ4AgW7MyG5IxAUoRPBeJHZJ4dVXoX/oIbAkLHNbkXNyEPzsM1iSkyPobXhXlbwO7PzVmAOINBfPg9hSBcndBFUKh57uXggwYM0JsE89GZln/AacbeA5K4Smcuz7w1LIARftlhEBthbgdzH0d1IyHplDX2oNd6ztGNo0Iw3WU89Fwi/C11W1cmRwYHf9BjS3NiAzsRAhmSRjUiFKfjSReAj7dqPJ6UJxXibKyjdh08418Hq9WLxwCaaPXojCjDE0yBFxRiQmA7msHI9+8DomTJuDE+cuhAoFZXW78Ox/HgOrBxKSE2C1pCEQUBEIEj8FIxSZgSpLCAQdEAQvdCy5MikDqgSLzYz07CRIQeCEGT9DdloRnB5yFbMaNc219Kom0XS4vO4BAoQ4CdtItsrBFHwDoTPu9HUmIgotSFzoO5h+Ct3Gjsv82sBCpH0PJWAgJ+RAIEDVgxAE6J99Foa//73jBKs88QTY888fyBY+ZOr0ZGaIlHiSmtmUPxkZp98F69iFBzRX3G543n0Hvm++glRZCU9xORS1h3TPJBJuAGB8AOsAWE/b3yoDlQEUqwrL6Sch7+6XIiVRq38Ic2Bf/WZUtZTBxFsRlI00ayMxOwiiSGMSbN+zHtv2bYfHtRuiGKJCOSejEJeccTVyUkdAgRHkFqOhphL42xMglx6fS7PBNnEyZhSPwFufPI/K2lLqfEzCKyckW2Gzm6k24NRyPRK8OogM8K+kFoRYAhpUGE2mcII3vR62BDN4gx57nQbIKouLFpyGM6cfS80KBl5PfyRZigFA6BGqR/pKjW4nDMkoUQjj9tkMCX0dg0U+WuQtBrhOBws4dB+XXCKOlbYhQq1Cz49F7DlOHJVI8JTOxXj99eC//BIoLgZIDITDLHGTqsiofeMOOFbGQOgyLKxjFyDpqAtgKZ4HhjdCcjfAccf98K9YQdmq2IDQom72hAE+CqSaKX8Kiu7+MoIWWtVDmwMqqppKsbdhK/ScASGRQUBgEQz44HY1oLp6J2ZuLsMKWcVGfRAQa+nJnjgZXn7GrcjNzQfHp1PhbyrfC/3TT1J2BCZPwXeTRuGdL5cj5K2DJPo6DgIkQBIxH5CYCQ86MpCs6EB0Bg9mOuHiwxEY07OSYbKQgEskmBoDNjERGwLhWCozs0fjH2fddkD65/1OirFekUEI1oGSEvvXbQ8jD3IeQ0Jj20l3oHzrXC8u9B0sM0TncTtHEzxMQYL68svwjxwJZcqUrkvvdsNy3nlgH38cIDcaDtNS+ewVcG34IOazY/yAccX+J0MaqUIcREwmYsoY96edMadT63B4cqCkdgee++hRZCTnIsWegX1VO9HkbEEg6IUg+DG3WcbxjXp6wn8uQcImIwuIzeA5hV5ZnDl1LvJypkPP2cFIIgzffA60OlC/YB7e/PwFlFbtAmtIhyL5IQZawhEVWRYmksmR5zAzZMJCrxF1RhXvpwSgsgzN4ZBTkE7zNJCbDySZm6iy2OC3QWB0GKVXcfPCizB77JL9IEFVwATabzEMtZNg5xf4IE7BvW2RuAi+GNAZV7p6ZcbARx14zQgfzoMFGvoisxNNUc87gquSPZEStTmCJG669FIoNhv8b70FNSenS/dGUQR/GPke9MS7sr+cA+/O2CdH0tUB+vX7d4QwVYWcG+F+71SdOEZOfKo6+g60locMB7wBNx5+7UY0OuuoD4EsEbOCAFmSIcsKdByLHJeKK+otdE7PJjqwm5eh6NLBMR5wjABWx+Csk6/GiKypNOMioxMQDAlY+f3nWPnDu7QPURDBmVKhwgDRXwuWUWE0hgECieQYDIZgNhtpCGfymiNxFNKykqlWwtnsgi3BSp2gaT4o3gALB6rBuOjYmzCxYE5H3BRGEEUaz5EmfyQR23o6RB/M5RnkCb5Dpg/FHAZBa9QCKpp5RUFnzOkb5oCBKmUGwduo2raN1x9oUAQB7KRJgMdDW0hTpsD/5pv0FEEKSexiNIav3B3OZffdsyA0l8d8ilwZwG/fv4KhuSqUgfsz9vgGnfRsY8zp1DocfhzYUbEef1t+NwUD5IfcHKC/t6duZkFDKlslEgdNhodVqF8A8R1QuXQwkChQSLSmY/b0ZUghgpwBSktL8dnqdyArcvj0LxCzogpZ5WGwjwYrVQNKgD77xMxANAbkFWsym2hIZrPNCIvNRNNLk4yRJNdDVlY6BRQkjwPPcVRzYDKZcemxv8aozEkUJDAKNUiEIzTJikL/76kM5oU36GWMQqAdtDkMgtYh5XEUdMacvmEOEqKe7yC1ChSc9MIb8jLxejww3HMP9OQaY1shsRPkk06ipweLJXw6OdwLiagouRpiPk1uL5C+ZAIMY5NQf9NqhOarUAYRh4k1WDDhb7EHMjGfuNbhoDng9Dbj+Y/+jJKabfAHPW25E8Lpm4lqP+gPdoCH9iiv5ChCTvgkE6Mo6SEqNqhCNYxGPRXakqggGGpzRGYYWG0meF1+yDoOwbGzoBMAS4MPjNQKnm2B0aCHWW9BY0sDElPsVFNgTzSB03MQ/BIkSUF9TSOyczNgtoRTwhNQQeqRH4vZigsX3oIRGeNJ8rewrp/81/5D/27TKChtn/fFuahfpINdjiiEXOchh4zuQdA53GmMG30Hy9GxR2S5f5axmG9/GoKeSWDo8+nz+cLPqSTBfM454EgOBnKBqaAA/s8/pzEPoul/sI/iwWi/49YxkH2OmA/NlQAFty6GfqQd5Us/QOgoFUpS9MMYMkZh9O9/iL4DreUhxYHV21bj5U8fgscXBAuRHryJco+YGYIhkWrqifaARCskWr/2pEvtz60CDiEpAbzOA1YN0MyPoiTR0z8BEVaLGYnmDLh1PCqTw6otY8CD5OYqBAULzHqgKDcHtc4S2BJMdAyiJYCqwNHkob4KPq8fqsoiNS2JBk8iAIFldUi2Z6IoaxJYHYuCtOL9AKH7CpCXENEmEIDQXauwH/mEW8XipRn1DhiE8B0y2gdB45DyNgo640bfcNIuxPhKZbQCvOM6Y9vDovvqK5iva4sqmJwMdfNmMLroggBF/fwdxIbbbyyEEvLFnAJdJWCqMoLRs5AaAhBmqpAzox/GPu1kFFzzYvQdaC0PGQ7srtyMf330CJyeZjS0mGA3u8FAho5jEAyEfREkOeybQLR9xGmQKPGJAKeZ2kmUA5LO2Z6JoNMAg+KCEqonOv7w7QMwOGryUhTnTURIlfFh/S7U+V1Id1XBLPmh0/HQsekAY4HF5oLBJNMU0ERD4Wx2w+XwIiU9kWaHLC+pQV5eNuxJFujAIy99DOaMXgqL0Y5GVy02VnzVO0Bo1yp0+b9dq9AGHAayanETIN0Hj0K4HdDFQCY02DqDoHPIeNl5jhHQG3f6+gENQx5wiyLMIdAukOft7bfhX7gQ6BwVkWgRTjoJuqYm4LnngEWLBrs7D6n2228aASUYzmoXy8I2AYa1+9dVHKtCKop+hOxL/gJTVjFkfytkQq+qgpgddJYkEO1CJAGboqdCaxlvDuyt2YqXPn8MPskFISjC4w6h1WNEkj0AhaSCFkWqBSD2f6KiJ34HHMfSGAnkVE8O4xwR5IwRDYn5YEUFNmcApoAPPOsGy4QgS8BZx1wGi8lGhb7L58DnP74NcBJ0jA6FeUWYWXwMSuv34ZsN62ga6dQU4uOgwOsOwNPqQ3p2KtUY1FU1Ul+lgoI8TB25AKNzpyIzIZfS5fA2YsWuN/oGCN0Z2tkMQSbT7tzY4eTY082EodQwRCDMetsscRdy3YRKpJt2SOgbBPiKO30RrnHc6RkKkPDcc2B+9ztIM2Yg8NJLJEF8xwrpH38c+oICMJdfHulWOuTr77h1NGSfM+bz6H7NUc5QIcyKbpjtDhV2PZBn7WUnMixs4xcj86x7YcydEN0gWquDzoGSuu14bcVf4BUd1ATobfUjGBQQFDiIMgezwdvh5xf0h6gK36g30VwJJCARAQjkpE+0iw4YUW/LpYePSWYrjsuZgp1VNWj1NoGDB/MnL6WC3WyywmZKgMfrwe6qTfALbuRk5iM1MQM/7foWP2z8BnyIh1eXAVuCAKtFQigQhD0pDC7EkIxWhwdL556K6cULkZtaGHaWhAqXrxk76n6IDCC0r0K7iaH9f2KCIL8TW8tASlxf2hEKkP7ojSutUZ7Ue6J5yOiMEuDEjb7eYh/0QWfcaGlfmBhqFdR166A791ya+pmU0GWXQbjrro4twAMwdMu1EK0Jo79nYbh9v/2GfChCIC5kGT/bH0JZZYHgCSoJqR9RCUjAjw0KFuUMrOHoB9bCkD4yojG0ygeXA0SYVjTsxotfPgJB9VF7ezAgQgqq8Ad89Mqi08UDjASTIQSO5cGpJHqhjGnFR2NvxXZITBCiHP4hctQfCCFgTYbCcpiTlo+T51wCXsejtLYcn/+0GsfNXIiCzByYDEaEBAEen4uCjL1VW5GclAywKj78/lV4nS7cUWFDDW/A8iQDPAksTPoA7HYG9kQLVBnIsI7ArNFLMCJ7NKwmO/WH8AU9aPTUwBt0RAcQOi9JB0jo7MxI/Ba6OT0OZBmH8sU9EHp6qxN3OqMUwt3pHa50DgldPaKo3keOK01R+jDQl4XHA9NZZ4EjyZiIic9ggGftWjCmsPdxJNcZDyfgILRUYfdvpg/mMe6zLb8T4Er274rgQhVqOOjcgMu7JQpOH8nSkLkDKQnTT0X+1c8PpKpWZxhwgICDvbVb8PKKRwGO+BmwEEIS5BADjjHC4W4Ar9chFBTQ5NBjRHY6Fk1aBk7Hg+d4iJJIHRCJP8Du6o3YVv4D9VEgiZbIjQNihshIzsE5C65Hsj0VkiRCp+OwbtcW/LhzEy5ceho8XicammshKQJKardjVO5YNHtqsLX8BzCeEO7aZyV4AeVpOnwx1wKnQ0BDvR75uQlIT9Hh+OkXIDtxJExGch2SpRqEJk8tHN4GJFpSBg8Quq9TFzNEN1+F7s6NPb7D47nwMdIuDPB5H/xMBknvcKZzyGg7ADUdfJAwkLm351igd6Srq2E56SQwoXASouAVV0C+6y4aW709b/tAN9vhAhKqX7oJzu9fH9C0JQVYXadgYQ47YIdqxg0YV0bvh/C/MgULsxkkGgay2uFpkERSE57YN6A5aZUOLgdEWcDqnR9ixdZ3IEOEwaSHJIhQRBZ2YzZNzmTQG1HZuBsenxtJlkyEvGlYNHMREiw89RfgOSN0TDhra4OzEh+sfREco4c32ApJkaHICuy2BBw75RyMzZsGA2+inzc76+D1B7Byy1o0tTYjUS+D51lAB4wfOQWrt3+CkOqFEBBxQiOPolYGX080oCmVjMtj6YSfwWpJxprtW9Dc6sKJc4/B6NyRkCHA5W+GxZiAgOBBUcbk2AOE9mU74Mpk222Izp8PZIkH/ngNpLdOdQYpfDuPFjcauwwS/SjRt4yQp+3VI+TtcKJvSGjpgT+dx+0MDtpZqn/4YRheDHvCq2lpUNatA9PJF4F+EUX8hUMRMCiCHztuGd1r1sbuu7bMrcLEAc6gCvL76EQWRYn9rLRCwi0DTDBcT+WB4BIVIDadfso3NQrGJjEoHD0RtsnHwVI0F3xiJnSWZOqcyOjCPiQk62TZX89DoHxjR4/j/1oKndHW3xDa9weRA0SAf7LxZWyp+IGaBIzmcGIjRQRyE4uRZMlCojWNBkci6vodpWuw5CcHmrwSXs9JxdxJuRhfMBUptsyO2AMBwQ+np4Fmcax27MXKTR/Rq40E0ibZUrF46hlUm+Dz+xAKhhDwuJDx1TfY6GzFx3YeWSkJmDAiHw5/JWqby8HxLEJBkdLmafWiYEQ+8tOLUJQ9mQp+s9FKNQaf71yHlz94C6kGK/IyMzB2RD6mFo3H9FFHgWV08QMI3dePmhzafBUoSKBPSFsEx16cG/vaA3F7kUco3HqjMW70xQg0UHkyVA9ZhDwdMrrahOpB2Wc9DUoEvN8P9ZFH4Lv99i7xDNgff4TlkksAiwUKScSUR/LM91Pa+B4JPw8FwOD8/g1Uv3Rjf7On3zcGVFR6VMxM3+8HsLdVRd6C82Gv/QFCS3hrVv0AACAASURBVGWv/bTfZrAsyUZwYwtCyUGI4/of1hFUMecP38CYO7HfylUvXIfWH97qqDfusR3g7Gn9ttMqHBwO+AUPvt/9Kaqa98AX8iAntRDE9a60fivykoth4hOQaEmjtxVspnB0Lam0BMnPv0bl3coEI95PZXHqnCUozh2PhpZqjB4xgdr+PYFWmt5Zx3JYufUDbCv9EZIsgiUJxUx2zB5DriAmwOFoQdO6b3F+adj/Zhsv4u+JbuhNaTBbeJiMQfB8ODwBAQEktPKFJ1+NKaPm0r6I1kLPG8jFSdz48b9Q42qGSQEuK56M4rw5qKyvRqvXHTY5tAdKGgp2dzYxtGsS2h0c6a2ICEskL76Iuo5QoB2qICFu/OtF+EWyBsOJtiGjRZbB3Hsv2JdfRvDKKyH++tegEVZI8flgPekkqE8+CcybN3BWHmYgQXTUYBfxPVD7d4h2C8CmZqLq7+okmHbizcg8426osgT3ls+ogPaXrYfkIvfNOxWiRfiawcgvzoDrjb1w/GM7QrNVKAOQ34mzz0bu5f/oCH/d24J1Bwhj/7iVahu0Mvw4oKgKNlesQlnjTiSaSeIjHuQzEp/EbLDAYiCAgCRGCjsj8pwBoixCCQRhfek16OrrsdIawFu6FnCmfFh1fiRY7bjijFthsVjh8rfAbkqigrmmuQwrNr4DB83aKFOfPpKekWONqK9tgDkk4SZfOpJEFq9bnFhvEWA0GWA02xCSLCDhUKwWEVBCMHE2nL7gUkwYOQ0Mo4OqytRU4RMduO/r5ah0u8AHPcioL8HZSy7HuUuvpOaRoBAaWoDQeck734Ro1yh01jCQupFDhjidimMEGMichkTYDILeIaGv80aIkNbu9IVDhwxB6ccsEBMKXnsNujvvpF2pLAvv118DmfuFhbGqCuzYsYOab7QagmjbxYQvbZ2QmAdlfz0X/tKf+u3WKwKr6hSckN8VHCTNvwQ5F/+JOmN1L4HKLWhd9w68u1ZC9rRA8joAdxCpxnyEtrdCLPdA1QHCdBVKRr8kIP8X/0LCzDP6rFj13DVo/XF5Rx1Ng9A/Xw9WDaevEVsq11C5RAS5jtEDMrl1rKckCTIRqGHsqkAHr98Hk9EISdVDERU01O7Fcx8+ClEQIBPjAZeORKOMC0+8BqkZBQj465GRmE2BRZ2zAt9ufh/1rRVUGyGJ5DokCaKkwNHYSsdLsFmhkxQ0+3zU0ZE3cLBYTTAY9QCrg8drQigkY97EaRhfMBGj8opgNdlo2GdBCWBvw0b854M30BAMgQ96oYgCNZkcNWUprjnrTqQnZx88gNDTItPIjZ3NEO2miAh3RFwERoSCrC+S40Jf9wEHQe+Q0BcDkDDkgZHiCBJIUhexpASWE08EI5JELIC4dCmCTz1FfQvIaYXXh19EpAxmjaIV9tG2i/Dx7aiuSgLIDymSuwkVz1yGYM2OfrtzCSpW16k4qaAdBDBgjVYUXPsSrGMX9Nt+PwEq/OUb4Pr38/C/+i4Nb00Ly0JN0iE4SwD2h6Q4sF+Gxej7VsGQWdzrmN0zUk74aylYzQdh4Gs0hDVLGregxlkOE28BCx4OTyMSzMlItKTDF3RBkEIwchaIMgufpOKVD99EYVY+5k6eDTEUwAdf/RP7KrdDlmUqiMHw0BlycO4xp6IgfyIUxYc0eyKNj1DRuBtfb36HRmQkz7oQEmkkRXJzyeVww+sJICHRTjUYHpcPFqsRvIGneRpYklOBI0GYODiaXBhfvBibdtXgqMlTMGP8OPBGCfX+Pfhm1Zco2RU2sZFnm0RwDLsCqDSWwo0X3De8AEJPJgga8rndf2GQm2EwL9Vehx6EID5Apg9yfgNqPgh648K/3ogeBJ1dsMeAmBJlpQHQOBCekRdGiNxQUFXwzz0H42OPUYKIFsG3ejV06ek0g1uXEgewEikAiLT+QLmsKjLq3/k9HN+9AlUI0MAt9FjWjxlSVID/7pWxJJdFpoUBy3KwTz8FaSfcDGPmKDB89Bku5dZWQBAoLSScNaM3oHXju6j9791QxWCvU9OnFWL0/d+D0fXs3bj7ntkQmso62k96prFLdM6B8izW9Qj4DgRF+AUROpbcn+dgJFfvjuBS6yrByj3L4fa5aIwDAurPnHUdnN4mGp440ZwGl9eJlkAQEs23IMLhcuGT1V9AFV2orfsJqhpOikiEMH3GVR2SUifhopMuhdGgIiMhFQaex46qdVi57T0Eg0HoWGIWUKnTIdEOOFtccDt9SE1PAsfxKM6YBgE+es2RJHjSm/Q0UiJRkkmCDDZ9MjbWOWB2CZialY/axnrkF6nYsX4DvWbZDhAobXI4phEpPKcfXgCh+95rzwcRZuT+ZFI0kdRh6LNAF2ooHsABCLZe5fZQ0Nc+xiDoPJRAArFhtu9ntqSEhk9u3wfB5cvBz57dM9cPQ5AgeZpQ9sQ5A9IUtDPFFQLWNykYYWeQa2Wg53nkXfksbBOOoZqDeBbJ04zGjx5Hy9f/7nWYxDnnIu+Kf/T4/bbrsqgvBH0hp+Rj7EPr40nugPr2BgU4PcEDAt8RoGAz6ZFgMRwxCcE6M4w8ow5fPYijol5ngJG3wmKw09wKBCys27kKbl8rLIk58Ie8WLvpAwR8QThdjahtaoTKpkJWAlDFRqiKRJ9xIsaSE3ORkT0Di2bMR0ZqOpKMPNaXrMCmsm+Ras6F3ZKMfdXb4PG6woGMvAG0Ot3IzEpDQeYYLJx4GoKSDx+sfhlGq55qD1ieaClIbC8ddqjZaAoG6XgPLDkTPBvCC+/8Ew0NfqjgwSAIViUhwImWog0gUPnKDG+A0L44B/grdL4yOaAt33eluAnlGAk4DTh0Wz/C1+4AMQJeH8z1PsCHQlWpk1NHkSRYZs8GS7I2jhwJ5b33gKQIUwnGCjgMsYMjsfmX/fnMAYEDLiEDptwJaG5sQG3JNhTaSJha0PwGRXd/BX3KAG55xODd0d6Fd9d3qHn1V120AR04l9Nj9O/XQp+S22VEOeDGjptHdXxmHX8MRtz03xhSFXlXLl8IrT4CWHtvq+d0SLaZjniNQjuHBDGEp5c/jDVbV8BssCIpMYfGGfhpy+cQqV1fwcSgASeF0vC1xYh1fAAyq0IVHVAkHzLTCnHCosuwrWwPxo8cg6KMDHpdscFdDps+lTo61jZVYG/1FqoV8Ln9VIuQnZeBySPnYdboY6lfwe6qzSjKHwdJEbGr9kdUt+xBQdZopGcejTe3rkaWzYoLJkxDUAzgyecfRpBEIVUJhDAiSUlHPc+AUYJQFR8YNQAGB9FJMfKtG27RJb5Cm1ahIy9Ep+uTtHIEQqM7PQdTiAyEN3Gjr/Pgw5F/A2FOFHOIKz/7ENg0WqLf3+VEZrj9dui//RbyihVA2gBc5vviSS9rOKj5xgE4kFM0AQe+fQemRSZxAyxjFsI6biEsRbNhyBoLnSkcK2DP7+YhVB8OLkRiDBB1Pp+UHekuiUl9klmy/r2HwtqEbrcsUpZchezz/9BlHKG5ErvvntHxWerSa5F17u9jQks0nQRCIhpdJA1w/+7hZAskmo2wH6HahHb+Eo3B3996EKs2fkHzKoRlUfj8QvmogsZIuMCfhCWiHTJU3MNVoJZnwJtSweqMgBLE7AlzsWjuaVi1+QekJaaiODcVfrERiqRQQe4NuLCrciP8QS8a61vg9wZQWJSLqSPnY1zBLBiNSWBYHiY+fPGJJH0KiG7YbYk0noE76EFQ9MLvd6OpqQWvf/gMpZeoFeb4zfiZKxHVvA7v2V3Yq5ehMsQcxx8aGoS+Nntnp8YO9Ui7CWIQAo7ii2iesv7aDJKmLrKvv7Fi8f0g6I0L/6KZ0wDnEFd6+wAJxP+A+CG0F+6bb6CfMAEoKIhmtl3b9DH3Qc03xkGZql+5Bc5Vrx4wX1Ph/7N3HfBtVdf7e9LTliXvPeLYcRJnkkHYSRhhFVLKaplt4U9byobSljJKC5RRCmWUQlltgZY9UlYgYQUSssgejvfesvbW+//OfZJjOx6SJdly/G4b4ljv3Xvud6/ePe+M7xyBwiufAfnyBzbb3i9R8+i5vb9OPeFy5F385+gxi7IHR+VGVD/6AwhekfmSmqZwHkp/92m/np1121B53ym9v8u/7FGkHHtxlKOP7nY6zBo7rWHX0wmNolMrkWaInNFzdFIm1l0dPa14+KXfYeeBzSzegIIIKbYgpCRQAKGoIPhR5lHiR950dMKLR+WNLP1VJqM4ARkg00Cjz8GMkiNQUliGDlMXq764ZHoJ/HI7DjTuhMVmQoepFVUVNczFQPE/SUYdlh11KuYVHwtNUg54hRZEqEiOBeJBUBIXAijmwQO3VwaXx4yu7nps3b4RW/evYxkX9BK91K7DuRYDy854IbUH21RugFMiAMPEVxAIjsGsCqH4hRAhU+/WCvOwGG4rRvVgHbbj2PQcm15G+DJGgeOYyDeY+BHKHHc5+8hDqU/0ICHqZKVK9PHGdfxYuSH64jwKmWmejpqtqHrg9P5v3RyHlKMuQP7ljw9pCaz804peFkKK/C9/5AA4mTwhTpG6Jy+FZcdHBxWEgjkovX1tP9msu9ag9vEf9v6u+Ma3IsuyiOFMzeQrtw0dbDncUAq5HFkpOvbWOhkaHfzVTftwz7M3gpQEUu6phgLLAiAlIWiA8Qf8TGHw+yg7z88CAGm/E88BVXOkz0LnlELJ4/zzz4VROQtf79yJ2uZGpBuTcNyCEtR0bIGlx4qKPTXwuDzis4H6kXM4Zck5OOGI08EpKFMnFTKibubFz0g9oKBaCvr1+D2oavwWGzd+hvqWA33efjnwMhmW25LAQY6P9TL4kARdwI0ljgQPUhztZjskVTK4Yr2xDKPtuM99cXt4R3iIDTWVuMk34EAYLZRjIl+iKwlhrHVccYq1kjAK1wP54ff9qrw3nTG0ZIYjzkTRz0Vq6aHa7uuKEHA72MfGhWej8KrnRrsdY36fZcdq1D150BpA6ZWkAPRt9/7iHJzs+QpaXlzlaXd+AXVeecxlGalDeuOtbzePdNmwn8tlHDKTdVApDu9MB4oHWL3+Tbz04ZMw24iPgGMBiqQgiJkJRJQkpinTOURKASkOYjaeeC5TWWfKTCDFghQKkfGHw6LjZ2HhzGPxWasNNW2d0Dl9SA24YOoJIOBzIOD3wuc2QfA7WEChTCagNK8cF6+4Bkq1AjJeBZmK6jsIEOQ8/IIXvoCbjbv9wDqs+epVxsEgcETgrIDAEZuiAeB4cPBDKbdBzrnAcQLKHDyubD9MLAjD7dy+2Q8hM+6Q9SDCeGCP+YEchUz9zvKovv5h3hylrHE9DEeaQoSyx03WEeSI27ghfOKgNAwls+D3our+0+Bq2NlvdTRF81Hy6w97axYMtnTNr92OrjVP935U8puPoC0+6M8fabnj/bm3uxH7fntE7zApx16C/Mse6f33l6vfw13XXw61HDh/mgyLM2WY9vt1UOdMj7doh/Rvp2qDZlHRiqbRW21qkhpJGlU03STkvXRm7KvbjhdXPYLKxr1we4JuQQHQKJOgkCuh1xoxNW8G1nz7LqvUyNwOfoEpCdRENUDoJeliqgHLGqC4AQ76JC2OXbEAX3QlwR3gWMGnI9Ud2LmxEVBkwmOtZr3IeMpUUEMm10CuTEGyPp1xHijkPLQaDQu9I8uBX/AxVke7ywWrrRvkxRQ4UuB84AMdkMl8kHGk2BAls8AqRZIcRCImF4BTulWHh4shnB3VL02yT2nqvqmUg/YT4cExWB9xeajHQK7eMyEcAKO9Jgp5Q/glAjHScDDEZZ2HObjHZP3ioDCQ3LUH9qD1q/8iaePf+0Eq1xpRctunUKb3j78IcS70dHdhwydvIe+LuwC/+KamKV6A0t98HO0Ojen9XnMr9t06p7fP7B/ciYxTr+39d1tzAy4+dQEr6EPNqAQee+MrFE4buX5DLAWlw6ml2wqP72AMTDT903cgSatiWQ6HQ/P6PKhs3oVPN72FDTvWwWa3MMsA/fF6fchIzsExc0+GUqHBgbrdKM4tw/tf/RcWsi4IMtD9FKTIrAtcyLLPiW5xpiCIT7XQ/p4xrxh8bj4aHErIezrgq6+Cw+aCnFeC1+aAKkIJ3i6QN0cjk+MGWy44mRJIMmDbgmkIyOXoNDfD5GiH3W2Gy+kEJyNOBj+6M0vh1RqZKy+1aiPkcrIkiLKIshEhGykJ5KYLyjWWtRjGe8MMRsQ00B1xiIxRHGxxf4DHQDa2OcdiYaKQleQbGFc9JjKL39yw0Qn/yrC77H/hELKMx7jRjHlg705cf8npyFW6cOP8/jED+T9+AslHXTDI11Ac8fpLzkDl9vW472gesqAQBVc+g+TF54wS1Pjc5mzYjcp7lvV2nnfpo0g9rn8A4kdvv4JH7r4ZHrfo+3/kxfcwf0kETI8xEJ0Ug+Yuawx66t+FRsUjw6Bjb6QTsfkCPlQ0fIcvdqxCRdNO2GxWdHWY2UHLshX8ARYzdGT5UpZKSEWQmjsakJ2Wh6b2OqiUGvByBcxWEzZsWwuLw9xbnLDvw4zOH1IORC+4wGITjClJTHEgDgVy/9DXnn5PsQtyhREyZTK4gB3GgAP3dmcHmQwCuC2tFX464CkGQcZBo1HDYXeyGg1kPW9PL4FbYwAXEBUERTBmJJRxQfeQ64OYGEVLwgThQYjHBhuStbEP1fOI40ZweAzsK25fmyhk6itj3OTrN0hsR4ltbyOsfoQ4x0W2eGUojLTxo1RUnvjTb/H2S88gSwv8btFBn3UKZSFcJLJIDtVOmZPBgq5+dYQceXoOmsK5KL3t04gUuZGmF4vPB8YgFF39bxjmnXZI1+2tTXj56b/A1NWO3/zpb9DqxrbUczTBiSPhRHwJGUYtFHxiBI6OJG/oc7O9G59ufR1f7fqAVVMkZcBidsDpcMLjIdeBaBGg+IGlC89EBpXylvHsMCeLELMu+DzQqHXs3u/2rsf2io1I0iVjav509Fi6UdO0vzdAsW8gPcUnUKAyKQOhlxP2bzkHOcORA0+uAFUG5fViicONo50yrFVbsUvphFzBg6cDXi5j9RlcbpJDxd4C3eBh1qZC4bRAYe1iFgOyIoTOQmJ4pLGI1l1ObKGkJEwmC8JIG2Sw4Ma+JE2H3B/hITEmB3AUMo2ZEnM4KAkR4hwXBYFwTCAlIdw5/vmO6/HhWy8x//v9x4iWAFXOdJT89hPIlMPTIV92+mI01lWxHXTtXDlOvuNVGGafNNJXe8w/7173bzT9+6becYtveJPxOCRSo2dbc7cN3hi5FwabGx04aUYNdKoBVOGJBEQfWVq667B227uw2nuwp34TDHSgylTYX72XEZp5qNBSqJaCwOHExSuRrE9jh3ZHdyvsLjvqmyvR2dOO0487D0pejfbuZmZhmD51LpxuOxpaavDxN28wQiPKhKRCTAq5Cl6fG37BL1oK2Ns9cwCwg5oOfDq0qSl4shLIKdqRsTMKkEMWMAGCi1Es072sD17OFBlewUMu55hCQ7LTeOysC5B1QuybGv2OPVJkMjZGkt4oKQgD9+lAhaC3HHWIgnKkjR3hwTFYd+E+aEcSpd/nMZAr1F9c5DtEO+kzSihvaBRzGBNZe4GJbLTIro5gtcc60DFCJeXV5x/HMw//nk3oglIZjsvjMePB3ZDrUw+d5IDMiH8++QDoT6i9+tkuZGQdSowUrzoR4a5Cx+on0Prm3b2Xk/KjnTI/3NvH5Lp4uRcGE16vViDdqBuTeY12EIoVeOStW1CcNQs99i6YrO0oy6MSyTI0d9bg0/WrWG0EylgIZSAsX3QW0oyZzILgcDmYBYGiC6oa9mLe9CNZ2qFWrUNBzlSmy9ucNmzd+zVWf/0mvD4f+11uZhFS9BlwOB2oqNvBDnb6PUt0pv9z4ps+pUJS0KNCqQi6HOgK8YD3+I3wQQs11wGFgoIO2Y1MqSBFgNwNLHDRR3VfXGLNBcbZAKY8iK4gMQOD7iEFgywJkgVhmN00GL9CSNMa1rIw6Kk/+uNg9HeO8FUZxYE7ZgpNON/yKOWPG659ZY9AxrjJM9YKw1BrF5SDBeidIh6WqXo1Xlm9FQpjGPWTAXS0NuGHJ81l986YuwhP/Ocj9nY2UhtrhaH17XvQ8dFfE1pBsNhd6B4l98FIeA/2OfEkZKXoe33fo+kjnvcwJeC7t5GVUgidysjqKagVGpahQD/vq9uBrXvWo7WzkaUukuJw1OyTkJ6cDaVCzNyg3ANiLlSrtNCp9SwOQaPRsfgDu9OKpo467DywCTsqNoJ4ErLS8pGdWsBSC8n1UNtyIBiweDB4kcUGyOXMEkCKCbkOmHVAENjBzgiXKDfBJ0Dvz0CnXAWtygY5rNBqNfC43UjPSWXXkGLgdrlhs9jh9fjAKxTwerxicacggz25UWgsCliUFIQIdlzfTIi+7gjqIhx60kgC3gaKNV6HR7jwxE2+kQSI4AAeM0xHqSCID5g4tURQEvrI8PcHb8cb/3wK02cvwN/+uzqiGIJ9O7fg/df/jStvuhPGlLSwMRtLJaHxn9fD9M0rvYs544EdUCTnxGlxR9dtm8kGpydYwnp0XUR8F62BQatEsk6dcAWfrE4LPt/2P2Ql5zGTfyj9kCZJ5nmX2wGHy4kucxur2tjUXgteRqmFemjVYqojKQQ8/S3joaLqoSzlECz4T6lQoqppH9ZufA+d3W3QqvWYVkhZKxw8Xif21+6CwIlv/+zwpxLMZPZncQE8O8QpMFKlVIpES+R+YNXHRZfC0T0KnG7S4YBKgY0pCuxQeZhikZrih14vKhRUF4IkomBLCoJ0OykTiEOAXBssWFKAn5E7+VnlSElBiHiLD83c2FeBCKvbKA63UP/jdaCENb94HnjDCRAFrnHDczB5I5Az5nKFMXbMx+yDgcfjxs4t6zHriCVQa7T90Ilm3NEoAaO5Z6T9X/PYD2HbveaggvDgTiiM2SPdNmaf04HX1GVhh8F4NJVCzpQEjWrwMtjjIRMFH+6p+w4maxeLB1Aq1TBoUuAPeCEDzw56ik0gK4DH50ZbZyO27PsKapUORl0aNEo9SvJmQKcxghIIiVSJ3u7VKg2UPM2TQ2XjHnzw1avs4C8tmAWNSge3x4VuSwdaOxuYWZ/e3ulzUgiYK8PvZ24FpVIBuULe+7YvugR8TPkgReAkmxHLm0SFb1eeDp8V8bB6SAlUUaVyyGUBaFReaNTEpSC6L+xWF1z2IIMmxQKpFTCk6OGhUt92l6QgRLsRB+NXGOiaGHaMMB7UI8kYzQM13rLF9a14oisJfdaefJfkWy+cWoaTzzp/0JnFfJ0TwarANsihM4tmrqM58Edzz3Dbb/tdyyBr3Z2wCoKDCjP12Ed6tMT9c51aAaNWDaVi/DMdSAGgFMaGtip8u28N0oy5zArgD/ggJ1eBQoeGtmo4XXbYHBZs3vcleqxdzJefnzkDTW3VyE0rZFYBh9OO3VVbWXXFotxpCAR8rOhSp6kNX239GDnpRTDqU5hyUNdaCafLxiwHZPKnstpEkkzZCJRuSYEC9DZP6YrUelMQOQ5utxdanRqzihZjVs48FGyvQGtXPV7n61AwpRxmdys0Kj38HhmsTic6e1zw+shl4YdGI4DnfXDbiaUxAMgEpGUYGSsj/ZvOMcmCEIOvwED3Qt/ARuo+FB0a0VBRKA7RPFwPW4UhNLFExBWA02HHpactgKXHhN/c/xROPPO8sLZLXNY6wqDDsASN5KJYKAwDghvDHT4WioLFbMIFy8pxcrYHy/JkUMmB2X9rBidPnLflTosDNqcnXFjieh3tYb1GCYNOnTDxCfRMpwOd/siJfZDjsLN6E4sRcHrsqG3eh9qW/fB4/JiSXQ6TpQMNLZXBFEiyMhOZkphBoNcakJNRgLKiObDazGjraoFGqWFsi7XNFeixdrLMAbVaBZVaBb/XT/WWmNuAqJFJOVCqxMBEn4diHziW2UCuAoofyM8twPIFP0Bx9kxmbWjurMN761+EQi3DtLy5yEmZCqVcDW/AhfW7P4DL7YTAcbBYBdgcPPwB4j8g14UXaelqKFQy2HrsUKulGIS4bPyhikdFZFkYTLIoDrfe8zEeM46BXAPlGzPWxChkj/XhbDZ14YJls1BQXIpn31knQhKhfLGWqXe7DCFH3Mbru08HjB3zMSnVK0Kch/savfLMI/jHI2LZ5kwNcM1cOY55qhZyjT4e375R9UnuBa9PTGtLpEYuBwpcZUFzCSAYPbMtThP+t/4VtHU2oamjFiZrBzxeLzxuD4pzKWBWwO7Kb5m5P1SwiUQPxQaQm4H4D6YVzmKpkjaHlSkKdS2V6LF1smBHch9oNBoo1Uq4nC72b1IwPB4XdHqtmMkgk7PYAWpajZYFUzocTqw46hwUZE2FVpPE0ijbTA1Yv+cjtPTUYWb+IiycthSpBuIPCWD11tdQ0bid9UFKDKVtdvmVaFNmQ2F2I0ftgtvuR0CQAYKUxTBmWzBEzznQJRGRADF4iMXtSxcD2dh5OAhrYuj3EWEVycVRyB5rPK9YeQzsNiv+u6ZPfYII5Yu1TCMpKnEZb+D6xVFJCFXHi2TLDHdtT1cnzj1heq/lkF72LvzptbjqFlFpGO/m8wfQ2GkZbzGGHJ/2E2U8GPVqaOnNOcL9H6uJEfFRU2c9nv/kj2hsahCLLgGg8uxulwfTiuYjIzkfX219lykLrGgTMSNSLkMwcJClGQIozitFYdY0RrREPAgVdTuZ64IycCjugMz6Wq2WKQZUzpn+TdYBVplRJmcmf7IwcJwceWlTUVpQDqM+FUZtGqN3FjMaZLC7beiytKHT0oQdNV9jRv5iLCo7gWVZkHybKz/Dup3vs9oNIuFTAPUyI9rlBgZbsrMbxRwxa3I4oux4ycUQq80UTj99UyMHy4gIp4+hv1Wjf0yP/s4RJB6DL3bcZGdayeh7j+TO7779EvlFpcjIzsVNPz4bdVX78eZX+0fezFfqKQAAIABJREFUDhHKF4lMIw+eOCRN0cwr1spBCLf3/vsCHv3jLewBTC0lPRNvhbOmYQEf3UUmqxNmhzu6Tsbobsbsx8uYoqBTU5bAyCmt0YhGaYAOjxdUwKqyZRvW7vgnWlqb2QFNL3l0eNOeKStagILMGfh4/T/hclHhJrGkM/EU0NdSpCuWiYWPZDIYkvXQyIywWC1o62xmMQmkONA1lLao1qjZ3/Rvt9vD0hjJvRCq/EiKhlKlxMkLz0Vp3hy4vQ64vS6U5s2CSqHCjorNUPAK5GTmMSXFE3Cxcs9kdcgw5jIli2TssrZiV90GRgLl9btZtoLZL8c+pLIaDca6XchN1yMjNQdHTFsqKQjRbKZo7h1oSegbpxAxx0JIkAgPjL7yR/OQjYfSEgm2cZF9DDG9cPksKJQqPP3mF3jwtquxY/M3ePsbkS1wxBbhmsccq/GKV+gz7mjnFC/lILRmu7Z+i1f+8Qg2rluD5NR0vPHF3hGXcywuaOq0wBusMDgW48VqDFovXs6BKJxDf4jGmQ4/2g4jxY+E6h2w2gNEGhQQGIskuVqINMpLLINBRWBv05fYXPUerHYzrD1EgESlmcW6CcU5czAlZx4+2fBvOJy2IP0yMSCKriqKJxAJjmRMQaSDncphO51u2G2OYLEnkUdBr03ClLxSePxumB0dTC7GeOjzMXcC65OUA6UCGanZuOSUG6FW6Eh6Rs6UrE9h7I1VLbtAmUGUrqjXJGNKdimLWaC0S7EYE/EzyODxuuHxO9BlbsXnu96Gw2VltNAWqxd+N6DmFZBzCiyaezS0Kr2kIMRq8462n74BjmTSYopDn3oQYfErDDV4hIfHYN2M9uE7LB4xkGu4/uMic5QKw3Ay/fmO67D63f/i9j8/hy8+ehvbNn0dngUhBuseN6zGQ3GgMUOsm8OsF8053spB36URSXWCB8doHxQxuo/eLhs7reHxtsRozHh3Q4cyoxemN3emLIh/qPU+U4PVE+nwpd/R34M1Smk80LoOGw68BZ83AIWgRUdXOzxeFzuo89KmYUHZKfhw/XMwWToZbbFYwMnfiym5BHjKymAHs0hypFZoYbGZWT0HKgMtk/GYUTQPM6bOQ6oxjdEur970GjvAgQB72/cTa6KCapVQKWY5lsw6CcfPOwNJ6mTmllDwVGvBiermfZCrBfSYu1FZt4e5JErzyqHXGJgFQatLhlyRhBSdgZWQlnFkJbGiw9IKJ7kkrC3QqZJh7XEhyaCFqcuMJL0BaqVaUhDivXkj6T9uwY0DhYjigB6TAyWMh3wkuMZN5lEqDZSx0NpYh+KychZzsW3jOtx65Q/wfzfdxd42aw/sxeuxfNuMcL3jgtd4BjkO2CyMf57e8iZh67G50BPKe5+E8x9qyvTstbk6UN35LVRyOeraD0DwyllKI72V13fsR4o2F8fNPR+rN76AbksbZALPAg6poJNowhcVD1IOKEWRHmNpxixML5iPvIwpqGuuRFt3E7smOzUP6Sk5jCOB4gGszm6s+e4tpjzwSjn8HgELph2PtJQsVDfvQVNHNU5dcgHKCubCqMuAXwigy2GFxdKJ7o4maHRKfL1lLfZV7USyPgN6vQ7GZAMLcMxIzkNe7gKolRr2vOHggJLnESAGUs5JyZ0IeAPo7jaz0tROuwN6PgUylV9SEBL5OzIUc2NUVoVRHmp9cYrLAUIDDPYGGPp9lAs1lMwOuw3NDTWYWjYrukMjgkP4Hw//Hm/9+2k89fpaTJk2E9X7duIXF5yEC358DT776G0mx78/2hLljA85FSPqLy5rPAhGcRlnmJmKrHbkGx7rkSOCPy4X03OjscMC/0AFPC6jTZxOXV4b6rq3YFv9/zA960gUpU2Hx+1DbXsFth74HG6PExq1ESuPvgGrNz8Pk7UVZXnzYdCkMStCY0clMpML0GFuRmN7FYstoEO/KKsMc4uPZrUakrRGNLTVwO60scecXM4ztkWyDFhcXdi0fw0sdhNjStQmqTE791jMnLqQuSGoYJPZ1gm93gCNJgOCTMtcEna3Ge0tDbB1tqG5ox4btn+GgOCDy00WCiq4pEBRwRSUlc7AlIL5yEovhUKuZoqLnKfvAKCUu+B3O+FxeQCBQ2d7N+QyBVweB2pM30kKQqJv44HxCEMRM0U1jxg9LMf0kRsjmW+94hzm83/s5Y8wffYRUcE46M2DyLlp3VrcfvUPkZ1XgBc/2IzujjZcdPJczF9yPLZ9+xVmzl2Ev770QexlGazHCHGM+RqPsSvCZHMhzSCmjU225vEF0NyVuNkL47EeJkcz1u5/Ek6PldVQOL70XCRr0mFx9DBf/I6a9ahr34/zT7gDa797ASZ7K8rzl0AhU0Kl0CA3rQgenwttpmbmy99TtwV1LfuQn1mCJTNPhkquQ0ZKJtq6m2F32VgxJIoFCPEYdFibsLliDYhqgdgLyfpAwY7HzlyJvNw5kPFqKGGBQknECBy8ggGBAMUSuLB913p88MlzcDmdIu0yxWjwPDwen1iqmcVsyJiVYl75QkyZOhMFOQsY8RJpB13dtZALRJ7UDqvLhKn5pTA1u2B19KCmtQKtplpJQRiPTRnNmCGFYWAtiFCQY9/a4hGNE6MH5pg+dqOUmTC7+OR5MHW1482vKqA3GCOCLOyLB8hJPulLT1sIm6UHb6yrQOXenbjhktOZ1k8y/fWlDzFz7sKwu4/6wghxjPkaj5H7weXxo8vqQF66kQWNTbbWarLBNca1FxId40bTTnx54DkEhAAy9AU4vuwcKHkVK7pEB3VzTy1kQir2N62H1dGOKRnl0CoNSNKmIJmlGaawbAI6sBs6qlmNBqqrUD5lEWQQeQssDhOsDjMjRqLUQrLze70u7G3YgpaeGsh4ATI5x2iPdUkalsWg41Nw0tE/gU6XBoWcg0LugAAt/ALPlIwN336Ij7/4DwLwwRdcU3p+8MGKj8zwysAXmGJByk9mZiaKS6Yh2ZABOdTo6qnrjdnhVD60NDWjo80kxlMwO4jEpJjo+3dI+fq6GejnvgoDBeEcEqwVzUwjPED6DjUuj+Ew5SXM6M29p6sDqzY1QKE8WLM+JPejf7iFYXnDXQ9Hg2D/ezkOLz7+J/zn2Ufxzw824e2XnsE7Lz/Drll2+g/w2wf+PuRYY4JnmPiFhIybTDF0SdB3oqWb/MkCslP0UCsp+GvyNI/Xj+Zuym+XWl8Euu31+Hj3oywlcH7BchSkTodaqWOB4vQGrpAbsL9lJ9q69qMkay4z0VNaIQUI0qFLQYBUl0GjILO/h1VoJB4EYmA0mXqYG0B0/AvYdWALqhv3svRCl9cOmZJDklEb5Ezg4HGL8QcOm4vRKhfnz8PskhXQKJPEwEviYHB50dJSi1fefhAWaw/kShlzh9CnpPSSgkDKTaiJlgWikPYzXYGYHTOy0pCekcaKR/kFHxvfZDKhpaG917IWskhIVMuHwfdlKH6FfhkSwXzsqKcb4eEx1HhxO1QGDjisvAJ+8r2j0NJQi2ff/Rr5U0oPEffn5y2D027Dvz7cPOhUbFYztFo9i3COpFFg4q//71ycdeFP8Omq1xjV8nEnfw+/vv8pKJUi53o4bcxwJGEiXPuYyxaGO2IoBk6L0wOzXcz9p5z6DOPkcjN0mO2wu6hyn9T6IlDRtg6b614HL1Pg2NIfQK3QMz++VpmENH0eOI5HbccuyKEIHrwCFHJFbxwHY04UAsxtQNkDVI2RmtvlRENTI5RqHgolzwoxvbf2P4BMrNao0iiRnGZAclpSb6YCvbAwdsuAAKWKFFgOyfoi5CYvgFqWgoBPYNaDvZUbsfqzF0GPdBkvY5kUdK1YElos3MRSLAUibQqmdPop04KUHoh8C7wcKkWQvtnnY6maLDZBRnkOjGaRzUNSEA6j70vfhWUGoj7pkiGrwngHOPaFO+YHyGBrOcKh9uxf7sYb//wbrr39QZx5/uWH9HDT5d9D1b5deHt9FXtb6NuosMuPz1yCuYuOwa/ueTyindRYV4Urzj6G3UPKxcVX3YyLfnYje8hE2sYEx5BQCa4kDExeI2wot73VZBcffMGWbtBAHyx+EyneE+16l9eH1m7bRBN7TOTd3/Yltta/xd6c5xecBA2fxMzreSkzoFelwOM399ZkoLdtvyDGEFCxBKVcxd7A6TlADIf01SBCJWJZbO9og81Bey4Ak7kDX+9YjU5TO6uWqDdokF+cDZ1Bw7IdWDxM8EtMGQ504NNbPfEmdLaYYGpzoThvEXKySqBQqLBl+0c4UP0dG4s4F8hqQTKRYkAESxSASD+TakC/p2c+KRZkRWDEU0pFkKdBzOah8UNET+wZx7KFJQVhTDbgeA0SUhYOsS4MUByili/CA2Ok8eJ62A0iq91mwYVLy1FYUoYn/vPJIZaAe2+5El99sorFBcyYs6Cf+M0NtfjJ95bg4p/djMuuvnWkqfX7vKe7Axcup1rwwIPPvYV5i44VP48Cz7hiNwrla+AtcZUvhFvfCP3g7ygwceDbM32UbtAydr7DuREcrSYr3FQASGqHIGB2tuKziqfg8loY8dDCwlNh0GQhxzANJkcjsyaQxUDMGuhBTecuVv45L6UMKl4Hs7MDZls3snRTwfl4xqposnShqb0ebd0NrPpjdw8RIAWYiT+kpBKJkcGohSFNz6oxkpWBntVupwdOuwsdrT1w2t0iWRI75MGyHojwyO0Rqy8ytzKbUZBvQSZn/Ah0xvMKZZDRkU57sJoLrEIj41Qga4fohiCFgtwTvaUAAhQPcdBFIVkQJsmXpq/C0DdeoVeBYPtslLXhozjUBj134rkmg8hKVoI92zaxOIPTfnBJv9HXvv8GHrztl8z8f8fDz/X7jNjOzl4yBeXzFuGh598ZVmrG4y4IkPOi79tq6cF5x09nP3+8vQ2Wnm68+MT9uOqWu6HWaEeFQFwP4KEkimDtx0M+r19A2zBljQ1aJVKStAlRGGhUiz7CTSabs9e1Eo/+D4c+u+0N2NzwOnocLSjPPg7z809DQ88OOD1mdgBTsKLV3Y26rl1wem3iYc0pYLe4UF1Vi85WEwy6VGSlFcBs6UJzZwMLQqRDmN7IxYwFOoQFkWWRYsbogKc/VNiZEeTRvwX2Jk/KQsAXgEJFyivFEIhWAMEvkuj56R7yRATomSIqCKFiTuweToBSqWSKAH09QxYEn9dP+oV4LeNpEERrQvClUVQSRLI+upfxPAkxsTkfDttk8syhn1UhWI6a/S7E5DhaRSEEYQSHRiSox+uAqa3ah1+ct5xp3b+693GcsGJlr1h0sP/s3BPQVF+Da257AGecd2k/kf9068+wbs3/8MKqDcjKLRhyOtdedCqa6qpx3R0PYdlp34dYubEcKWkZ+O/aXYxJ8eE7r8cZ512G6+94aPB+osA1XtgdImiEMsZbLpOdrAfkox26kU+YrAkUm3A4NYfbi46e/q6Vw2l+sZwLkSG5vFbGAeD2dqPb0YBuWwPcXidL9+u0tMJus8NqtsPSbWVv+UTTTAc6PTc9Xg8LgKUTmZgLeDkvmvuDPn12wDPHBIUYcCKbo98Hv4+pIOLhH/wf7Uc6yRU8H6zXwB38nGiYg/Fk5FogRYHuY8qIXM7KRTPXAtV4UKtY4CIpEuRiINcHKQh9rQeML0GhYNTONBeShmilSWEhdyf38ssvj/K1MZbLI/U1LgiETF5BLZRtUBa8IG5mUbXs/U9kIkZ4UETWeeyv/nr126jY8hlzMZSVz8eCZWdBlZTKBqqt2I3P3nyGfemXf+9C5M88stdn2FhdgU/++wRS0rOw8srbWADSYG3DZx9iz/qPWKbEyh/fCJlCg9eevAupWfn4/hW3oq2+Eu+/9BimzTsax5/5oyEmGOx7FKfqKG6JAuTIRovs6vDFysnLQ8ms+WEbxihnPEmjhF5D3PkTm2nR7fUxy8lQlMLhozi5ruRlfrSZK3GgdRNaumrQaWpDUUY5TOZu7KveDq/PB7vdBr06iQUkdnV1MrcCMRDSo1LkHuBZ/QWRbpljTIssJoA9SzlmBSDXASvdTM/g4Js7+1TGemFm/tA9zALBXt5E6mgWS8BiD4JWiIAfcrkCSpWCVXwkcxjVZTAaDMx6QTESrHKjjyiXKBDSzfoKxR9QZkPv4z74ckjWBlZ7YvmyEyUFYXJ9B6TZDoWA2wLB2gT4iH4UgEIHqJIAXgv4XYC1Wfy9OhlQGQGfG/BYAK8j+PsUcMlTejOQBw4j0P32VtYvZyiA0LUP0GWBS8qD0FMLuLqB5KngqH+pRY3AVb+8DkcdvzTifuitS6WQQ61UQKtWgJ9gygJVIuyyOMU3WqmFjYAguFDTsRFdtiYIAQFqXguvx4dAgIPf60WaMRtyTs7iC5weB6uDsHnnOjS0VLPCT8y/z8lZloBSrWSHPL21k8mf3tLJDUEcCU6XE163Bx4KRuRk7MCnw5gpBJyoIPBUhIrM/BQTwKwQfQIYKBiSAg/dXrGwk9/PlAM2LisMJYPd7kByiljCmT436FIwp2QJGSuwcfdnsLl6EKCwFBZYeTBrgvHpkHWDKSKSghD25pEunCwICBAcnYCjA/C5wpu0QkPhPoDXBuhzwemzhlYSOvcBPgegSQOcXUB6OTi5EkLHLjYWlzEnqkDF8AQ+/K/SJyXhvr88Bn2S+JAcbSPrhkrJM94EqiCooEhxuVi1L9EaZWuY7S5YnZ5EEy3h5fH4naho/wR+nwderwd5KaVI0WVCKdfA6bYzv7ySV7N4ALfHxQokmawdqKypwNffrWapjlRYSaNTBw9pCjoMwO12s7gDhUKJ6YVHoKZlFxx2J5wOl3gAEzui29OrIJAiQGyIlIZIBz3FKVBWQk5GMdo665mPQqvUI8WQjtaOJmjVBjS11bGYAZVaVBBIDlIQNBo1y5IgF0N6cjYuOPkqpBuz0Nheh9fXPgO728R4FXw+imkQyZrIgkpjUmMxE5IFIeH3riTgOCEgeOyAyyRaFAQyBwbfyFhakgzgNeDUqYBSx2qpC517AL9HtAroswHu0JRFwdIgKh/UZApw6TMhmKoAr73XmjBO0z2shj39rJU4/+LL4jInehgriMJWybO/SWnoLfUbTFkbK/WBBaD5ArC5PEwxkELKRrfkFmc7tjS8ihRNJov4n5m7mJgFWOVEiisQqzXSI0CstNjZ0wazvRMNzXVY9fkr8MMDrV4Dj8fPzPykFHgZtwD58mUwJqViTunx2Lj7Q+Z6sJjt7M3d5/EyDgJSMMhqQK4AtVrN4hd4XgF/wMd+f/TcM7Fp98fMEjCraDF4hQIVdTtRUbub3cP2pErBghOVSpFumRQdnU7LrA9UHOrn59zOLBlUMbLT1IpXv/gbXB47KzJltzqY0iLyKIhxCUTWJCkIo9tP0l0SAoMiIHTsBiusTilJxinglHpRmaBGSkR3xUGXhKEQIIWBUZypwaXNlKwHMdpXv7//IRROmRqj3sLvhvQDqpSn4GXMNUF/k/JAPzOfL3UVqfYQ1EvpL/Jbe/0BeP1+lrro9oi+b6lFhwApVtsa30OrZS8s9k6cNPMiqHkdDJp0tl50kFMIH4s1CJDLQMXSH1u6GvDld+9j/c418Hp9UKlUYmaAwMHlcjLSM4pLOHrOqUjSJuOTb18VAw85+tzDyj+TG4OyHYyGZFjtFkaiRFYAMQOBYgU4LF/yY6zf9hqWHvE96JRGlkL5+Xfvw+Gwg+IFqE860FVK5cGUSaJs1mmYgpBqyMB159/DrBJUM8LmNGN79bfYXvkV7C4rsyKYe2yMXTEvL4cKTrPARUlBiG5fSXdLCAxAQIBgbRFjDdhhQMpB6ERgEUmHIqZOBWcskpSDGO0ltUaDvz7zPDPrJmKLWEno435OxPkMlElMDRTT5Xp9573xtaJ7hhlaEs5NI8DhtaDTWoNAwIW81EJGhuTzemF3WtDYWYtUfSZSktKhUWoZb0JNUyXW71qDdds/DJr3FWJGAaeCWqVm1R5nTz0SPzrlarh9Trz31YvYXrmBxQz4vAGWFUEH/IIZx2DF0SvR1t2C+tZKeAM+6DU6ZCbnYkfNJswpXYGunr04ataJrMaD3WXG++tew766HaxENCkbGq0KSgVlT/BMqSBlkgIQlSyWRofLTr0J2Wn5zKrhclOBqUbUtO7D9qp1cPnsbK4Lp52M3MwCZrnosDRKCsJE+MJJMk5ABPxeFsDI4hnIfTCgqeTAwkwOU9N0eKOrBG4hcgbFCYjKGIjM4cZf/xZzjhjDYldjMKtEGoIOfoqgpzQ/smRQ7AMFtYkm+FAGlKjVDMZsGSIDY+wAlBYYrDqoUvCgP4mhOASzCTh62w9gw74PsH7Xe7hg6TWsgiMpB/QmTiWcv9m1Gp3mZkzJmY66tgMozCqBQZuOLnMrSnLLUZo/C3ptMjvU1+38AJ98+xZjVKQXB2JN5DkVTj3yfJQWlDP3xvbKTSjNn87iDMiywCxHggL1rTtRVjAbbpcLFY07UddahezUAjjdDny68R32GkKKB7kkKI5BpG72wWjUQ6PW4fvHXslkFAQv/D5aMz8rIkX4VzRtQ4elBXNLjoGMEjUZVwIvKQiJ9MWTZDl8EShUWvHjnFokK+nhSnXYD87VGZBhp82Ir3tSUevSHb4gjMHMkgwGPPT436FUhV/PYgzEmrBDkCJAfzzBtDz62Re0DsRjUqESxRQQqlYqmWsmEQwN2xpXYUvFBzjriKuRmz4Nbp8PnVYLBL8T3d210Gr0zHzv9nuhUadDT7EAFNQqU0KrNaLb3I5mUxW2Vn6OPVXfseBECgb0egPg/HIcN+9ULJ55ArN6dZnbkZKUxhgbiXQpIyUXBVklcLh6mALW1NaAbdXfIEmTgvyMYmQkZ+G9L1/BntrvwPMy5uJQKhRsDFI4jMYkZKblYPm885CTVgK/z8HqSpDyQZkTlElBBaecHjt4XgmlnFgYRapmycUQj10u9TnpEdDI/ChSO5Ci8MLul+OCzCYk8cMT9hBoXV4lKhx6NLg06PSqYPHxsAfkcPs5uN1OQKEdNPhx0gMeBOD751+Is8+9QIJjFAiQBcBHpDpkGQhaB0ghGK9sSXojprdhtYKySBTjyE0h4JvaF7C3ZjNOm3MV1JocuFlqolgpkYNY+ZEVRhJE5sMkBQc1L2cVHtUqI3bWfY29jd+wFEoKXvR6/YxKmbII/F4/UpIycOqR56Eot6y3hkKrqYFZJNKT81CUNY1RLFNQYW1TFXbUfINpeXOxpHw5NEodzLYuvL/+v+hxtMPtczDciJGROBpKc+egpKCcBTiW5R6JFtMBpCdlQUVlrVmRKdFiwDgaGBdOgCkLTq9dUhBG8T2SbpEQGBaBY41dWJnRApVskHiDQe6s7BFQkiw+YIZq/9zrx5YOARxxM6SJFM1S648AWQ0eevwpJBmMEjRhIsCKA/mJRdALKuqUyMRKGvKlEwERqx8wdo0OzNWVD6GiYi/OXPQTpBuK4PbJ4BPoQCW2Q0Gs6MzcJQC5D3UKij2Sg0pgqBXJzE3g9tpR274N+1vXocfRBIfDiZ4uKyvzTLwJGpUWZx9zOZLI4mBtx5YDX0CnScHc4lNg0BIHg5qRHH2780PsqP4YJfmzML/kWJTkzmBjN3fUAfIAvtyxCk6fnaU9OlwWHFF0MrIyciEIHPLSZ8Bqb4FCrkSGIbtXMaCYBWYtEnywOrvR4zQxGmjJgjB2+0waaRIg8P2MZixP6YRfAOxewOoV0Gyn4Cdgad7g7HxP7/Ljilly8MM89YiRdX1LACYuGWusRMYktYEIZGZl4/6/PikBMwICoWwIh9vDlIKJlhqp4Cn9UAX6eyziFUhBWFv9V9Q3VyAzpQDz8pZBp0hlPnyB08ATIEIjB5LUWiRpjFDKtfD5FER4POhK0H3N1l3Y3fohLM5OOO1OWM0OuN0+FtiYlpQNr0/AlMyjUJixCEqeeFYOPhxInurWb9DY8zXKMo5EcdYMFjjpcFnhF/xwuCkbQQWTvYMVmEpW50KpNjI5VQoN5JwLbncXtCq9mK3NicG83oAbXr8LPsELmzsAh7dHUhCkp4mEQKwQyFc5cEtRJfZ2B7CjEzizmGOmxli2F5oLsc0mMS0OhunRxx6P/7v2hljCfdj1RdYCKuAU4vOf6BPUqZTQaVRxJ65qs+7DV9XPwhfwMf4CeUANtUwPQeZHXvp0lGUug0GdHTzGw/vOd1ttaLLuQIvtW7h8ZsDPQ+nNRkn2UiRpMkfMh2217QDHtULm06AoYzojUJLJKYOBCL042NxOKOQaePx+eLxeWNxmULkRozoNm2tWodPWBIM6A8UZM8FT3IGMSqN70Gjei3ZrPYrTlkgKwkT/gkjyJwYCck7A74p2Y1ubD0uyZdAH6/74BQ4fdGbh1LR2KMN0OQw1I4pP+GPNDCnvfQiAvv+jS3HamWex4DCp9UeAFIIeu5PFFhxujQU2ymTM/UCsl/FiuWw078C+trWsgJNBkY2i1IXITi495A0/HHztTjesLje7lOojkFWA4gEoeDDcRvd0ufaCV3TBKM+GUpEKOa9hBZq0ShV0aj1sLqLcDqDH2gWT8wC6bS1YWHwBLM4umB2N8AteHOhax0pJk6tEKdMhP2Uu8pPnQsMnSwpCuIshXSchMBwCPBfAFFk7ylMCcAfk6PEpWJBhm0cFu5/H7VP2IV05egrcdo8K/2opQIN7dKWgD/fVo0Pi5zf+GkVlM5CWpGNscFITESA3gsU+OWoziCmTcpYuSUyXsS26RRlIREwVgJxTsAN9NI0KafXYHDFR9EUlYSe67DtQlDwPKj4DAY4COgkDBZS8Ai6fExZnPfa2fYZ8w1GYk3ty0DUjclV4/U7mViDlRClXs4qWIZeGFIMwmhWW7pEQiBCBuXozrsiti+iuKqcW263JqHLq0OxWU8hQRPdPpospEvuG3/0e6bkF7A0yWa+VLAkAnB4vLA7XhIuljkvpAAAgAElEQVQziNXeJRpspUJUGOjnsYhZGE52suB0W2NfgrvVvhU1bV8iL3UKVGojKybl8HYhWZsKPTEv2qshD6SjOPl0qHgFDFoNqHrpSE1SEEZCSPpcQiBGCNw9dS+See+IvXV6lXijPQ977UkjXitdICJAD/7Lf3EdyubMD/4bSNKooVEpJ6VaRW+GdrcHdpdY2ldqYKZ3UhREKmwx/3+sOBZYFoPHC3OclDVyD1hcdagzfw6bl6rOUgYVVYIk0iQV0tWzUZC0jDE8it8XQKdSMbfMUCXq2XVSsSbpqyMhMDYI/DCrEUcbu4cdrMmtxkN104KJU2Mj1+Eyylnn/whHn7ii33ToMDBoVczsPBkaKQbEbEhWA2I5lNrQCJCSoGZmeLFAUTxiF0g58wf8sDrdINdCvBu5HHpcVSw2weu3Q8UnIUM7H0nKvEGDHskFQ98PRqw0iHCSghDvFZP6lxAIIqCT+3HP1N0sV3qodl9tGdo8agmzUSAwbUY5fnL9rwa9kw4Bg1Ysf3u4NTqEvH4fnG4vO4SI9ngsG6NXJvplnw9ulwOmzg60tbZBp9ehaMpUKKg6IdH29hLyjKV04Y9FFgbiWiClsldhCBIghdMLQ53RSwus+qPL54fT5Rnz9QhH1oHX0PeD3HIDlSRJQRgNmtI9EgKjROAXeTWYobMOerfZp8Cd1TNH2bN0m95gwG0PPDpsehi9MdEhoFEpgkWDEjeuQzx4xQOHDh8qM0xpiv4AHUDiz/R79meMlQLabQG/H021Vfj84w9QX1MFt9sNIRCsyxAQ2QUpNoTs2SqlClm5eSgsKcGS45fDkJwKWYIra6F4hdAOYWyJfYpMUVVHphP01p8I1p7o8++J9K0MuR30moM05ZKCMJFWUJJ1wiOwIMmEy3OoxPOhjR43ZEFolywIo1pneoD/6IqfYfbCJSPeTw99VnVPxrE3xpCZObZR74OssSCwN0piLPSzv6nWgfjG2b/gUUg5GJ/DfygAyYS9f+d2rP9sDVqbG2C1WEbEerALDMZkpjAcfcJyFjeS6MrCqCYZp5ucNisaamsQ8BPzpR9yXoEkQzKy8/MZD0K0jYIXydpG3wtJQYgWTel+CYEIEOA5Ab+fuhdJ8sH9kRvMKfhPW0EEPUqX9kVAq9Phlj88ALU28qJXjC5XxkHO+OlDZYkP/j2crUHksA++7QerGoZM/eLBLyoFofLHY+sEiHKPCAI621qw4Yu12LdzO0zdXTGzWJBSp0tKQknZTMxZsAjTyudAIRXa6rdgpAQ01lRj09dfoq6yAhaLGR63yKEQalR0iQo9paSlIa+oGGXlc1A6cxbU2tGlRdNep/oXkoIQ5XdHul1CIFIEQnTMg93nCshwb80MWPzRvwlEKtfhcn35nHm48MqroVCKFLJSGx0CXrcbu7dtxpb161BbeYBZOeLd0jIyMHfhkZizaAmy8ya5oiwIqN6/F2s/XIXqin0RQ081SeYuXIy5i5Ygv7hkVCmekoIQMezSDRIC0SFQorHjuoKqITupdOjweGNJdINM8ruPPG4pzjz/R1AopbLPkWwFcnmYOtuxZ/tWfLn6Q9httkhuj9m15P4pmlqCE89YifwpU6HSUD2CydOs5h68//or2Ll1c9TWGrLSFBZPxSlnn4vCklLwfJDmNQw4JQUhDJCkSyQEYokAsS4+VErZDIMbmum3f6krQb07cjN5LOWc6H3NW7QYKy/6MdSa0ZlZJ/r8I5Hf5/OirakRq999Awf27onk1rhfq1Krcfr3z0P5EYugSzKM6k047kLGcICKndvw2ov/gMPhiGGvYlcFU4px7qU/RWZOnkiGMEKTFISREJI+lxCIAwJX5tZijn7oAC+vIMPvqsrhDozMdhYH8Q6bLo3JKbji+luQnp172MwplhPxeT34Zu0nWPvBKni9nqjfVmMp28C+yM9eNnMWVl50GQwpafEcalz6pgyQ/732MjZ8+Vlc14EooqfNmIGLf3YtFKrhU6olBWFctoI06GRH4EhDNy7ObhwWhp02A55tlko7R7tXKHiLAuDOOO+H0OoldkpKT9y/azu+XvsJmupr4Xa5ooV4TO/nFQrk5hfi1JXnorhsRlhvwmMq4CgGs5i68e+/P4am+sjo2EcxVO8tOr0ep648DwuPPWFIq4ykIESDsHTvhEYgT+XET3PrcF/tdFDVxbFshQoHbi6uHHHI55qLsMNmHPE66YKREdBotSifewSWn/49pGZmj3zDYXWFgLoDFdi47nPUVVWiu6tzws+OfOtZObmgeJOFxy6dsEGpLQ11eOnvj7PskPFoRDB21oUXD2plkxSE8ViRCTymSBbCieQg40DOEivoWLph8V4k8T5GTkQkRWPZrm6tw+xUM/w5QCB1aG4fcjEQ9XKHVwq2i9X6kKl65tz5mLf4KBRPm37YWhXcLidLj6vYsxMVu3egvbV1Qn9nh1t/Y0oKFhx5DBYddwJS0jNjtVXi3s+OTRvw7n9fgtNhj/tYww2g0epw0hln46jlJ7H6DaEmKQjjuiwTY/BMvR5HLl+Go5YsQV5+PtQqFXyvvYqOxx7DJq0O3+iTUDfBcpczlG7cPmU/W4APu7LwjTkVljFSEuSCgIer9kJvkENuVMHTbIU/V4A/AxB0gEAB232yHPfYk/Cf+gJYYkCCMjF23NhJqdXpUT7vCEyfPRe5BYUwpqb1e0COnSTRj0Q+bIfdhpaGelTu24UdWzahp3v42h/Rj5pYPVBq6+z5C3H08pORW1CUsARM9HK1fu1qfPTOG/D54l+jIZxVohe/0hnlWPmjS5GakcVukRSEcJCbpNeoAgGcb+rChVddhcDll/eiIF+9GpobbgAXzIsOcBw+PP54/M1ig9PpnBBoTdPacE1+dT9Zt9uM+FdLIXxxdjfkul24q/4AMu9ehKTTC1G9+K3+mMk5QMnBn+RnZdk5O4c2Xo+7s4oRZHedEBhPRCENRiMzWZfPX4Qko5GlSSoTVPlltQ/cLtjMPdiz7Tts3/It2pqbJiLscZE5OzcfZ114EfKKpibUGvq8Xrzxr2exY/PGuMw72k5JUTjnosswb8kxkoIQLZiH6/0avx9P1dWgQKmEdfNmVmiFte5u6E48EbKgIiDI5XD++c/wn346Ojo7cf11N8BuH19zWThrQvEHtxYdOOTSDzqz8HF3UHsGoJQFkKFwg1ITqQyz3S+6IqJhwqOSz39I3QvNZh6yJCX8Hf2Vqtx/LIViShLqTn0fIY0g/40V+KA6gCeebQtnetI1MUKAlAPyc8+evwBTymYiMycXSpV6zFPtRJcecRR0wmLqYqyG9bXVMJtMMZrp4duNVqvF0tPOxDHLT2G0xOPZnHYb/vbAH9HV0T6eYoQ1dnpmlqQghIXUJLuoxOXCnxvrYfT74T3uOLiefVaMFPb7oTnjDPC1teIhyfNw/O1vCCxd2ovQrl27cOcdd40J61o0y0JUx/eUHJrvvdViRJ1Li6UpnaDqi6Qg9A1fJOuCMyBHjVPLXBPN7sgIXKivX+ZXgywYIAOBBVDu4CDrU7+p8H+ng8/SoObodyD4qK47kPJ/M7CrOAt3vzi5TMbRrHE87iUTNsUwUMCjUqnGjNlzWAwDmWazc/Mg4xWspkKo0E8kMpASQJU+XQ47aqsOoLWxCW3NjUwRIGpdj8fNKiaOBaNhJHJPlGvVGg3Lfjjn4suRlpUz5mLXVOzFy888CccEeIEKgSO5GMZ8myT2gMcffzx+8/laaCrFCHvPRRfBfddd7GfZpk3QXXYZEBAPLdf118N79dVUTYa9Uctqa8E1NuK5N97EOzWiEpGojQ7q72c0YVlK/8hhMuEPV46573xozh0eFbZZjfiwOwuBIVwTikAA5Q4b+1M024ac5EPTyjiHqCzIOwDeroDMI0PA4jk4nAzYn6XFw0kSw2Ii7qlQ8C4p0hqNBhT0xVOxG46qGR6UeGBcL+ndpBgQrbHFbIbfL/qjJ3oQcCKuUe+hx8mQV1iII487gRX2ijeRltfjxifvvYVvv/wMXq83kaE5RDZJQZhQyxVfYc86+yxcccVPoT/hBMjaRROY+6qr4Ln5ZsDng/bUUyFrbISHyriWl8P95JPg//c/8N98A/l334Ej5i+OQyfP4/LiEjhDbon4ij3q3mUQcHPRAeSros8Dd/jlWGvKwNfmNNDPoXZiTycubG9hZ4SgBFynCP0OjCGFDwAc6Qd0XsgBQQU0e9V4oK5s1POVbpQQkBDoj4DeYERZ+WzGk1E6czbkfOxqoJCSV7lnFz5653W0NA5ewTXR10NSEBJ9hcZAPjq8zj/vPFx82SVsNO2KFZDXiYQd7ssvh+e22+BvasLG738f/0rLQLNSiczkZFzQ1IBzGhv7meBD4j6YnYOPjMljIH10Q8i5AK7Lr8YUTWxoTcmq0ORWwxOQQSf4UfS5B5xocIE/W4Bn0ejltfl5xq4oNQkBCYHYI2BMScUxy05CyfRyZOTkjLqOBykG7S1N+Oz997Dzu+hrKcR+puH3KCkI4WN12F55ck8Prn33bSAlhc1Rdc01UH7yCfvZe+KJ6H74YTz/j+fwyZo1h2BwV3MjllpFBzrFJECvh6BQYINWi9vVE4MD/8y0VqxIi33QkKwHUK07aF/2lgnwRWEAoPiHmw/MOWz3oTQxCYFEQSAlLR1LjluKabPmICUtAyoNBaYOTXtOKaYul5PVs1j/+afY9d2Ww4JzQlIQEmVHjqMc9zTWY+4770AoLGRS8KtWQXPLLexnc3IyblxyNGqDgYkDxSz2uPG0TgvPlVfCt2IFczGQP7a6pgY33nDTOM4q/KFvLKiMmQWh76jyFkC55aCC4JknwB9lBdvrK+aGPzHpSgkBCYGYIFA2sxyZuflYeORRMKSk9tY5slks2LzhG9RXV6K2amRm1JgIM4adSArCGIKdqEPd29iAeX95GP5ly0RLgNeLpEWL0OHz4ZqiKegcJjXIqNXgX/fdCxQX9+NEb2xswi+v/mWiTrmfXL+bsh+ZSnfMZZU3ADqzAcoSA+xrmuBeJCAQBcMv0UHfJFkQYr5OUocSAhICgyMgKQjSzsBpPT24buVZ8FIwYrC1/eSn+E1bO7pHCNrJ8Hrxn9pqCDk5cN1xBwKkZHAc6uvrce01100IdO8s3oc0RZ+MgRhJTQrClF8ug2ZxBqqPfAuuef6oFAS7n8dtUgxCjFZH6kZCQEJgJAQkBWEkhCbB5+RZOzMtFWfedy/UajW2btmK559/HjbbyIRHx1kt+EOIvU0mg+tnP4P3uuuwd38FfvPr30wI9O4t2QO9PPZ0p+Ri0NtToCzUw7a6EdG6GBpdGjxUP21CYCoJKSEgITDxEZAUhIm/hjGbARHAyOQyeD3h5ermpaTgiY42GKuq+sngvOMOrEpLx9+f+nvMZItnR/eV7GakSLFusi5AtT52QYpEzPRRVxbUMlFWljpJfBSBg2mVsZ6D1J+EgITA5EVAUhAm79pHNXOiL/3DH/+AaVOLIf/qK6hvvhkym4316dfpcP3Rx2BPQ2NUY4zVzX+YuhdGPjylKBKZODug/uygghBNmmO3S8B+mxoLU72M3bFvo+yGWqcWG8yp2GE3gipASk1CQEJAQiBaBCQFIVoEJ+H9MpkMN918I4h1sbe1tkK3YgVkbjd2aDS4saAIAtHETYBGlMtEvRzzJgDqD7leHgRBAbhWhEmU1EcYYt/7tCGAUwpHPvidARnuqZkB4kyQmoSAhICEQDQISApCNOhN0nt/smghVt5x+yF888qHH4bsH//AT6dMRZNSOSHQITbFh6ftgoyLpvzS0FNV7AL42oOKkmupACEpMmi+bA5gdiqHVHV4CtdXPWl4oz0vskGkqyUEJAQkBAYgICkI0paICIFlFjN+29YK/7XXinUY+r7p+nx48Ior8Y2pJ6I+x/Pio4zd+FFW/FwhMgug+rJPHEK5AN/U8GdcYxFg9wKz08JTDqhns0+BO6tnhj+IdKWEgISAhMAgCEgKgrQtwkag2O3Gk3U1UFNxJp6H869/hf/kk9n9RC/68ksv480330IgWMwp7I7H6UI6cm+LgAPB7Baw1yTA4QPS1RxmpHJQjmT19wPq1Ry4YAykoANcy8JzM5hcAirMApZkyWD28djvSEK9SwOTVwmPIOuNNaCYhAuzGpHRJ1Xz15WzpODFcdpX0rASAocLApKCcLisZJznkZGRgcdvvAEZl14iFmWiYMSpU2FftQocz2PLlq34031/mlDVylIVHtw+ZT/kYbgXPAFgXXMAJ+aLGkGXS8DuLgEpWgXmpAyfASFvBJTbOMgMSgRsXnhnBuArHnnBtnUGUBXIwx67AZ1e1bA3nJfZhOOTD1amJAsCWRKkJiEgISAhMFoEJAVhtMhNovuMRgPuufceFBYWQr5mDTTXXgvOLx6KzrvuQu0JJ+C6a6+fUHXqeU7Ab4v2I105MkESlYD+uiWAo7M58H1qQdPb/GMNJYxk6aTUdpRqHCCl45BGwYqfcpjy9hmw/q8OXc/uhvs4AUIYpSpWdWTjU1PmiLvt1LQ2nJHW1nvdvbXT0e4ZXqkYsVPpAgkBCYFJjYCkIEzq5R958kqlErfe+issPnKxeLEgQPPDH4Lfto39s6OwCD9Nz4DdPjKp0sijjc0V5FpYmtKBczJaRhyQlIP1rQHMSOGQ1idIsMfH45H6aegZ8Jaeq3KyN/lSjZ2RL2nkfsZXIGsHClYugWt3NyyvVEJQA+5jBQiaEUXAX+pLUecaXps4N6MJJ6QctCDcXT0D3b6JESg6MgLSFRICEgLjgYCkIIwH6hNozJ9fcjFOv+D8fhLL166F9he/gIfjcHXhFFSr1Qk/o1CIH8cJOMbYhfMzm0eUmdIL367246QCOYx9ztoGshw0lrCSziM1BSdgnr4HC5N6UL7XDk1bn2wJDvDMFeDPD7IeDdGZxcfjDzUz4BWGHu/S7HosMhwMDpVcDCOtjPS5hICEwEgISArCSAhN4s8v6+zApU4HXM88g8DioAWB8PD7oV22DPfLeKwxGhMaIYPcix/n1iNT4WYV2CitURsGa2KHU8CmNgEnFcigkgNkSdhhM+LdjhyYfErGYBhp4yFgps2KUpcDSiEAk1yBCr0OPyxpRI7GNWx3e+xJeLpp6MCFmwoqUaQRY0Oo/erAbBbIKDUJAQkBCYHRIiApCKNF7jC/7xRzD25ua4VSEODPyoLj/feBJDGBn2Us/O52vLFr96gOyrGCjvzyK1LbQfEG4bZ6q4CKHgHTUzjk6zjsc+gZvXGLRw13nCiNyboxRW3HD7MbkT1MVclPujLxv67By0H+ceoeGHiR7MkVkOHXlbPDnbJ0nYSAhICEwKAISAqCtDEOQaB0WikeKC1B8uOP9wYjepYvh/upp1ilxo8/+hhPP/1MQgclDvTJD7fMpD40OeTosHuRpeWQqxMdEq+15WG9ORUBFkUQ/0bpisuTO3B6etugIzoDctxZNfMQywBlYfxl2s5eARvdGjxUJxV1iv+KSSNICBzeCEgKwuG9vhHPLisrE489/hhUKhXUd90F5auvilYDjQbWDRuw68AB/PEP98Dtdkfc91jdsCK1DWemH4zo7zsuvV3Xu7RodquZVaDVrWJ/X5LVgLlJFnGuAN5sz8VXPeljJXK/cfJUTlyY1YQi9UGXQeiCj7sy8cEAKwIVmqKCU6H2ndWIF1uKxkV2aVAJAQmBwwcBSUE4fNYy6plQOuMjjz6CtLQ0sS+rFbply3qLMNX/3//h5xs3w+Ua3l8etSBRdDBda8Uv8msOeQOniodf96Tio+6sQ4ILKduACjaF+BDaPCr8qXb6uLpPyGZxVnoLlqd09qOB7vCocE/t9H4IpSvcuKN4f+/vVndn4v3OwV0RUUAr3SohICEwyRCQFIRJtuBDTZdiDf545U8xY+XKg5cIAlS33QblW2/BLJfjvJJp8CdwASYFF8DdU/ceUrrZ7pfhvtqhCxidn9mE44IkQ2Q9uC+BOAR+mV+FMu3BFFIiP7qremY/5aVA5cQtRQd61+3l1nxstKRKO1tCQEJAQiAqBCQFISr4Dp+bf9vchJMUPGxffAGuT6El/oMPwN10E66aUoxGZeIS79Ab92+K9iNb1d/1YffL2YE6XIrgncX7GNkRNXI9PFBXljALO09vxk9z63rlId4Fmk/fNkVhwo3FDb2/eqqxGPscEVaESpgZS4JICEgIJAoCkoKQKCsxjnJc1dGGC7u7mVned9RRcL7wAiATU+QEkwl/+cF5+DKYwTCOYg479IkpHTg7o6Wfa8Hhl+NPdWWwDEM5PFNrxc/6uCQo9uDLcYo9GGyCybwHd0/d1/tRhUOPJxsPVnsSvA6gaz9ydcD182TQ8Bxjd6xy6hJ1qSS5JAQkBCYIApKCMEEWKl5ifu+s7+HnTY3Q/uc/okLA87CvXQshK4ulM77wwot495134zV8TPrNUzlwa1Flv77IVfByawE2WVKGHEMmeHH71Kpe64HNz7O3c58wNlkL4Uw+iffhnql7ei9d15OG1/uUchZ8TqBzL/tcIQPKkjm0qMtgCkgKQjj4StdICEgIDI2ApCBM4t2xYMEC/Oa3v4bK7YbuzDMha29naHhWroTrgQew6r1VeP75F5iikJAt4IdgOoB8lRO3LpD3E3GTJRkvtRYOKbZgbQbvbMX9x/C9FRm/MKXjrY7chJoq1Xa4q/igBeG9jmysGVCbQbA0AI6OXrk5YzGgGVoxSqgJSsJICEgIJCwCkoKQsEsTX8E0Gg2ef+E5aLUix7/yiSegevxx9rMgl+Ozp5/B/Y88Cp9PJN9JxCbQoWhpQKoK+P0SvlfEVo8KD9dPG5YKWWjbDg5+3LlYzmosUPoj0Rnb/Qf7SYQ5F6ocuLmPdeS19jx83RPMMukjIMPC0QkIfnAppQCf+PTXiYCvJIOEgITA0AhICsIk3R0rVqzAL6+5unf28m+/hebSS8FxHFp4HleUTEPiJjOKYgvWJsDeBrUcePBY8WD3ChwerpvGuA2Ga0LHLsDvgUEJ3HKEHN/YsvFxV1bC7YaZOgt+nlfbK9cLzYXYZktOODklgSQEJAQOPwQkBeHwW9OwZnTW2WfhyiuvOHit2Qz94sWwBdMZvcEgxbA6G6eLBHs7YG1ko/9yjpzRIz/ZUIwK58gR/IKlEXCILhWKOFBklsMrS7y37sUGEy7JPpih8Eh9CWpdUnzBOG05aVgJgUmFgKQgTKrlPjhZg8GAZ5/7B2NMDDXfWWfhF74A2hWKCYGK4HUCXWKAnk4BzJtaiA3m9PAIjnxuCJ1B9kGOA5c5F+D6xzEkAgjLBpSllhSERFgVSQYJgcmBgKQgTI51HnSWi49cjJ9ddRXS0tNQXV2Np/54LypNpgmFiNBTDbh6AE4GWdY8CBHUTRBjGBqB5GJw6sQ0238vvRWnpIqWDmqSgjChtqckrITAhEZAUhAm9PJFL7xMJmNWBKJPTthsheGmGfACtjaADnilPnJAhABTLhK1XZjViGOM3b3i3V9bNmJ8RaLORZJLQkBCYGIhICkIE2u9JGknGQLEokhsiqFGPA3Epig1CQEJAQmBeCMgKQjxRljqX0JgtAgIAnJce3FhsRdTDBxzntxRPXNYZsjRDiXdJyEgISAhMBABSUGQ9oSEQIIiIDi7ALNYh+G4HA7nlspxa+Vs+ITEdYkkKJSSWBICEgKjQEBSEEYBmnSLhMBYICDWWTjIoqjhAZmxCA7FoURJYyGPNIaEgITA5EJAUhAm13pLs51gCPRmaYTklvHgMucE2Rsm2GQkcSUEJAQmFAKSgjChlksSdtIhIAgQiNDJ1spolME4G+azv6UmISAhICEQTwQkBSGe6Ep9SwjECgHBD8FjY5YDTmWIVa9SPxICEgISAkMiICkI0uaQEJAQkBCQEJAQkBA4BAFJQZA2hYSAhICEgISAhICEgKQgSHtAQkBCQEJAQkBCQEJgZAQkC8LIGE3YK4g6mco3J3KbCDImMn6SbBICEgISAvFCgHvrzbeFeHUeab9WmwX/+ue/EQgEIr11TK9fvnwZZs+endCpZv/P3nmA2VXW+f9zzu11eqZmJjPpCaQBCaE36SyuIAuLyN++qKsIqNhxRQF1FRZXqq5lpSisooB0kBZICKT3ZHqfO3N7OfeU//O+Nw1ISAiTKcl5nyePOPect3zfc+/7Pb/y/WWzGe6991djvr7ClClTOOecs8c0lmDxxJNPsnnT5hF9zt7vYC6Xi8985jM4HGOvKuXua3nrrTd5+eVX3u/yRvR6Qayv/H9XEgruu3T4iE7sHYMlEnF++9vfjenvuXgJOOGE41mw4KjRhGqfY5uWwW/+57ekUql9XjuaF9TX13Phhf80Ir+ZimmaY4Yg9PT0cOXH/x+6ro8m/vsc++qvfJkLLrhgn9eN5gWxWIyLL/romCdbJ510Et+74bujCdV+jf2DH9zIC8+/sF/XjtZFXq+XvzzyZwRRGMvtwQf/yN133T2Wp4goYva/f/g9lZWVY3qe3d3dXPGxj495gvDZz32WSy/9lzGNpaEbXHrpZQwO7iqONhYnfPTRR3PLj28ekakp1hgq4dfT3cPHP37lmCcIX/nK1Zx/wflj2nwfjUbHDUG44fvfG5GH/UAHEV+RG39wI8+PE4LgdrsPdKkjct8DDzw4bghCVVXViGCyP4Mk41E8Xj+u3fa3q6tr3BCEyy67dH+WOWrX6Hl9XBGEkXAf2wThAB5HmyAcAGh7uUVYEGyCMDx47rAg2AThg+O5w4IwlgjCeUdPpLisgrv+9BzBcLFcpE0QPvhe7+jBJgjvxtImCAfwfNkE4QBAswnC8IG2l55sgjB8EI9FgvCD6z7Nc489zPGnnsONv7zPJgjDt92yJ5sg2ARhWB4pmyAMC4yyE9uCMHxY2gRh+LAciwRBuLo+fu4xWKbJ/z75pk0QhrFu3OkAACAASURBVG+7bYKwFyxtC8IBPGQ2QTgA0GwLwvCBZlsQDjqWY5EgiEV/9VMfYdO6FTyyZJtNEIb5KbAtCLYFYVgeKZsgDAuMtgVh+GCUPdkWhOEDdKwQBMsyufkbn2fSlBlc9umr+e6XPs7Sl57hibe6bIIwfNttWxDGgwVBpOyMhzRHmyAM3zfTdjEMH5Y2QRg+LMcKQTBNgyvOPoau9mbueugFHvrtL3nxqb/yxIpumyAM33bbBGFvBGHLlq1jRgdhcDDCN7/xLQzDGOatH97urvj4FZx00okjIlRxoDNPJpNc85VrxnR+tFjbUUcfxb/9278d6DJH7L577r6bpUuXjdh4BzKQx+Ph1tt+jtM5tnUQnnrqSf70x4cOZIkjdo9IIbvllpspKS0dsTH3NtDyV5/njh9dx8e/+C02r32Llcte5r8eeF5eHolE+Mb13xjT33MRO/HRSz7KWWedNepYvtcEBBn72le/jtCQGctt9hGzufrqL4/I+aOccvKpY4YgiE0ZidzOD7r5Y0g6Yp9LGet42ljucwvf1wXjBc+x/lwK0EcNSz0LqV4oqi8cAmYe+tdAoBryKdAzUCGUXAvNxvJ9fUX2efFYx3Mkn0u7FsM+Hxf7AhsBG4HDFQFLS0KsBaVsBqjOEYHBSnQWCIKvDKWoQY5p9bwJ/grIDsl5KOWzRmQu9iCHNwI2QTi8999evY2AjcB7IGD1rwMjWyAILv/IYGXmsfpWg+pCmXCkMGVg9b4FDjcYGnhLUYonjcxc7FEOawRsgnBYb7+9eBsBG4G9IyAO5pVgmSgT5uzZgmDkCrc7PMMKpBVthmwUpXIulnApRDYW+lccBeuBY2zHmQwrGHZno4aATRBGDXp7YBsBG4GxjoDVu6JAEITPX7zBv6NZkQ1g6oXPh7NlIlixViiaBJkIaIlCPEJRPYqvbDhHsvuyEdgrAjZBsB8OGwEbARuBvSBgDW4BLY5SOhXc7y79bA2sL7ggKufvuYdcTLoK3rd7Ip/CElYDYZkQVgrFUSAH3hJ7r2wERgwBmyCMGNT2QDYCNgLjDQEZpDi4CfzlKGGRVfD2ZonPxDUVs1H24Gawet4CbxFKcdP7W7qRx+pfXbhHBCWWzbTdCu8PQfvqYUDAJgjDAKLdhY2AjcChi4DVt2qXG+EdboadGQehOpTAhHcTCJl9UIYSLmQj7HezTKR7Q1FQJswFRd3vW+0LbQSGCwGbIAwXknY/NgI2AockAjtJgKcIpWTy29co3/TXyPgEGTyoKG/7XLogLGOfMQqW0DfIp1F85YU+dhIEtRComI1BvA0lVCvTH+1mIzASCNgEYSRQtsewEbARGL8IiDTDyHoQAkauAITrUVy+neux4m2QHpCfyViF3d72LaFnIHQN/BNQwnV7xcCKbIJ8EtxBlJIpBYIgLBeKIAjzpDiSJBu+UhQRuGg3G4ERQODQIAgKOD3gKVLRUjpG2ilV0EZScWoE9soewkbARmC0ENBzWLFm+ZYvswlEXIEQLnIHCzoFIi1RBCQ6PAWSsN0VYeXiMLSlcNCXTtt7sKKpFwiAUE0MVKH4y7D614LTh1I+EyszKAWbCFQWrAh2sxEYAQTGPUFweBQ8E5NMmBLAG3TjyZdQ715AX/sQ27ZtJTIQwTTNEYDSHsJGwEbgkEZAEIF0H6T7C4JFoqkOcAbA4QRxiO9ogjjoucKBL1vB9VBIl9yzhoElLBQibVI0YSWIboNgNUqwmp0WhtJpKKJvu9kIjAAC45sgqBa1x6vEMhGmzKgjGklxZP1xLJp5BlbGTW93L8uWvsHrr78GY6rixAjsrD2EjYCNwEFCwMJK9hb0CQQBsPbyAiJcDUKeWVgaRIaDOPCFOmLZ9D1qKojJFgSSCnLKmEYhQNHUkHoL4t6K2QdpTXa3NgLvRmBcEwRXSZ6JJzgY6I0xc24T3W0DLJp+JmcvugSPy8fgQIzW5hbu+O87SKeFadBuNgI2AjYCw4yAaUitAsvaUYVWRXF5C9oFu7Wd8QjCkiDcDXuwBOyMZxD3iXiHUF0hzRKrEHvgG/3qksOMnt3dGEZg3BIERbEIz0nhLVFQFJUJ1aXEBrJcdtoXmV4/B5fTRS6tk0ym+eUv/puNG7ZLlY7hzbCnZiNgI3BoI2AJ60C0pbBIEacQmIDiLZWuCiuXgOjW7RYJZXvthe1SzuGJhZgHu9kIjCAC45YgOII6RXMyGLpOSXkYh8OJ2wpw+Zlfoqa8AbfLjdvllSJk69ev5/bbbmdoaGgEobWHshGwEbAR2AMCwtogXRQD+4bH6S1UdBTWBLvZCIwwAuOWIHgnZhDZQKlkhimz6okNpigNVHLOMVcwqXoyHo8Xr9uHoSloOY3f/M9veObpZ0YYXns4GwEbARuBvSBg6gUVRvEWYxnM9fdT47PQLQi7oDaoUBl08XK0lH9Ey0kbI1Nu2t4vG4EdCIxLgqA4LYKzE5RU+0hE0zTOqGOoL05pqJIPHfUvNFRNoSRUiqo4US0Hec1gw4YN/PTHPyWVStm7byNgI2AjMKYQOL2knwsqurfnOrx7anlL4Y14CWuSYdpzPmK6Xc1xTG3gITqZcUkQXKUagalpikqDGLpJIORDy+oUFRVx5lGX0Vg5g5JAOVgqLpcbPWeQTmd4/NHH+dOf/nSIbuXhuSxFUVDVggytaRoiJd1uNgJjGgGXYjLNn+SY8BC1niwJw0GjL4P6PlKtErqTrZkAvZqHwbyblgR0R+PgKUHxFo3p9duTGz8IjEOCYBE6IoW7yMLjdaGqijwUQuEAvoCXoyd/iMnVR1JdXI/fE5QBjIZhkk5kWLJkCXffeff42R17pntEQLUsSspKueijF7Nw4UKCwSDk8xiXXMLywSEeKC2jz+VCf4fsrQ2njcBoI+BSLL7asJFKd0FHQfBZwwTTAvfbkx4Kn1vwkzd1rp7n3OPnO9bzTLvJE22mFFbKl8wc7WXa4x8iCIw7guAuy1O7yIk/5CWXyeHxu4n2JyivKkFVFIJKNYuOOJ2yYCWTa2ZIgRLD1IkOxmlt7uD/HnqYTZtE2pDdxiMCHtPk9sEBKp5+GjWwPXBL0/BdeCHObdsKlgSgx+Ph+nnz6YjGxuMy7TkfgggIC8F3GjdS6tJIaBbPdVqYpsWUIgWPU2FqsbJHF0NaB59zh9TS3oHJm7AqGeZ3PbYU8yH4+IzKksYVQVBUi6rFJhUNQRRVRcHC7XWTSefw+TxEIwkyCZ3Tj76IsqJyJtfMpiQkCptY5DSNvq4IW7du49f3/Ip8fofC2ajgbg96AAicHY3yxf5e1KuuIv+lLxV6sCzcN9yA54EHdvaoz5xJ9rbbSE+o5Pb/up1XXnnlAEazb7ERGF4EzivrYZ6vl7WDFrPLFEo9Cs5hLNIorA03tU6jV/MO78Tt3g5bBMYVQSiZrFA8Q9RYMFFUBY/HhT/gRTcMaT2I9MXRNZ0JxfWcNP8cJlXNoLKkCrfbK10NkYFBtm7exn3/ex+dHZ2H7aaPt4U7LYvP9/VyYXRIvmElH30Ua+pUuQx12TICV1xRsMUC+ty5ZO64A8oKFe9yOY1rr7mW9vb28bZse76HEAIe1eBc32omBhWaigqWgqG8i5XJIt6IF3N1/VacygcLoFmdDHNvl209OIQem1FfyrghCO6gwvRz/KSzadKpjIwrKCoJksvm8Prc6HkLQy8EqaWTGY6f9yGOnn4qNeX1+Dz+7VLLCtu2tnLPL++htbV11MG3J7BvBAKBAF866UQ+dOvPd16cfPFFrMpKGXfgu+QSnOvWyc9Mv5/03/+OVVVVIAzJJGp7O7H2dj5zx11k7Joc+wbcvuKgIKAqFiVqloDLImM4SBpOMuauoIN/rWxnUdH712nJmSrtWR/rUiFejJaTt4bRJHFQkLA7HU8IjAuC4CtVmXJGAMVpkEqmyWXy6IZO3aRK2rZ1ywBF07DY4cFLxFOcvOBcGmtmUhaqoCxcxUCsR8ovGzo88D8PsXzZm+Npnw7LuYbDYa7/xvXMScTxX3llAQPLIrl0KVZxMY7XXsN35ZUY24MRc3fcIYmD86mncD3zDOrmzTtx+2F1Dc+F7ejuw/JBGgeLdismN01Zu99WhD7Nw4vRMpbEytCtQiEou9kIDDcCY54g+MpUJp/qo7gyQH/3oLQS5PO6dDEEgl5SiYx8WRQVGx2qQ2Y1iGtKwhM4bva5qKg4nS7yeg6vx4fXFeAfS57m1UfWYOr2F2u4H6jh6s/v9fKTn/2Uurq6ghvhYx/bRRCWLMEqK0O74Qb+99nneLS4BBSFY2truO6F5ynag6Ug6nBwyeSpdmbDcG2Q3c+wI/C1hk0y7fG9mnBCvBot5Y99dcM+vt2hjcA7ERjTBCEwQWXyyQGKq/wM9SfIZoXimIlumDgdhfRFQRRyWU2SBlVR8fk9MjJYWBRK/dU01k2XksvpbAwLk2QuypqNK1HzbgbedGLmbZIw1r4Wwkh673HHUnb99XJqwhLgP+88hOaBaMmnn0Y4iL751a+TyGTeNv3J2Sx3tjaze8bYDs/upyY10eLxjLXl2vOxEZAIHBmM8ema93Z9CqvBw321NmI2AiOCwNgkCApUzvRSM9dLuMJHfCgpMxVEApueN9C0vAxQFMGJ4sxIp7Py8BCiSUIbQVgTRIKxx+vB6XRj5PNktRwOp4rH7UF1qCSiSRyGh55lCnlbXHFEHrb9HaRE1/n9EbMwfvzjwi2ZDMGFC1E0TeaNP3HxR7l98xay2T2/bd3S38ecc89BP/tsrJoacLvB4eB7P7uVt1at2t9p2NfZCIwoAoL+frtxA+WugkbCnto3t84iZUsuj+i+HM6DjTmCIA78puPClE52Eij2kEnlyGY0HA4F4WoTbgYRAuzzuzEtE9Mw0XJ5dBGgaFo4nA4sGQ1s4fV7cYuKaYpCJp3GsEzcbhc+n5dcLitdEmQ9dC3Pk+rbS033w/npGKW1V+Tz/N7lIPeXv8B2lUTPt76F86GHeKC0lN+UT3hPV8GnzzidCz71Sdihk7B9HbfcfAuvvrpklFZlD2sjsG8E/rmii1NK9l7E6etbZpPdLbhx3z3aV9gIHDgCY44gTDuplAkzXbg8TlJRjbyZw+FQKSoL0NHSS3QwQbg4gIWFUxwi2ZwkCMJ6IGIPBEFwulTypoHT7cDn8eJUXei6LolGfdVkDCVHQo8wtXwB1aWNdPd08dzfXibR/sHSjA58G+w7d0fAYVn8b2sz/pdegqJCYKG5ahUPX3UVfyir2Kcg7Vd6ujkPi/yll6JddRX4fLKPm266mdeWvGaDbSMwZhEocWpSTMmxl5THB3treTVWSOG1m43AwUZgTBGEysYQJ398GrHkINXeGZSWl7C5fS0pq5/+7ijxWFJaCUR6YzaXLZCIREYe/kbewDAsnE4Vt9cp3RCKQyUYDlBfOgOnw4FlKRwz9TR0U2Mw202xq0rGK2h6hg3Nq1j+0koim2xLwsF+6Pan/4Zcji9cczVVxy4mkUjw2GOP8fhjj+/zVkEu/ru1hWm5gvvBaGwkfd99UFrKt7/1bVavXrPPPuwLbARGE4HP121juj+5xyl05Hz8tHXqPknyaM7fHvvQQWDMEASPz8U1P/o0E6saifREqagsFxEHDCUHeGntI7R2NDPQO0h5ZSniWhMTyzRJxNMYhoHPEZQuBM1I4fa5CgRBVZjeOIeZ1QulO0FkMNSWNKE6HKBYmJZOMp4mafRjqDlWdDzLM7c1k8/aJGGsPOIitsR6HxWYPulycvmWzSi7xScYZWWknnmGz3zpy/T39Y+VpdnzsBHYIwKLiwa5tLJjr+jc31vHa7FSGz0bgYOOwJghCLMWNfCdb96AlXfh9Yr4AgMtn5Oqic3dm/jtEz9HMzKUloUxMHC5nGg5DaF54FCcLJp2FgF/mLUdSxjK9qBpGk63womzLyTkKcUQRdYVi0rfJMLhYlSnQt7IYCkG3Z295NUUm2Iv8dSt28hnbIJw0J+8gzDArFkzufGHN+LIZvF94hM4Vq7cqW2/9WMf4zPLlh+EUe0ubQSGF4GwI88PJq/fa6dx3cl3t82yrQjDC7vd2x4QGBMEQQQmnnz5LI5uPIP58xfgdrkK2gZS38Agmuxn5YZlrOl6EV3RyOXTOF1OmfaYTeUI+Us4avLpTKudg6HkWd35MivbX5Syy7UVTcyfdArRWIT13a9TySwZh2AZIqPBjSfopHuomecef4mB9iSJvr1HENtP0NhFIBgKcu+99+DbHm+ApuH97GdxCc0E4OqJDaz2+8fuAuyZ2QjshsC19Zup9749hXd3gNangtzZ2WRjZiNwUBEYEwRBrLC0zsc/X3USRzWdTrGvAhUHmp6nN9JBLB6V8QiDiX62dq+lL9lCMjskMxg8aoCakilMrppDbXmjtDik9TjNfWv4x6q/Ul87WZKJoWQfsWiU9nURqsrryWppvFopyTZRo2FABjq+D0v2Qd0Uu/P3h0BIVfnFL39BsUhp3L11dhI480z+4fPxo+ranYqL7693+2obgZFH4NyyHs4q69vrwCYKP2+bTFvWJr0jvzuHz4hjhiAIk3/DgiImzgtRE5pGWaCWvkg3r6x4mqa66Zx68ocwrTzxVJTBTDeV4XqZneB3F+EwPTjw4HAqeL1+DDNPPBuhY2ALfm+IbZGV9CVa6W0doq99CIeIQUDB6XCR6/GQ7XJhGbZg0nh87H2myU0dbcwuKyMt0iJDoV3LsCz6HnyQL/zhfrTtIkvjcY32nEcHAVE/4ZjQEEvjpSNuzp/hT3BVXfN7LjxrqvxH8wxbF2F0Ho/DYtQxQxDE73eoScddlSWVTKFYDiwMMtksXq+H6TOnccQRRxLwhOXGNJQcgYqHvKaRS5jEYkOkcnFKQuWYniyb46+gWh5qi6ewpf9N2tpbaNvYv1ONT1VV2a8oG52POUi1utATdqGT8fTUC5r35Z5uzo9F5bTzxx9P9s47C8JIQCwa45prrmVgYO955eNpvfZcRxaBE4sGuLiyi29snU3a2F2b8+DPY44e51NTW8D13mOtSBTxu556DLsew8HflMNwhDFBEBQVQpMsiptEboJBdDBOJiNqLBR0CbxC2CiTZ/qcSbJAU23RNGp8R6DpfrKpNPl0hlwuhSF4vtMlLQfru54lEPYIZWaGBhKkYhn53y534RvnUFWZzSCsCUJhUcVJqt1BqlPFzB+GT8I4XPLFH76Qzyx/QxZmEk08L+m77sI89VQZpHrzTbewfLkdmDgOt3bUp+xTDX40eS2qAje1TKNH847onL7Q2crcTJx8g4VZA1YArALvfVf7Q89ElsZLRnR+9mCHBwKjTxBUKJkMxU2gm6IQkyYtCHlNl+qIIoVRpLqJOguCLgRCXibXzWRe/SmYDj8+v7AoFFLhdD3Hlta3WLLyUTQ9J6s7quJehyLjEETMgltkSBgFxUXRp/hft8clizwJ8hDyhNn0XIJcwtpeIvrweBDG2ypPPPEErrn2GtR0msBZZ6FutxKYlZUknn6a3/zhPh75yyPjbVn2fMcIAg3eNNfUb5GzESWV/9RXy5pk+G0lmg/WVIWWx21b1hGcHiZwcg1Dd20vZx60MOrAqEZaFnYYDUxT4f51E1kaKD5YU7L7PUwRGFWCICwH5bMVwhML/n9RZyERS2MqmjywU8kMhqzMp4gMRZxul9Q+EIJHM+sWUFM2iVCgAoeiEE0PsHzT8wzG+zEMfXvAobU93qCwu6IGg3Qt+Ar1GDAV3B4nqlOVOgkl5SFJTLSMQbzdIrLBtK0JY/CLUV9fz0//8yd4thdeUtasIXjRRQUrAvDgRy7innXr35d+whhcpj2lUURgii/Jv0/c9rYZCDP+be2TaT3IgYEe0+Tmtg1UX9RI6b/NouXUvxVSurY3R7EHtchNvj1R+IsF7kWVfEWrYihpp2iP4mNzyA09KgRBWARq6qqZMNuBr0IlnoqQz+cZ6siihjOyMqOwHAixI/HGn0lkpeiRP+jfrphoSFllBQchXwkBX5jBZA+anpXaCEJZURAB8cUR/yvIgKj8KCSbhTyzy+WSFgVRl6GoLCj/JshJMCyqRsZlXILL6cRthmhfO0S02cDUD7m9H5cLCjgc3PHreykq2c2kmssRWLQINZPh9UCAG2rqyG2v4TAuF2lPetQRqPFk+XrDpnfN4/V4Cff1TERIIh9bNMRUfxKvaiCil/KWSlfOw+pkEevSIcwDjAuYFUjwuapmnN0Krg0qvEO4beL/nYmzyk/LiY9gGQXiUHPPybzlDPCdm9pHHTt7AocOAiNOEIS5/7x/Oovz/uk8vD43kUQ/zT0biEWSLN34LMl8RB7wWjYvD3vhOhByyIJUiINdEWYHEb6oG+T1vHQbCAuDcA+Ia/KaKNxUOM3FvZIgbD8sBFEQJEBcJ2IPQkUBfAEPet6UcQiZdBZLVwgGgzgdTiqK6+iKbCPZp9P8wnvXaT90HomxuxK/aXJP81bKPvxhct//PjidOyfr+vWvGfjZz/hiQyNxmaViNxuBA0fAqVh8r3E9Yefb3wz6NQ8ie2Die2gUiFFFUOO2jF9mQKxKFu13FoRwbXyqppUi5/ZAKBPUAXB0gqNXQdEh9OFJuOqDDN6+Zqcb1DUpxMbaMm7u3y2L58CXb99pIyARGDmCoEBJjY9Tzl/ERWdegccp8ncttLzGYGyAvoEeOmNbWLr5KeKJOLlMTloQhMlfONscLocMLBRFmUQ9BlHJURCBHQTC7XbLmAPxN2GNEH0LYiHIQcFy4GRCTakkCIIciM8EKfA5iin3TiRvaqxrXUZFaRUuIyjrPBQXF9MR2STdFSsfiNk6CaP4pRHpjDd2tDM/k5azyHzzm+hXXrlzRunBQb545SeI2OmMo7hLh9bQggQIwaIPmgAdybt5Yaicl6NlCP2C3VvAMFiYiNKQzTApm6b4uBxKcC9F4wRZiIM6BEpagTwo4qfOCZYHNof9/Dw9+dDaBHs1o4rAiBGEQJmLcz47l7mNJ9NUMVsyXwUVl+qRRCCS7CJvaHRGmnl86R9IJpNk0jnM7RUa6yfXSLdDV0s/6VRWfs3yui6tAaZp7vRHi2v07S4KQR52WAucbicej0vGHygOBZ/PQ8Ab5sjG4wi4wqKyA29ufZ6gP4zD4cSpBeT4SbWTbNRkw5Pb/X2jul2H5+BOp5PPnnM2H/ndb1H7CuIxlsdD6m9/w2pokBkvX/3q12hvs82rh+cTcvBWfWpJPxeU9+y1uuL7GTllOPjbQBVdOZ9MSxRWijPaBlgYjRWeaRdkz5Q/jAfUhvIubmieeUD32jfZCOwJgREjCKEKN2d/fg5H1JwgSYEo14wJqX6D0AQXsWSUoUQ/umHw5pYXpCBSOpWRPrbikjDF5SFpIWje1EkqkZWKiSJuQHocUGQ8gWgifsEU8QvCirCdiMuYA7dT1m8QLg5BHAKBIOctvpyiUDGmyIDI58nm00Qz/fjdAZLZOAPRHja91Urv+iz5tF0KejS+QoLgXXzxRVz+sctRe3oInH46imHIqeQuv5zUN77Bz39+K6+8/MpoTM8e8zBA4LSSfi6s6B72lYq3f++Tu9iAUWWhHX3gwwjSce3mI/fbnXHgI9l3Hi4IjBhBEIBWTgsw+7iJ1FQ0URaoZPnrK1mzai3+EicLTp+Kx+2TegSbu1cQGYhI14CID6isKcPr90j3wtb1bTJgUOS5C3eCOEDEPyF6JA56EZtgmAbppAhslPkPkhi4PC6cIrVRZC8oMH/a8Rwz60TpehBHv6blyGVzFIVLyOs5IvFuVm9YwVtPtJKNFQ4ku408AmeccTpf/Pcv7hS48txwA+7775cTMaqquOdTn+aPDz088hOzRzxsELi8sp2FRUPDvl41Ap4luwhCfqqFPv2DDfPdbTOJ6ftQV/pgQ9h3H0YIjChBkO/6auFAF7EB4jAXb/OlE72cccV8VMtFVsvIoMVEMi6iDCVBqK4rl0GIWlajdUs3oaIgAz1D0uUg+hF97iAIgjSIwMVkIiXjEET8gN/np6FmirQQWIrFpKopTJs4l/KyctwuH16Xj0w+RS6fo7NvG/H+DO3r+3lr6Rp0zSYHo/V9mBcM8s1f3YNnRwEmMZFolOAJJwhTEX8tLuH2qmpJDO1mI3CwELh+0kaq3blh714EHrrf2kUQtCMtjIYPNoxNED4Yfvbdb0dg5AiC+B44RWDNbj/mfgdKkYtjjq/lo+dcLmMBnlr1R9Y1v0FOEzoIDkrCJpW1JZJU9HYNyswGn99LX/egdDMUghALYkeiZz1XCFIUGQkitkG0mqqJLJhxHLXlk+Q1fm+QqpKJONzIUtGpTIbHXnuW2nCQx//yBKkeZCDkDiVH+6EZeQRqNY1ftLXgufZa8p/61Nsm4D/lFF6LJ7ixtpZcwcdkNxuBg4bA9xo3UOoa/iqvjjaYMG86gdNq6fzkC2hzTCmEdKBN/LYJF4Mtu3ygCNr3vROBkSUIDQFoTb1NobBhXg2N82cR8oY5acHRdA1toqN3K8lcnG1tUbxuL7NnTkA3NHIRDwPGFuKpISK9IrCnENCzgyBIh4KKtDTEYymSsRTBIh/VpQ1cePKVFAVKcaguXE43bqcHHYVcNkMqEWPJ6tdY1bqZ5NA6Mi1ejKRtphutr0vIMLi3ZRsVIkvF7yf10ENYk3dFZ3d+57tc/+ZbdjrjaG3QYTbu95vWU7wj7XAY1+7ogOqT5xA8t57Wcx5HO8LEqD/wAYRrQVgQ7GYjMFwIjBxBEDP2O6DEDZ2FOue+oJurvn4l82cdS1ffAI+8/CQVxcXMbmrE45ZCyTy7bCmhIoXZTVNZv249rlJNuhDWbFqBYQgLgSKVEI9sXETAF6S5dx2D0X6MvEJ3Zw+oBhWl1Vz6oX+jKFCO0+HGoboxUUlqJqZpkMmkGRzq4ZHnfs1gRqc0qJHc4CY9aLsXhutB299+/H4/+5rayQAAIABJREFUP7nuGqZ/8pOouYJZVzvnHHK33ir/OxaL8eUvfZmhoUKBJrvZCBxsBERNhoBj+H8L1F7wLFcRmbkiGDs/w0KfcuCr2ZAKckdn04F3YN9pI/AOBEaMIOxIN3RXBsnqOWZWNDHtqDrOO/cCfM4AbtVF9vG/8scXn+ANn4sjFixi8ZELyOcT/PXV56grL2FLyzLO/9BFMj0xk8rSF+uSgkYuh4v6yqkkskMkkwmS6SSNVdNpbt/Kw8/fS1VVJacf8xGm1c7FVHxk86LGg4lu6Gi5DNF4hI0tb5BY+gylSjmvlfqYWAEt/0iRs6VLR+xLI7JNrr3uGhYvXoz7llvw/PrXcmwrGCT50ksIBYQvfP6LDA4Ojtic7IFsBH7QtO5dgknDgYoaA89Lu2IQ9DqL/LwD7/n/eivZlg0TcOi4lF2SyzHDJYWbhIVBqD3azUZgfxE4aARBxAaI/PWKinKOWXgMJ55wIukSB9c+djvBlhjXXfI5SkqhrkQwXod4NST99a8U5h3wM3Tt1Ty1+k1WbljL1PoJLFuzlulNAc469nzqyicTcIdlUGHOyFISKJepjXkjj6jLKESQUlqcpSte4smlD1JSXsRRM0+goXIGVSWTMSw3iVSC3t4Wuru28ur6pwhmNL43UC5TkP8S9vCPcg/F7gw9r+cw8weYmLy/u2BfJxG46KKPcMXHryhkLBgGgYULUZNJ+Vnihhv42psr2Lhxo42WjcCIInCwCAI6+J7Y9dti+iF32oEF3K4YMCn1KNSH9v5bpVsKt7c30ZINjCh+9mDjF4FhJQjih33SpAbOP/98SQrKy8sRCoeCLIhKjRf9/lt0JQZQTIvTgpOpKfVxyvzjMSwP+WyW8H/9DEd/hOTMaXRccB79Ax2s2fAKazavRLcCuLwTWDBzFqccdTyTKhtkwKFTdcpURkEKLCF3ZIngQoOO/mZ+fM+3cXosyiYUUVJWisflRTd1SkOV9HVHaG9vxzA1mRYZ0Cx+EKnAgUKn1+SBeR76Yj6sRIrEOh1z+GOUxu9TcxBmLuJI7n/gvp2CV2II38UX41y9Wu7zrRPr+Zvf/mE7CNDbXe4DgYPlYhDDul8Fx+CuQ10IJe2trPPepqmbFi92WZxWt2/rgPgu/bK9iU2ZoL3vNgL7ROADEwRBCgQZOPvss5k5YwalZaWyZsI7mzi471n6N+5Z9ldKfCH+cMk3ufvRX0pLwILZ89EMB+RyGJEICZeLvmgbK9Y+T3v31oLokahw6vBRVbuQitJKfN4A/YMRptQ1MGfydCZW1siUxrSu09K6gt//5U56BrpkqqTQPhA1F4TMstBE0HIG0cE4Xq+3oI2gFmo4TPWEmWl5WRXU0YJuisvDdLTpZIYsMhsyWHbBpn0+UAd6gSCSDzx4/9uqb7r/4z/w/OEPPFBayt0VlQfatX2fjcABI+BUTH46dc2Bihvuc1wRqOhesYsg5I61MMv3edvbLnii1eTUOhXPfpYg6dM8/LDlAwouvL8p2lePUwQOiCAIi0BjYyMf+tAZHHf88dTUVO8siPReOIg39eahbqpDZfQPtrOmdRlrm9tRVSf11fWkMxmSsW5aejbS3r2JdDpFLpfbbhVAmp5PX/TPJHUXTRNnMKV+BpFoHz2RXqKJKOlsShZwWrdxCdGhTkw9h2mIgk9CcVHB43HjdLnkXIU8byDgw+l0SQIh0idLy4tkdUch3exyuvCISpJpkRGhMNinktuSkaWmZelVzS6rOtzP/Fe/9lVOOOH4nd06/v53Xvru9/hpVTWGXWNhuOG2+9sPBM4r6+HMsoK8976aKKz4t2aTRZUK1YH9c0sqGfA+u1scwkSL/Nx9jbTr82fbTeZVKJR5d/WRMVVSupO0KeyhyGqT5W7tbSTnq1uOQDP3bXHY/5nYVx6KCLwvghAKhVi8+FjOOvssjjjiiD1aCvYHJEEA7njkB/Lgrylr5K2Nm0llMziVKKaRR3FYZDOaFELKZYVtv1BvQbz9hwPFnFc9nzf64zTMO57FcxZK14JuaSSSUR558nds2rYKVA+K/OdAsRxCoQlFNVEVA1Uxyec13G6HtCDsqOdQXBaSpEA3LFwuN4YO6ZSOJccXJEIhM2RgiSyMzPBHNe8PdofyNWVlZfz7v3+RWbNnyf1+6bHH+dVvf0fWJgeH8raP2bWJQL8fTl6HR92/l4GWuEWxBzqSFsm8cH8qzC1XcO3jHPa8psiKjbIpkD3FwtoPb9pb/SZBjwtN9dOe89GcCdCR85E0dlU53QHux6raOCa8K/Pnhm0zGNLdYxZ7e2JjA4F9EgTxtl1VVYWQvL3o4osQJOGDNE3P8R+/+Ry9Q13yENB1Q/5LZ9zkdYWAL7WzZLOotSCsDsIJLWo0eD0eGnQ3X+orYsipck9FmJoFx3DqMXPRdZMXlzzDy6//DVGcXag0CteBOFs+ka4g6CpiyGHyl0AfptOFaSiyXrvb65UlpIUVwR/y0ZMKSp932JWgMmTidIpKkA68XjembtE3oNKzKoXZbwclfJDn4L3uFaqZIpVVEES72QiMFgJzgjFZenl/2mDWYu2gxYk1u9hAQoO/9hRzwoQcdZ7sXgs+KWnwPq8QOL0ObVOUjJ4gv2B/RoWbW6fRnfPu82JRdOrDu9WT+FHLdHo1zz7vsy84vBHYK0EQGQiTJk3i05/5NEcffdR+uRD2B8pEOsr1d1+Bls/JVENxCLg0k7M6VZ52hekM5nGYfVimIQmEKOssaLUlKjZ6PcxJubhiICjNZc3Fbv4+p4qeQZO6Yi9vrX1R9ivcCMaOUtCGyQ+zE6mx3BhYfL8iQtIrwhoVMpkswVBAWhE8PheEi9joqJLL8KRjTDUHZdVHgYWoBCmmUppXyW/I8vLGDMbuqpD7s3j7GhuBcYaACB4VMUUyV397gL2wuDlVwcMLh6HiEt9PCwSfE2Re2PTeIX8trIU73IXjAYKwM88Pmtbv11SzBvyj0+Ss+rebCp4ZrOBvA9WyD59qcHZZLwtCUfwOQ1Zy3L15XlZoevgCMm8N0HvdEvKzLfTGfQ8vDvkft05DZCi8V3tnwan9JRb7noF9xaGMwB4JgnAfXPfV66irqx02YrADRNMyWLHpVZ5e/mfWt7wl3/yP71U4o88pijtyb4XBSrcPt9KLJaoyKRTqLYgfJadTEoUzhjxMyCk8WJFBU0xy2Tx5pRpLH8QyEoTCfpKxNIYgGIbJKUaYf9XKWO7N8kBxEofTSXV5HW1dLQTCXmkhEAGMDq+Ht6wq6VLwD3RQbSYoKy+RBEK4N8SP5YdfjdM3sZgXvG5WPd2JZb/kHsrfj8N+bRUTKlm2YhmIGicKMgPJpxtcXVPPHAUGy3KEvjGb3GsJfA/1YOLjJz0trFXyGJJCODHUHMXhILWVjWSzw1/TYLg3ScXi2obN8q1/X82wLJ5qszi7viB4tKM9N1TOX/tr3lVZsaA4b1HnyXB88QBzgzHcqiWJVWhNECuuYwzl5O9efsr+FW/6e2QCT0QKLzZ7a/9U3s3ppf07P76xZTr9tgVhX9t72H++kyCIQ/jUU0/hsn+9jIaGhrdFkw83Sps6VvGL//se8WRMugKmxxT+pa1QVfG/apO0OQ1yRjEOEjhVTVZ1FG/vOyoxiv8j1BOFC0HTdHQtTy6rY6phFNVHyJeSokhup1eSEcVp4HO5MOX1hrQeTG04gjxJNCUpCYKs6eBUaW4ZxF8Uwm3kSESTTJhQhs/vk58LonD20iTeGUfSv/gIXl36PMsfa0NL2yxhuJ8Ru7+xgcDkmbWUTN5CUTKOO+9GxUE67OeEF7PMaYG+CYM47pyB67EoRf+TIas6eOQsJx3lOqFYDqelEA07SFPF5pchlSyoqI6lJg7tBm9aCgwJxcTTS/uo2o/iTK0Ji66kxTGVqrSoiJY0HNzTOYnWbGC/yi6LsX0Og4CqMzGd4VMtHbh2s76YAdCOtbB8e0dMuEp/013PymTRXi+6rKqDY8O7BMa+t20mUbvq41h6DMfkXJTzzj3fOv+C8zn//POora3dWVb34MzWYlPHau76242ksnH55i9LNltQmVfQcnm6nHnyui4DBHWKEdWZ3Y4ETrcDVVGlW0LcIGIDRIGmVDJLKpGRkskilkA3PXgCkzh93iJqyyvoi3bw4spHUR2FKpIik6GyuIHaynoGkl0kcn2gFkpCixLRbdt6qK6rkH33dgxIclA7cQKWoTCjfgFH1y6mGC8Rr8VrWx5j4+otrHi09231JQ4OdnavNgIjj8CRi+s4/5oEZZEe/Gkvcb9OZkKAwNdaqVo2gXUTLdzXTUFfPkTZn2OUpwfoua2KXJNB8UAOjDyx6hDd8Qb+cH0fsSFRZXVsNBF8eGF5F/PDMfzq/pP8mGbxUqfFzFKFpiKFAc3NG4kSNqeDtGT9H6hYkt8wKDJ0VMtCUxRiLhdTgkkuKO+h5j0sGinDwc/bptCf33NcwVV125jhL4iOiXb9ltlkzP3Mixwb22XPYhQQULq7uy0RhHiwm5Ax2tq1hl/9/WbySpq8ppOIpmUMgkhBFAd8Pq9L32U+l5euAUVVMZUQWt5JSTiLoljSaiCCGoWrwev3SCIRdJRTVlxBb7KfNbhQNRf+mMbRTVM5atp0lq9/ge6hVhxOherKWk6ecyFdAy2s2PoKg/F+giG/XL6o/jjUH6eiqhSnyyndFLGhJNOnT2H+lJOYUj2XqtJaPC4PqVxSEoT1zW/x4r1tO/2zBxtHu38bgZFEYM4JEznx6/3kYm2oOS+aw0kwZ9HwwyhmRxNPz5xEXxE48l7mdMdZvPl12r8ToneWsAeaqFYWb0kQbWAq9319iPjQrkNqJNfxzrGKnHk+XdNCvXf/LBoixEJkKUQ1C5eqcGSZIq0FD/fVsiJRhHnQlBIKMxeWhhOLBzinrFfGMOypNWf83Nq+52IO3560gQp3IbBaVHu8dvMR0pVqNxuB90JAsUagprEYYmPHSu79+62onoScTzKeIZfR5EGvOMShr8uMBRHslE1rkhwEfCH5CA/FUxiUEfSn8XgMmeUgiIR4668pb2Tx9HOoLKvhlY71PLj1Ddn/BE+QT0xZzPKNG5g/ZTYlQa/UV/AFPbJuw4otr7DkrWdIpdKUV5YgIucFUcllcnh9XmlpEC0+lGJmwwJOO/rDVBbV4vX4EGQnnYvTNriRZ197hJd+12wTBPt7dkgiMO+Eek78WpShVAdWXgT6ughpOpNvGMLoauTxOVMZcvtwWTBtoI9T162m41seOuZoaA4XKFnCQTfOvkbu+3qC6BggCEGHzlV1zTIOYG9NmO3jhlOmDMZ1JzndoMaVotJfOFQTupObW6eSNEa26muJS+Pyyg6m7mYN2H0Nv+xoZGP63Zlm/zl19c7AyH7NzY0tMw7J59Ve1PAicNAJgjhMN3as4IF/3Ma6rUkmNznQNA3VcMvCSqaiFwonbc86CHmLKfFXoZt5mmpmkkjH6It20mtotDVnKfalcKlxHC4VVVEI+Yq54szrCPtLGErHuO3NvxPV0nziiNNYUNVETtP484uPkcxmaZgQJuD3UllWxZ9f+hXxRIxcLk+4OEgw7JOkQEg2pxNZSsuEP0+hvmw6RzWdTkP1ZCnV7HS4ZCnqSKKbWGaQP/3uz6xZ0jy8u2L3ZiMwyggId1xxcTFTF4VY/PkB4sl+9LwihcKCWQc1N8co3lzLqiY/bUdDqMfBlHUKTV3tdHzbQ/P8HMjIepNAsQelbyKP32zR1zlENrvv4L+DtXxVsfj3uq00+UTpr7e3nKlKPYEXh8pZnQrLNOgd7asyaLFAKPKWwve3zSSxB72BgzXvd/Z7THiIiyZ0yeyI3dumVJD/fkdFR3HNzVPW7rxsZTLMr7smjdRU7XHGMQIHlSAIy8HKlpd5+JU7sZxC00Bl8+YcTfUqPmeIgViPPOiFJUFkHFSXTmLRtA/hUB3yIBZVGtOZLP1Gjl+sehbFNAn1xnFrWUqKkjgUA7fbw8UnXkVT9Qz5Fi+qO0p9BUNYJHT6Bnvoi3QTT8d4bsUbNFTV0FRbxmvrn5D1IYQQk0hhLCkrwutzk88bOLUAxy84nY7IVhY0nUxDxXRJDkSQpGHoZPUM3dFmulr7uevHv5eEx242AocSAiJjR9NyUN/GV+6ZRTQ6IBIZsBSLspSbST/qo2F5kLaqPOov5qA820/VXVFwpFj3H+W0zNGxFFNa2/zFXsz+Cr534RJmNR1NIlGwIo5Gu7yqjYW7CQbtmENXzivN84IkvLNVubN8Y9KmnX9+M17Mb3vqR2P6bxtTZFsIIafdXQ4i7VFoHOzeylwa323csPNPT0Um8Ng+sh5GfXH2BMYEAgeNIBhmnidX3M9rG5/CsPJ4/G50TSc6aGBqxcyb1oTfG6AzspWW7o2EfCWcPPcj+D1VqEIVMTVARXEtlqmwLTnAfy77qwRsvt+HJ9lNZyQj+ysvzTNn0mIWzTyDYlHV0TLoi/bIzyLxPlo6N7Fiw1Ka6qZjKQZVZY38fflyikJxfB4hw2xJ60VZebGMO3A5PZw048NMqZ2Ny+mWNR9cDre8Lq0liab6pSsi5CuiyFnJbT+/nZdeemlMbKY9CRuB4UJgB0GwJrbylXtnEYtG0A0nhuKgNKEw/aZempZ56KpKwx0zcT7RS/VdOaJenTX/UU7HXE2SA8HaBUFQBqv40UffZFrDPCKRyHBN8331U+9J85X6rQgrwu5NHJh/j1TuNY7gC3XbmLbdpC+sB9/aMpvcGCmbLLQVRFzCjiZSF0UK4+5NZGhcU79l558e7K3l1VjZ+8LOvvjwROCgEIREZoi/LLuLzV2rcDicBAJBUtkElm7SUDabrm6dsuISJtfUSWtBa99GwoFSyouaUNQQy9c9QkVRFdNrhZyYhcPp4pXO9SRzSRaUT0TX0zyx7D76BuMkU37CQY0jm2axePaZsqaCeKOPJeNsbl/F6i1LiUajlJVM4Mjq6VywdoBtuSyPFrsZCJj4vHkwYjTUT2RW41E0Vc2mqriegDsk5y7IgJByjmeGGEpGZAxCRbiK6qIGVNUhrRVr1qzl1p/fSktLy+H5FNmrPuQQEARByJFbdS185VeziQ4NYOgOLMVBccpFw496mPqmn47KFK7bZ8KzEUrvTqM582z4fjGt87OSVAs3g6/IA5EJfOucl5k741ji8fiI4yXqEXy/aT3ed8gmvxEv5vf7sAYI8/wOU/7aZIi7u/ZDwWiEVlji1LihaZd1QFhCbmmdttvoFt74Fi6flGJOecE6clfnJNalwiM0Q3uY8YzAsBOEjJbitc1PMhDvJq0lKC+qRsFB92AzRb4yAp5Sgt4iHn/5VRbOmktDZTWarmFYJiZFZLUE9z3+IyoCE1k0+zR6Ip0cPet4mW4oUiNFKqMw92/tWsvzKx4hmhgkq/kxDRdzJ0+lrqKWRDzJqyuew1CzON0qQwPiPoUG083XIgXm3ByGB6dbxBIWecPDjIaZXHb6pZSGS6TrQbg4BDEwrTzR1CDNHZtZu2U5nzj/OuoqGrbHFe/aelH86dG/PcoDDzzI0NDQeH4m7LnbCEgdlHw+h1XXuosgGNImQHHaS8ON/Ux700f3hCTcMQPz2X5qf5kh7zRY8/1yWudpGEpBCTVQ4kWJVHH9Wf9g3szFI04QhDDR52qbd1oBdmxve9bHz9qmvGcGwhmlfTLFcEcbi4frrdNW7cxH2JQO8N8dk3fO18qnIbJB6jScVKNyco3Cvb3TZM0Gu9kI7AuBYSUI4o1hTcfrtPZtIOAtli4EWXBJy+FzB/A4C+mE4m96XufPzz3NacceT0moGMNykDedvLr8zzy35C8ym0FUeRRVFb902feZUFFNOheT5n6fJ0Ak3subm19kdcsSaWUQ7tJYwiskDdCzAyRjQ5RPKJP6B9HBhBRDcqFySaaEes3Bs43QXaySSWWpKKumpmgumuHF7/Yyo3Eyk6pqyStJWno3snHDRlZuWkok2suk6ql88ZLvMrNx3h41I/r7+/mfX/+GZ555Rrou7GYjMB4R2BNBMPMivsdFIO2n7se9NK1001kRx3PbPFxPRSj6dYyoL0fP1yton6ORd+ZkYTTpYohM4PqzXpQWhBGNQdCSNHlifHnq290aQgPg1rbJ9Gh7qWNg5HFrEW6a078z+r9H83DTGCyTfNu0VTsfsSWxUh7ordv1yFkmVv9aMPM7/+YonYLpti0I4/F7OdJzHlaCkMzGeLPlHzJYsMhfioJTBDHjcfllIm9GS0oVQyFP7PvVb3mzv5snG2r41/Mvw+8NkkgOcs+D3yaZjG/XcrdwOtxcdManaGxagGEkCHs80h0xlOxj2cYXWNf2uiQTVt7kzGaFTWaQ1/0qKa2H0iIRxqNL9TaXs+AuEBkLHq9LBkcK6eZMKsNRM0+gsfxIJkyooi0a586H7yPs8jJrag2bNr9OKjmEgqgNUci4CPrDfPrC6zh94T/hcb/7B0amdW7YyH/+589obm6Wbgi72QiMJwQkQdA0zLoWrvnVEURj/eiah1hnmHtveJnazX5KEgYxn05mkh//YJ5QL6TcOpF6L5M/FOLM/1eH7hwiVBKCSIjrz1rK3GmLSSRHxsVg6VkYWCdLL3/jqLeLAt3fU8dr8dK9bokVbcadH+Lmxc6dKon399bxWmzv94zG/rpVk59MWbNz6CcilTKe4m1NSyLWs5MkhOtR/OWjMV17zHGGwLAShP5kB2s7l+JSPbhVP5u7V1JXOpWKcK0kB9l8mqC7GD2aIHTTzdJH+Xx5EW9Nncy5x53Oo8/eTWvXRmlhEEJJwpwp1BNPWnAOx8w/V0ohB9wGxcFyqZD4zFt/pD8mqkJa1MfgX9cXfGzr/Hl+qvbgL52CW02Tzwzi87tweURVRg8uj0vKJousBCHccsyc41nQdCrBYDFfevI35AwdnwpznP1sXtuFSRgLNwpCGS4JVhJBPRYdcQpf+JfvMKGkeq8KlK++8iq33/4L+vr6Cj5Zu9kIjAMEZJBiPgciSPHuWcSGYgx0euhY4uD+n76GyyzFdArCrGKpCoZq4DBV3KYI/PXSsNDHaR+ro3FejkCFB2OwmOvPep55004gmRwZsSQr2QPJLsJuuPHYXSWQX4mV8sfd37L3sB9W/zowslwx3cExlQpjVTugwpXj240bd67g0YEqnh6csMcnzMoMgnhJC9eBso8a1OPgGbWnePARGFaCkNPTPLPxPrZ0rQZdwaG4OOPIy1EVh4w78LtD9A52MZhJUvKTn+CIRYkddyJb5s3hwaceJBVfU7AGyCqOhQImwuvpdfn41CXfJxAM4vc4KA0W0da7kSfe/B3ZXFZaKoIWXP6GQTiv8Hhljj8lO6mfVCPdFA51MopiktebcbrBFxAVGh1SrlkopM1tPI7jZ56L6nRx1aN3Ec+lCTkNittWk05sz5fe/oUSFYiFDKrIzBBxDULM6SOnXcnFp39CWkH21PL5PI89+hh33HmnFHmym43AWEdA1B6xMHBO7Obz/3kk0S6DF/9vgEfv3YgzX4SpGliOFE7LgWKpUkDJxIFDSaOabgynhrcizzdvPY3g5Bj5WA0/vOwFptbNIpUaGbllK9kFyR7pn//RYgcBl0J/3s0tLdPI7yMLwRraBrmovPeMepUeVxNrxmBgn52hMNa/SeN7fsNKEAQUeUMjl09LUiDiBRyqSwYqpTJJnnztEZLpKBWVUzAzGdavep41PevQDINYMoWulmFl22Vw4M5mWXg8AT7+4W9RUlqO2+0i5HHTNbCWJRsfo9RXR0loAl2RFnpaN+I2YRCdlm2dNE2bSFm4mnMXfoyhRJxnlj/LYDJKdaUfjz9dCEI0TS5Y+Elm1M5HMzN0xLrYEGll64ZXWbH81Z1v/YIMCLKiGBaLMj5e8RR+5ITio3jbqiyt4ZSjz+GMhf9MTflEmeGwexPWA5He9chf/spDDz0kS9/azUZgLCPg9XqZOreCovnb+NPdK0i0eSHjxbBE4TRTVlt1CmKgCAVUoTyqYqoZLFEG2vLgEHa3kijzLggzc+o0tjxRxFAkLi2EI9GsbBSi2+RQc8sUPjHLwQ3NM4ntT5GibBRr+73ye14+C5x7iVcYicXsZYwjAjE+U9u689NfdTWw6j2KNo3iVO2hxyECw04Q9oSBSHG88+FbeGrZ63g9bgKuLEWhSrp6t5LOJOQhLFwKhulE8VZhpARJ0GUKpKDwLoeHC07/HNOnzJFuBodlkc32MpBpxWX5pURzJNbHxrYV5Iy0FD9q2dLB1BkN1E+YzmnzL5KuCmG9CIdK2dbVydPL/4E/kOWYWTM4Z+EluB1+htK9iDgK3dR4+NH72dy2dmcRJkEQ5A+FZbEo7eNVryAYwmWg4FAVSRRETENZUTnzZizmvMWXMrlu1rtcD2Kt3d3d/OlPD0mrgh3IOA6/NYfRlKfNqaV8/gAP3vYGif6gCAfGIWqimIpMeRQVUrFyTG2YTndvH6lUEkXJo4ovrqmSdxgc8+ESjphdy6pH3WTSI6iiuFuAnsepEq6eycBeihm9a0stA2tAuBny4PShlM3gbfWcx8gzcFxRhH+p7Nw5m3s6G1iT2ntVxzEybXsa4wSBg04QBmP9/PefbmTJquelWqKoF28pRWClsfQ4WIXAP0PX0fMGKE5cgVry6S5UxZBv5+KNoyxcyec+fgMuV7CgP6CnSWbb0HVR/TFPf6yTvqEOuiPt9HUNyMyFhim1TKmbxbEzzyLgL0d1hfA4TV7vXM8flz6PM5njqNomSkIhqivKqK+pxDBSxAYTPPLcfTJrQZICRYRWbs9stBQcpiU8KIWmFD4Xss87SIKoEeHz+jlp/jmct/gyKkvr9kgURCDjffffz7Kly2yLwjj5whxu05xyZDXlR/Xyx9vewGmFKK5z4NDduNvzTPRUM/OkhayMrqYoZpJ4bRNZh4voZIV0UMfWF+gnAAAgAElEQVTUHLRsHeKYsyqZc2Qjqx51jCxBEPlNmQjEWsEdRCndXR9gP3bSzCPiGJRgFagjW3NhP2YnLzmzrJfzdhNKsgnC/iJnX7c/CBxUgtDV38bP/vBt1jWvlBLFwkogTPoizgBHGIerEl0fQs8OouczGKJKo2WhOt14ghPRMz1gaYWARcvisx+7mtrKOThdAZELgakNkjGHaO5dx5aOdVKyecvGraRTWYQPVQQhHj1vER86+qN4fUW4fKXyQP/hq//LYKYQSf2dky6lwudjfXMra7atxzJSWFqajS0iO0KT44jcSWGB2L3JeariPUkQg+3Whe1WBkEQHCIIUlGoKK3mY2f9O0dNO1EKL+2prV27ll//6n9YuXKlnfGwP0+tfc2IITDliCrKj+7mwbuXMv+EOj78/6ZTkj4B5zOdVPY4iXsyJM6NUfJiBxMfTpNx5Wm5voquI3XSER8/+uLTLDhhErOnNrHqcYtMehRca6Lk616+eyMG5EEa6OKKTk4s2ZXCaROEgwT0YdrtQSEIonTzls71fO/OL5BIR+XBL7UPdEEOCgGIs3QfH8lX8cciP60Og0xukGyyG8ShrIjvswt3qBEt2YUu0nSwWHj8XE496iMUBeqF2AFZM0YsE2FdxytE+qJsWttCNp2TB7Z8q1cVZjUu4JIzPiMzF/CEcDg9rI1s5cH1/6A2VMZnjzoPh6Ki6Vk2tL3Ec88/QiKVxkMdGRmoFZWBV6LuQ+H8LxRJFXEVkoQIkiCsrIIoiA8En1AVqbsgLB0iiFGQi/OP/1fOXXypFGDaUxOEY9WqVdx80y12xsNh+mUci8uePLuS0uM2UV/XAGU5fC4o12Zy5MtBlBdbGIwtJ/G1MkIvZWh6ME/GmWPDDeW0zNcwDDdmX5CBaJTolgBrHxcWhFEgCGMR2GGa06UVzSwqTkj9F9GE8FNrtqA3YzcbgQ+KwLAThHQ2xZ9f+K38l86k5UEtXAfS1y70EQJl9A/1cHW2ijmGX3rxb1bbWK3kcAcqcXnL0FLdmNqQjC3whCai55Jo6QFq6is47sSFTCybITMkYukBOoc2SyGm5S+vIZ3MSguBsByI74twT/g8fj534bcoLa6QMQIOjxeHw8JQHeiWcE8kyBkGKze+yotLHkGQm2Mzfi6NlRBxqDwSjrHKq2OpQVGXTuLtcSRwqik5P9GnaMKSIIiBWK+wkoixQ8Ewpy74Z0kUXnjzz5x17Ef5yEmf3GtKpOhH3PvKy6/ws5/9nFgs9kH3177fRuADITD1yCpKFm/FzISonVjNhJoi3GmdaY/EaHhkG13lMSLfbcT//9v7EjA7zurKU9vb9+7Xe6sXdatbUmuxJGuxwBu2AUMIBCbGMxMMnpmQYYZkCAG+LDCJQxhCIGbAzGAbiId9AAM2EeBVsrVY1r5v3a1W78vrt69V9aoq3731WpCZyQjZkixLVfrktrr7Vf11X3Xf89977jk7U+j6vo6y8iuAoOkiBneIsBQNUsaH41vcKJccY7NX9Yb8+otp0mvuMLqCFj60UoJLBD4/2oNx1QEIlyzG1/mJLhlAqBo6th98Cj949muYSU6wmyKP9AkCGqNtaK5rx/jMCG5cdjNeOPALhOcz+C9qEwZRxoPCONjahav5EiTFC8XbAMnlh1ZMsECR7A5CL45jw60DCIXJ71ywnRXLKg69dBKlEo071ioHEk0W1Hb3ooCBrnV464Z7mBcgknaTWIVuVjBXmMDs3DTOTQ7h3NQZ23IaFu7OB/HWgu2p/sNwDjsDZUCQUEU9DCsIvysBSSjb5ErTArUUzrccRIHBgabpiMca8ZaN70VbfDFOje7HjuNb8K/v/BBuXvFbF3zsaBTs6aeexiOPPOrwEy4YLecbLlcEFi9tRfs6HSf3FNG3vBkr3uiDoBXR9j/2oPeAiKlYCelPdcG/K4Ou/62homh2BWG1hmLChb9+/36suaUFq/o7cOQXTgXhUr5PlpoD0rYJk18BfqdbxHa1F6MVeyPjHE4EXm0EXjVAKFUKODS8Ay8e3oLDJw+CPAloZ00JkwBCNBTH5lVvht8TwOTsKKLhOPYc3YbZ+Sl4FDfrGGQKGZubUJsK4IFC8mInDQPFD9kdhSfQCF3NwevKore/AbRxn5vJYGJkBlqF2hL0/cQVoAqCBKlW/qddPYGJeLQFjdFWuBU3izbN56dhCDrKpRK3A2jNTJK0LMgWsLkQgCm6sdMvQRVEKJaO2/MBDKhVHIgUsC9ot0Kqhk2kJECy0F4gsiIDBkHC777pD7CqZyOvh2ShD53dgfvf/KdorvvN7GITcwn89Ikn8PiPHndspV/t0+68/qIiQD9TS1cuxsqbW3B05yg8dVXc8B4C4jPo+ZsZLNvnwVhDCYlP9SK4kwCCjspCBWG1hspMAH/9gV1Yc2sjVvT34/AvTafFcFHvwAW+2bJgzR0BS9PWDtETghXpuZRXcc51HUfgFQMEVa9g35mt2H5sC6aSo1ArKpKJDHSdphKM87yD3vYVWNFzI3sqJNKziAbrQW0IiZI/77Q1HD79Mo4PH+SkSqONVEmgUj+1H2iHLvWthBJohEz8gmQSiuKFWc3B0HWYVRWWpTKZUUD1/EQBJWz6y8CBNAxq3AcWSFJkbgfQnLemVyGyVoMM3RBhGAtEQmIV6JBFFQI0NOgiPjFTx62Lp6JlbKun69kERXKQdHvcNT4CtRqI0Eggx8LGZXfgnjv+gHkIZEV9ZvwITo4dwL9/25/+f1sN/7ySaGFsbAzf/c53sXXrNmc08jr+gb1St04/Nz6vD/0ru9Gx1oMfP7YN8WUW7v79IEJVDQ2fS2PVbgIIBSQeaEHwxSIWf19HyaXh9F/W4dxqHaXZIB64/0Wsu6UVK/p7ceQXcADCpX4D1Rys7DnArPm+CCKExtWX+irO+a7TCLwigJDITmPrwZ9gx4mfcwKn3T/5HRTzJU6WOk0jUEWAyIhda9HXuZI9FWRRRqGc55HGQimPUCAKl+LGXHIKT+/6CerCcSzrIc8FA7sOPQtNr8AkLYT1txOhgNACzD3b4FGi3IaoVmZ5LFJSqHXggSi5oQgu0I+KKJBiIQEGEl0iFqHF5EgCJeQIKfAMtwdVwc3+8D6RiD4aBKsM09B4/QaBkxrIEC3gnvkAooaEn9WVMOMjIqVkqz1StYBaGvSXxh0Fam8QMAHqAs34yL2fYbMqmt5I5efx7WcexH99/8OQL5JZzWZYx47ha49+HSdOnLhigjPX6c/GdX3bBBACgQC6lzYh2p/EN7+0Fatua8Y7/iiGkGah5dMJ9O8NYbIhjcQD7fBuL2LguxpSXh3Dn4piZJWBUiKGB+7fio1vaMSyZUtw+BeCAxAux1Nl0DjmFKCTeJsAoX7p5biKc87rMAIXDRDGE0N45sDjkEUXDgxuQzzchliwCSfPHsLkzDj3yxe8FAg4rF5yE7pb+6HILsxn5pArZDGfnsHg6HHcuem3EY82s44B7cZ7O5ZBq6r8tef3/IzFj6jtYMXbILb1QEwmUB48zG0ESfHA5V8EQ88woVGSBCiShI8UW+AX3MiKVTwcmaN+gz1lUKtKyJLAiZyAQqKhF5onAMky0JEahmiRIZPJIIc+sskS6R7INumR1kKaDVQhYAKkx4u2pi5MJkZs/gSTI2n8kSYYRK4ubFp+J25Z/XbEAo38+mwhje888yD+7Pe+/C9ONFzoOaR1vbDtBXzta1/HzMyM4/FwoYA5X7/oCNDz7ff70LOqCd7+QXzv4T1YtakDd76/CSFZR9N/n0LXgQBm6jJQP7YY0st5tP2kgKLbROojdRheBqSno3jw489h7eYYli4ZwJmnfawx4piXXfTb4bzAicBrEoGLAghERHz0F59GQ7iDZ/rH5waxKN4LUZB5TPDnO7+PxHyCS+Bk50z6Bct71mHJohVcKajqOnSjyuX28Zmz6CLgIMkI+sNojrez0NBcagoTs+fw063fhKqS6pqAloZFqA838bTC4OhRVE06hy1yKClBKP5OGJVzCMHA32VaIEFASTTxyZakzWpgvQJAr5I6o8gtBvo7WbcYussH0TLRUxiHRzT4e8gCmvwTKOvTa+kXGrUmbGIkVUcsCARIZAWNdc0I+MKYSIwg1hDiew7KcbQ1dyCrzaC/fQMG2jYg5m8iGUakc/OYTo3g5lVve9VvOK2L2g6PPfa/nF+6rzqazgl+PQIEcA1DhxGfwn0P9KCpvgHP/ngMv3xiH/7si29EnVqCogegiRoy4TLCRS+8qgFV8iMZLmD3cyk8+Z1BfOUf3g9VmcbMCPDgB/dhWdcKlIplJ9hOBJwIvA4icFEAIVtM4R93f4v9DaKBRmh62W4dSAr0qobZ1CTOnDuBo4N7WOGwrJWwvHMdmuOL4HH7mLRH4ECACLfLi4g/yn14l8tjcw4sC6OzQxgaPY6XjjzPBMB4tAltDV28f8/mMjg3fYYTLR9cxbdL+pLbVkq8sVzAbUUFT0VKOO3WbPJgbQSRkjsBm4CXoISGCkSUAvXwagW0hCQmORIoIIBDLZNSocyVAKNKVQEbLNDXdZ00ESy43Pa9r+7bwJWBnD6LJR0r0Bxcgvq6RkT9cXgUPwKeIDyKz9ZOECREghHmYFyKg2I2OzuLv/n0Z0CCS87hROBSRMB2cyxDbxjBBz7biWBYwvCRCoZ2VOGVA6gKOaguAz7VC12QYUkqZEuDbIqsMlo13DA9Fdx9byMqcg6ps1F84b4DuGHJBuQLV8as6VLEwTmHE4HrOQIXBRAIBOw49gzcsod76pTw6BcJuxhb4N017bwz+SSPOR4/uw+lSglUeSDWPlURqDXhcXsh0h8u/9tCQ5QwQ/4wRqbPYOfBZzAydYaTKiVc1lKoahgaPwmVQAmNFZp2qZ+nH2jygDQOXG6YQggCvHAp5MSm2VUAAhDEYYCFjsYlaKpvR0UrYmTmFPsu+ENeKIoE07CJhZT8aYhCV3UUc2UYBvEXDOYXLPANdK3KLQUyj6JKwi1r3oZUeQqtDZ3wCjF0NS1FY6yV741AFAEjj4vW5eYqxqU+KO4vvbQbD335IczPz1/q0zvnu84iYAOEArT4Odz/2SWsHeINeFDJBPDJ+5+FOCVArQowBBmyIUMUKhAMHyCYcDdqWPeuFrzvj7uQmE+hKhioTMbw9+/bh5X9G5HPXxm75+vsLXNu14nAJY/ARQEESo7EIzg1dgipfIKrAnXBRliWrY6oSAqyhQzG587CNAzMZ2ew/+QO9pUPeMNoiLay82J7QzfvpImESNgi4AtBFkUoihuj00N4bs8TyOWz6GxZAp8niIpaQq6YxPT8hN0ekGW+HpX96dpVrcqjim6PCy63AgsKNCMA0xShiAUokg5ZVtBa34nOxj6YMHBkeDcaYq2YL45Dccs8dWFWawBBJD6BwG0E+nwmWWAuAv/y8yiI1ocZKFCFgeSdCYCEI2HcvfkeFCoZuBDCjT23waW4mHdA/As6qEpCZlItsc5L/kYunDCVSuFb3/w2tmz5R1SrV8Y177LdjHPi1ywCNkAoQq8fx/2f7YLsKcEdUOD2+2Ck6vHV+17E5H4ZVcmEqlDlAAwUVKmCT/zDrWjaVIHorSI1S2BAQGU8jM+/bx9WLd2MXN6WOXcOJwJOBK7uCFwUQKBb4cSoFnDgzHaIJBtsLZgVSfC4fBifHUG+lIWqlrHnxFakcgnu2S9uWYbR6WGU1QpW925kPgFVBILeEFb03QhYJhTFhYpaxo6DTyMaiPOUg6pVMDJ5itsVtPNWXMp5Ayf6fwIipGHg8bgZILAtM08riBAsCUomgnmXgK6Wety+5g5EA3VIZKfws13fQjQUQygU4NZBQI6hUi1iNjUGozZXTEJMoiygmLO5EPTvSF0AXr+HgQOVB+ijrpqIxYOIhKLY2HM3pmYn8KbV72FwQJUDrrIAyBVTeOrwt3Hf7R+Dz3X5HNeoqrJ//3585aGvYGxs/Op+Ap3VXZURoGdWN1QYTWP48EP9KKgpbu35ZD+aghGc+eAo/Htl5EIleD+4Fjg0Ac8zKRTcBvoe6UNmeQnJYg66WoDfHUY1WY9PvnM7bliyETmngnBVvufOopwI/J8RuGiA8OsnoBaDRhMIloCKVsLh4ZcxOjOEXCGF8cRZTM6dZUVBUjKkygJpHRB5kYl+tbYETQjQ7j4ciGLDilthVE0WVKJSPIEDIjMmc3Nc3qeev8dre7ITT4AUDGnigHwWPOfBAaCpOtxuBavSIt4968XLPgXHuxehEApjcesitMXr8PKJnyGvJ7mi0N04gKA3yqOJ+4e2Mfny11smVcOE1+9GOpFD86J6rlbk0yW+h4aGRvS2rcB8fgITM6MIuMO497Y/Qn2ohUleFB/iPVBlIVdK4/T0Xvyrmz4Evyd02Z9Gmij527/9HLa/uN0Zibzs0b62LsAAgapqrcP46KP9SOXJUE2EFx50h1rh/cgpdO22kGjIQvnSTVC3TaDx0SwKgoXcQz0Y7c8hVcyjLBnwRH2Q52P4xFt2MV8nn8tfW8Fy7saJwDUagVcFEBZiki4k8L3nv4KpuQmkcnMoV4rMRVBVDWv738DM/peOPs9gYcGZkZLreY0BUUQsHMeNA29kVcRcMY9MLomzEydRLOd5XJCqBV6vl6sE3P8n1URRQKVcgS/g5aWQyBKpKBJLOhqN4rfUVgwcn+CvmXfcBenudyCRmceW3c/i9PgwFFcavW0duHnFW9EW7+ARxsGpw3hq7/dqIkaWPdVQKqNUUnnt4WgAPr8HumpwxWTjsjfD4/MgX0ph56FnaaoSi5q6cd+dH8Pk/BivKeJv4OpEtpTAaOIk3n3TB+FW7DVfiePFF1/E5//uCygUnN7vlYj3tXANGyBUYbYO4U++1o/5ZB7QFZAeiLccQOyhIbQd8iAbtVD8kx7IexJo/mkBpruMcx9txeSADpO5Ngb8URlmOoQ/v2sfVvWvRyHvAIRr4Rlx7uHaj8CrBgizmXE8/PO/wsTUeE07wOKkTWBg7dKb2JzpuT1PckuBpJdJWImOBSdENjsSgIA/iFW9m1DVDIxMnMHI5GkmOlLlgHgHBAx8Ph9XDch3gbgGVI0gQiEJFlkmoCgKPG4PeltuQFtTB3yKDz27jyEQrkf51ttQgYlgKMKjlCU9j7MzQxifSWNyLovFrR24ZdV6QCzjyd3fgKaVuS1A7QqayJgaT8Djc6Fc0tHQFGX+w/Ku9Wir72bi5MEzu9iEisiOVFHYvOIt6G9fg9OTh1AfbIVhVjGbG8V0dgj3bP7D/8s++nI/ajTp8PGPfQLj407L4XLH+lo4PwEEVSsDbRP4+CNrsGf3AVhZEYaswDQlNGRU+LQINMlAMqwiqALeiheuqomJmAldqoLQhC6msbSvGS5PHz5153YMLF2LgtNiuBYeEeceroMIvGKAQInzxMQePL7rq5iZnYWh29MEpVKZRw8HFq9Db9sAfrz1MRSKhdqcvi00RMmcKwA8WUA7fxGBkA+WLnHyz+XT56WWiVPA1QOPh0GCJMtcmZBEgWWdqRdAv8wIHBCQuH3NO7GyexNMVLk10dXUB587gLOTp5DNpXj8kEiRFissgnUYvO4AUtksplMJHBs5hbNTw8iW5uD3GXC5DMiSgUwqB7VCwKfKkwudHZ1Y03MbtxtKlRyOnNuFYqHILpN33vi7PEoZDsTQHu9GsVxgAag9Z55BNBzFO9bf/5o8WtlsDn//hS9g+/Ydr8n1nYu+fiJAP3fRWATxJQIG3jUPs1pA+HgZkf0m/KYXECrILvbDu6kZqZ+fg9zjga+jHuYTZ6FoXrgMA6mIgdTdHpgBA4VMFw58Q0Ahp6FUKr1+AuGs1InAdRyBVwQQqoaGXWd+ia1HHmdfhVymhKpaPT8C2Ne+Guv6b8E3f/5FFEoFrhzQbv+8JHHNSMmWOiL3Q5F5BDQRUMgXbS8Hg8YKRbZp7u9eyZyEMxOHeCzRFisyOVnbbQqagJARDdfhnjv+E+qDTbYngygg6I1wgp7MDCGXz/BEBFUmVvduYi0GagHYB62DdkdV7J88jS89/ziskorOoAdStQwRMgp5FbpZRTzgw6bVaxgAVPQiptLDmEmfY06CWtGxoe8u1IUb+dxN9W1oiXZhJHECE8nTuOuGe+F3206Rr8VRLlfw2GOP4Yc/+OFrcXnnmq+jCFBrb8nKFkQ27sfSgQbE92XQ9kMdTRNuZOMW5m6TEfm3yzDxuZ2Q3tiEyIpFqP7lXrSNBKB5dYz2akh/uBODhRnMH4/j1BYvCnkHHLyOHgFnqdd5BC4aIBAZ8cj4Ljxz+HucDINKPTKZNFIF8kUAupuW4s6178bDT34G+WKey/O0018wS6LqAVUMqC1Av4Aoq7pkF2LhJuSLWSSSszyZIEtuLOu+AUs6BhDwhxkIvHT8KUwnx1iTgMCFVjEQjURBjpLsPNe5BreseTva6rpZm0CQJJTVEoZGTsITEpAv5nD4xF4GGPWRRkQjdZBFBSF/HfzBFtSFYlAkAQ/teQK7Jk7xo3H7oiW4ta0diuxGJpljIEJz3LLgQixYh3l1HIeGX4Qg2SOSi5tXoCu+AqJI45gix2R5x3qEfREezyTQ8y8dRPqk+6A/l/Mgguc3vv4NDA+fvZyXcc59DUSgYZEHqaYn0bU8jIBQRdtpP0JfPA39/uUYXZ1DxS/CXQQqbhGWy0D9nAsND07DavJg9t4QkjEREzPz0M+2ozq0CmqlZip0DcTGuQUnAtd6BH5jgEDJazp9FnvPPgefEkGlUkYyk8RceoJ3ytPpETSE2vD2Tb+H7zzzZSYrel0hFEsF5AoZW7vANJm8SOBAJtMkUURTtJ0TKEktF4t5jCdGGFSQ/kHQF4bb5eHXlrUcXjjyMxTLOdYtgClhbc+tWNy+DDOpMZwY2YulnWuxZNFKNNd1QzM0JEsFlMp5JCZG4PYqOHDsJbx8dCuC7hgC/hCCoQDiDXU8QdHVsQFebwyyKGEoOY7Hh1/iZP7+lZvREQ7A0GxuRSqdZrKiAh9kl4VTyV1IF+ZY9dHjdiPkrcOi+BKIUGyPBMnEm9fcg1iw4Td4lghk2GOjV+JwNPGvRJRf39dI5M7i4Rd+H4Y7C0nU4C24UT9kYb5bQTlUgCmaMGmU13BDEAwIloH6MzIMl4BcmwZdVqBpAha7bsH7bv8sO6c6hxMBJwKvjwhcECDQLH+mlMDuoS04Or4TreGlWN6yAZquszPhibE9GJ05jXi4Gffe9od4fPujSGRnMNCxER7Zz0zo2fQEIv467sMfGtzBOgrkZLi4dTkGOjci4o8hEorZOgmVEidI4hVQgia1Qr7+qaeYNEXkR0r2ixtX4caltwMCqRRShcLgXbykBCDIIWhGFRW9gKHhIzh99GUWayJDKQIXpaKta0AESH/Aj+V9K9DV2YfOthsR8MbIvIEVEImErYgGTD2L+eQ8Qv4IUokMmUqyzsOpqf0Qw0VuZRimyaOXpMdA/6a4FQsl/tzKzjfi39zxn+H3vHathdfH4+is8mqLQL48j+3HvwfVyvM4s2AKEAxAkyzIpDcCQJMtuKouCKYFXVEB02ULi4ma/bMEGY2+Pmxc/nZ2UXUOJwJOBF4fEbggQCiqWTz07EehG0QMlLF+0VvREutm4SKSTZ5KnsPO41vwH97yF3jqwA8wnRpDf+s6iJYCj8uDnrbl3F6YS09jPjeLfCmD7Ue2oKNhCTYsuwOK4EEsUodEepaBg1pRbVdEEjyCxb39/UNb4fKQ5oHO4kTUXmiLLMHGG34HshyALJbgVpj5iKpFngcKA4I9+7biue3fRbmUP78zl12y7aVAEIF4CjQl4ZLRXNeG3r5e9Pe+CYrs5TL/TOI0SsVZNo1SjTIi0QBKCQFzqRnMpCaQLSbR3BJHV8+imj20yVwLmrCgToLskjA7nUIpV0F/50r8x3d+CtFg/QWfDFvu+cpUES64GOcbnAg4EXAi4ETguozABQFCWSvgfz7/cU7eEV8DNve8A2FfHRsu0eheQc0gFmjCvsHnMZ0aR1d8gA2KIoEY9+3rgg0sqUwujplCkgECeTqQ7LFlClA1DYVyBoVKlnfbNAVhWDryxTQGJ48gVZ6By2PbJ1fKKlweBWbVRKWo45aN70V740q4XDIkwXaJpOI/iScdPbYTP9ryVUCkpG0bQS2AAd7d8PEr0ydqG/j9AcQbG9DS2gKPEkClUoBharbJlNvE9NQ0Zqfm7dZBDajQNbv72rG4n0CChVymiHKhwuAglyXAo/OEB1VMGuub8a6b78eN/bde8THH6/Lpdm7aiYATAScCTgRecQQuCBBKWg5ffuaPUTV19MRvQHd8FQKeCHsgeBQPIr56jCZPY3R2EI3BTiiSm0cRXRL5ENg5mACB1+2HJIhciaDeN7UbqJ+fLaaZzEdVg6ODe3Hw5EuwBIP9EqhqEAoHGBRQ2Z52/lSN4Na+LLKmwcruu1Ef6rLdES1Aq+hIpufwje/+BYqlIn8feRKQd4Nt9SzVJhdskEBVCvovrYk0GqhuEQgFEY2FEA5HeJabPBRy2RzmZ1M8MbHwOiYTUiVVELF8TQ8aW+uwf+cJVMoar5OuG4tFePySWyaSCK/Hi/Ur3oDf3nQ/uz3yCZzDiYATAScCTgScCFxlEbggQJjPT+KRbX/OaWxl+61oCHbCtKpwyV60xxbDJXswlhhkSeEFREC7/QWyHe2qDYs4ArY4EuVXml6gXT6L9lD/UpGZ1PjE1m9DN3QWGyK/g1g8hFAkwCV7TsqWraNAfxdsnGnaIeruQ9TbAwlunlCYS47jR09+gRM+mS4RP+D89ASbPZFFtMRVAMEiiGCxnwP7K1iAi2WbbWVGIlQSeGD9hppdM32Nqwh0EEaoaTUEQ34U8+XzfhAERsghsr4ximDIx6Oc9DkSWfJIAbyh7x3YuOwO1mlwDicCTgScCDgRcCJwNTw3FxMAAAXlSURBVEXgggAhXZzDw9s+wQmxMdiBzvqVvFtvjfQiFmhEqjjD7YaSmodmqKiaKrRqhS2O/a4QW0Iv/Jt23CSTTK2CRDKBUrnAfguzyQnsO7EduWIGEIFAwMueB5G6ENxeF1cPFnrytA46B33MZ0uYmZhHYjqDulAruhatQihYj6Fz+3FqcC8nZ0rmJqgyQMBEgkKjhjIgyzYIWGj103QF+UDQd7tctukToQUSc6L/X6gw0JtH4ISuvwASbFIlVUFsAhbbQgNMWAzHggiEPOwhQZUGek25pEKrVHkUs6u5H3etew+WLlpz3vXxanpAnLU4EXAi4ETAicD1GYELAgTD1PHkoUcwOHuQd9B9TRvRWbcci2L9mEgPgUSTeHcPEyU1i6HEIQYNfU3reIphLjeF6eQ5NPv6EJDrbRvozByGx09ifHYYc6lpmIYOiyr3lJ95e047dJN352SS5At4GCjQoZZ1tlku5MrcNqAKBbUOuFFgUNImOGBXGtj3ofa+UsomXQRSXCTAQeqMXNGoVQB0XeOWAHMVqBUh11Qea4RJqkYQSKDWAWsV1EAAFxH4HOTaaJMruTIBwB/0Id4QQyqZgaZWEYkFWQ3SqFqIhmPsckdul8STWN61Bu+86QOIh1qdtsP1+bPo3LUTAScCTgSuqghcECDQaqmlcHh8O/aPPo+QO4Y7l70Pg7OH2HzIBgdAqjCN8cwpaNUyJ2fiApD74dT4LPK5IlcZSNuANA7ypRz3+kUq4ZNokiTxLp+SPfcgOPGj5vpo1oAAfaSkT94LIrcPyLGRSw61RfCunrgE9H0mmDvAvAJu8wvcMqAyP11iQZ6ZwALdAREkScKZRhspvS9MUtAaCSzYDpQWg47/p6BRTbmRXk1SzP6AF4GwD4Zuwe1z8SREej6PWF0YwWAQNw+8k9czMnMS07khBKIebjW8Z/2H0Vm/7Kp6SDi8tYqJo51w1b01zoKcCDgRcCJwWSLwGwGEhSvT1ALt0FW9grHkIPYPb0U6P8/8gUIxj3QmjXy2CJVK6KrGiZnkkAlAaLpNTlxQCiSLZ+rHUwK2k4/JiZn+GLVkRJwASsh0At69E2rgVoG9S6fpBYtmsxc4AVx5sJhLQCJMxCsggECggcGIJDHhkT4a1SprINhgw+YflIolm3QoEUixQQSt3ev1nJd/ttcKVHWdz2knz19VFQK+MFweEYGIlysFVFWQ3bZqpFrSWEehPl6Ht256LwK+CARLhGYVMJ49how6B587iA/e/N/gVnyX5Q1/NSelCsu+Awdx9Ogxxz761QTSea0TAScCTgReBxG4KIDA/XOthMHpwxiePY759BSS2TnUBVohmBJOjx6GLLoxNTcGvzsCn8+L4dHTyOWydoKtAQQa+SMioOKSOUTk1WCX9Mk/wd6t02giJWFOwFRNoNdSm6AmQmQTCKl6UJsCsAsBXIVgF0iJlBsp8VPVwYAoy3C7FPu6iszGSqFwkBUdqSJAr/HKASiSB4n0BH+Ozs1Ew5o8NAGHBd4BkyWr/1w2dmnXGqxfcTN0lPDy8Wd5XFNykU+Ews6OIW8M48lBHDt1EF1NS3Hr+rfxVIMpGJjMnMJY+gTzF+7b/Feo97dctY9PqVzB6MQkTp08hZnpaQcsXLXvlLMwJwJOBJwIvPIIXBRAyJXSODDyAubz08wXiPobIQtuJheKkBAN1POYI7UQSBWRxhVPDh7BgRM7bU5Arb/vdru4F0+kPirr05ackqgiuxCPNmIqMcEVCFJNpN4+VQD0qs47+gVSIVUgJImph7VRQ4F39iwyRCDCslhYiSoPJINMQICu6XITQFBQLpXhqf2bgARpNmwauBP14UYcHdqPY8MvM5eBgApdwpaGts+7YFnN7QZCD7XjDWvuwtqBTSwv/fTeH3KFQ1BMLGlfha7GAV47VWFIGro93oNwyB6BLOs5HJt+ERWtyJWDf7f5M/C5rv7JBlWvYiaRxLlzYxg7dxbZTOaVP4nOK50IOBFwIuBE4KqKwD8B2cd29/e2oTAAAAAASUVORK5CYII=;" vertex="1" parent="2">
                    <mxGeometry y="20" width="816.38" height="460" as="geometry"/>
                </mxCell>
            </root>
        </mxGraphModel>
    </diagram>
</mxfile>